<svg width="36" height="36" viewBox="0 0 36 36" fill="none" xmlns="http://www.w3.org/2000/svg">
<mask id="mask0_5905_27749" style="mask-type:alpha" maskUnits="userSpaceOnUse" x="0" y="0" width="36" height="36">
<rect width="36" height="36" fill="white"/>
</mask>
<g mask="url(#mask0_5905_27749)">
<path d="M9.55992 26.4592C10.9442 25.5018 12.3526 24.7488 13.7852 24.2002C15.2179 23.6518 16.7853 23.3776 18.4875 23.3776C20.1896 23.3776 21.758 23.6518 23.1927 24.2002C24.6274 24.7488 26.0368 25.5018 27.421 26.4592C28.4805 25.3233 29.3123 24.0386 29.9164 22.6049C30.5206 21.171 30.8226 19.6105 30.8226 17.9235C30.8226 14.4848 29.6265 11.5693 27.2342 9.17674C24.8417 6.78447 21.9261 5.58833 18.4875 5.58833C15.0488 5.58833 12.1332 6.78447 9.74071 9.17674C7.34843 11.5693 6.15229 14.4848 6.15229 17.9235C6.15229 19.6105 6.45524 21.171 7.06112 22.6049C7.66726 24.0386 8.50019 25.3233 9.55992 26.4592ZM18.4814 18.5634C17.2152 18.5634 16.1493 18.1289 15.2837 17.2597C14.4183 16.3904 13.9857 15.3224 13.9857 14.056C13.9857 12.7895 14.4204 11.7236 15.2897 10.8582C16.1591 9.99291 17.227 9.56024 18.4935 9.56024C19.7597 9.56024 20.8256 9.99492 21.6912 10.8643C22.5566 11.7337 22.9892 12.8015 22.9892 14.0677C22.9892 15.3342 22.5545 16.4001 21.6852 17.2654C20.8158 18.1307 19.7479 18.5634 18.4814 18.5634ZM18.4992 31.5389C16.5966 31.5389 14.8189 31.1854 13.1661 30.4784C11.5136 29.7714 10.0716 28.8008 8.8402 27.5666C7.60876 26.3326 6.63955 24.8927 5.93256 23.2467C5.22557 21.6008 4.87207 19.8274 4.87207 17.9265C4.87207 16.0257 5.22557 14.2512 5.93256 12.6033C6.63955 10.9553 7.61015 9.51435 8.84436 8.2804C10.0783 7.04619 11.5183 6.07558 13.1642 5.36859C14.8102 4.6616 16.5836 4.30811 18.4844 4.30811C20.3853 4.30811 22.1597 4.6616 23.8077 5.36859C25.4556 6.07558 26.8966 7.04619 28.1306 8.2804C29.3648 9.51435 30.3354 10.9556 31.0424 12.604C31.7493 14.2525 32.1028 16.0217 32.1028 17.9118C32.1028 19.8144 31.7493 21.5921 31.0424 23.2448C30.3354 24.8973 29.3648 26.3393 28.1306 27.5707C26.8966 28.8022 25.4554 29.7714 23.8069 30.4784C22.1584 31.1854 20.3892 31.5389 18.4992 31.5389ZM18.4875 30.2587C19.9027 30.2587 21.3056 30.0138 22.6961 29.5242C24.0869 29.0345 25.323 28.3187 26.4044 27.3767C25.323 26.5343 24.1119 25.8705 22.771 25.3851C21.4301 24.9 20.0023 24.6574 18.4875 24.6574C16.9726 24.6574 15.54 24.8952 14.1895 25.3707C12.8388 25.8463 11.6389 26.5149 10.5898 27.3767C11.6583 28.3187 12.888 29.0345 14.2788 29.5242C15.6693 30.0138 17.0722 30.2587 18.4875 30.2587ZM18.4901 17.2836C19.4076 17.2836 20.1735 16.9756 20.7877 16.3596C21.4019 15.7436 21.709 14.9769 21.709 14.0594C21.709 13.1418 21.401 12.376 20.7851 11.7618C20.1691 11.1476 19.4023 10.8405 18.4848 10.8405C17.5673 10.8405 16.8014 11.1485 16.1872 11.7644C15.573 12.3804 15.2659 13.1471 15.2659 14.0647C15.2659 14.9822 15.5739 15.7481 16.1899 16.3623C16.8058 16.9765 17.5726 17.2836 18.4901 17.2836Z" fill="white"/>
</g>
</svg>
