<svg width="32" height="32" viewBox="0 0 32 32" fill="none" xmlns="http://www.w3.org/2000/svg">
<mask id="mask0_3368_14867" style="mask-type:alpha" maskUnits="userSpaceOnUse" x="0" y="0" width="32" height="32">
<rect width="32" height="32" fill="#D9D9D9"/>
</mask>
<g mask="url(#mask0_3368_14867)">
<path d="M8.13167 23.523C9.35167 22.6792 10.593 22.0156 11.8557 21.532C13.1183 21.0487 14.4998 20.807 16 20.807C17.5002 20.807 18.8826 21.0487 20.147 21.532C21.4114 22.0156 22.6537 22.6792 23.8737 23.523C24.8074 22.5219 25.5406 21.3896 26.073 20.126C26.6054 18.8622 26.8717 17.4869 26.8717 16C26.8717 12.9693 25.8174 10.3997 23.709 8.291C21.6003 6.18255 19.0307 5.12833 16 5.12833C12.9693 5.12833 10.3997 6.18255 8.291 8.291C6.18256 10.3997 5.12833 12.9693 5.12833 16C5.12833 17.4869 5.39533 18.8622 5.92933 20.126C6.46356 21.3896 7.19767 22.5219 8.13167 23.523ZM15.9947 16.564C14.8787 16.564 13.9392 16.181 13.1763 15.415C12.4137 14.6488 12.0323 13.7076 12.0323 12.5913C12.0323 11.4751 12.4154 10.5357 13.1817 9.773C13.9479 9.01033 14.8891 8.629 16.0053 8.629C17.1213 8.629 18.0608 9.01211 18.8237 9.77833C19.5863 10.5446 19.9677 11.4857 19.9677 12.6017C19.9677 13.7179 19.5846 14.6573 18.8183 15.42C18.0521 16.1827 17.1109 16.564 15.9947 16.564ZM16.0103 28C14.3334 28 12.7667 27.6884 11.31 27.0653C9.85356 26.4422 8.58267 25.5868 7.49733 24.499C6.412 23.4114 5.55778 22.1423 4.93467 20.6917C4.31156 19.241 4 17.678 4 16.0027C4 14.3273 4.31156 12.7634 4.93467 11.311C5.55778 9.85856 6.41322 8.58856 7.501 7.501C8.58856 6.41322 9.85767 5.55778 11.3083 4.93467C12.759 4.31155 14.322 4 15.9973 4C17.6727 4 19.2366 4.31155 20.689 4.93467C22.1414 5.55778 23.4114 6.41322 24.499 7.501C25.5868 8.58856 26.4422 9.85878 27.0653 11.3117C27.6884 12.7646 28 14.3239 28 15.9897C28 17.6666 27.6884 19.2333 27.0653 20.69C26.4422 22.1464 25.5868 23.4173 24.499 24.5027C23.4114 25.588 22.1412 26.4422 20.6883 27.0653C19.2354 27.6884 17.6761 28 16.0103 28ZM16 26.8717C17.2473 26.8717 18.4838 26.6559 19.7093 26.2243C20.9351 25.7928 22.0246 25.1619 22.9777 24.3317C22.0246 23.5892 20.9571 23.0041 19.7753 22.5763C18.5936 22.1488 17.3351 21.935 16 21.935C14.6649 21.935 13.4022 22.1446 12.212 22.5637C11.0216 22.9828 9.964 23.5721 9.03933 24.3317C9.98111 25.1619 11.0649 25.7928 12.2907 26.2243C13.5162 26.6559 14.7527 26.8717 16 26.8717ZM16.0023 15.436C16.811 15.436 17.486 15.1646 18.0273 14.6217C18.5687 14.0788 18.8393 13.403 18.8393 12.5943C18.8393 11.7857 18.5679 11.1107 18.025 10.5693C17.4821 10.028 16.8063 9.75733 15.9977 9.75733C15.189 9.75733 14.514 10.0288 13.9727 10.5717C13.4313 11.1146 13.1607 11.7903 13.1607 12.599C13.1607 13.4077 13.4321 14.0827 13.975 14.624C14.5179 15.1653 15.1937 15.436 16.0023 15.436Z" fill="white" fill-opacity="0.3"/>
</g>
</svg>
