<svg width="40" height="40" viewBox="0 0 40 40" fill="none" xmlns="http://www.w3.org/2000/svg">
<mask id="mask0_5708_31026" style="mask-type:alpha" maskUnits="userSpaceOnUse" x="0" y="0" width="40" height="40">
<rect width="40" height="40" fill="#D9D9D9"/>
</mask>
<g mask="url(#mask0_5708_31026)">
<path d="M19.295 20.705H10.705C10.5053 20.705 10.3379 20.6368 10.2029 20.5004C10.0676 20.364 10 20.1951 10 19.9938C10 19.7921 10.0676 19.6251 10.2029 19.4929C10.3379 19.361 10.5053 19.295 10.705 19.295H19.295V10.705C19.295 10.5053 19.3632 10.3379 19.4996 10.2029C19.636 10.0676 19.8049 10 20.0063 10C20.2079 10 20.3749 10.0676 20.5071 10.2029C20.639 10.3379 20.705 10.5053 20.705 10.705V19.295H29.295C29.4947 19.295 29.6621 19.3632 29.7971 19.4996C29.9324 19.636 30 19.8049 30 20.0063C30 20.2079 29.9324 20.3749 29.7971 20.5071C29.6621 20.639 29.4947 20.705 29.295 20.705H20.705V29.295C20.705 29.4947 20.6368 29.6621 20.5004 29.7971C20.364 29.9324 20.1951 30 19.9938 30C19.7921 30 19.6251 29.9324 19.4929 29.7971C19.361 29.6621 19.295 29.4947 19.295 29.295V20.705Z" fill="#989898"/>
</g>
</svg>
