<svg width="20" height="20" viewBox="0 0 20 20" fill="none" xmlns="http://www.w3.org/2000/svg">
<path d="M9.295 10.705H0.705001C0.505278 10.705 0.337916 10.6368 0.202916 10.5004C0.0676387 10.364 0 10.1951 0 9.99375C0 9.79208 0.0676387 9.62514 0.202916 9.49292C0.337916 9.36097 0.505278 9.295 0.705001 9.295H9.295V0.704999C9.295 0.505277 9.36319 0.337916 9.49958 0.202916C9.63597 0.0676387 9.80486 0 10.0063 0C10.2079 0 10.3749 0.0676387 10.5071 0.202916C10.639 0.337916 10.705 0.505277 10.705 0.704999V9.295H19.295C19.4947 9.295 19.6621 9.36319 19.7971 9.49958C19.9324 9.63597 20 9.80486 20 10.0063C20 10.2079 19.9324 10.3749 19.7971 10.5071C19.6621 10.639 19.4947 10.705 19.295 10.705H10.705V19.295C10.705 19.4947 10.6368 19.6621 10.5004 19.7971C10.364 19.9324 10.1951 20 9.99375 20C9.79208 20 9.62514 19.9324 9.49292 19.7971C9.36097 19.6621 9.295 19.4947 9.295 19.295V10.705Z" fill="white" fill-opacity="0.3"/>
</svg>
