<svg width="40" height="40" viewBox="0 0 40 40" fill="none" xmlns="http://www.w3.org/2000/svg">
<path d="M35.5 32.7787C35.5 33.3621 35.2791 33.7277 34.8098 33.9012C34.3409 34.075 33.6772 34.0326 33.3105 33.6688L29.7963 30.2068H11.643C10.9751 30.2068 10.4034 29.9726 9.92795 29.5042C9.45222 29.0356 9.21435 28.1205 9.21435 27.4624H10.1429H30.1427C30.8314 27.4624 31.4321 27.2098 31.945 26.7045C32.4579 26.1995 32.7143 25.6078 32.7143 24.9294V12.4036H33.9999C34.3456 12.4036 34.8098 12.4036 34.8098 12.4036C35.5 12.4036 35.5 13.2234 35.5 13.8814C35.5 13.8814 35.5 32.3289 35.5 32.7787ZM4.92859 25.5098L8.58943 21.9032H25.9284C26.2618 21.9032 26.5355 21.7977 26.7497 21.5867C26.9642 21.3757 27.0715 21.106 27.0715 20.7776V8.53306C27.0715 8.20496 26.9642 7.93525 26.7497 7.72393C26.5355 7.51292 26.2618 7.40741 25.9284 7.40741H6.07164C5.73829 7.40741 5.46452 7.51292 5.25033 7.72393C5.03584 7.93525 4.92859 8.20496 4.92859 8.53306V25.5098ZM4.75866 27.1601C4.46028 27.1601 4.17599 27.0497 3.90578 26.8289C3.63526 26.6085 3.5 26.2913 3.5 25.8775V8.53306C3.5 7.85459 3.75644 7.26287 4.26931 6.75791C4.78218 6.25264 5.38296 6 6.07164 6H25.9284C26.6171 6 27.2179 6.25264 27.7307 6.75791C28.2436 7.26287 28.5001 7.85459 28.5001 8.53306V20.7776C28.5001 21.456 28.2436 22.0478 27.7307 22.5527C27.2179 23.058 26.6171 23.3106 25.9284 23.3106H9.21435L5.68954 26.7832C5.55861 26.9125 5.41391 27.0076 5.25544 27.0686C5.09728 27.1296 4.93168 27.1601 4.75866 27.1601Z" fill="#989898"/>
</svg>
