<svg width="32" height="28" viewBox="0 0 32 28" fill="none" xmlns="http://www.w3.org/2000/svg">
<path d="M32 26.7787C32 27.3621 31.7791 27.7277 31.3098 27.9012C30.8409 28.075 30.1772 28.0326 29.8105 27.6688L26.2963 24.2068H8.143C7.47505 24.2068 6.90337 23.9726 6.42795 23.5042C5.95222 23.0356 5.71435 22.1205 5.71435 21.4624H6.64291H26.6427C27.3314 21.4624 27.9321 21.2098 28.445 20.7045C28.9579 20.1995 29.2143 19.6078 29.2143 18.9294V6.40355H30.4999C30.8456 6.40355 31.3098 6.40355 31.3098 6.40355C32 6.40355 32 7.22336 32 7.8814C32 7.8814 32 26.3289 32 26.7787ZM1.42859 19.5098L5.08943 15.9032H22.4284C22.7618 15.9032 23.0355 15.7977 23.2497 15.5867C23.4642 15.3757 23.5715 15.106 23.5715 14.7776V2.53306C23.5715 2.20496 23.4642 1.93525 23.2497 1.72393C23.0355 1.51292 22.7618 1.40741 22.4284 1.40741H2.57164C2.23829 1.40741 1.96452 1.51292 1.75033 1.72393C1.53584 1.93525 1.42859 2.20496 1.42859 2.53306V19.5098ZM1.25866 21.1601C0.960285 21.1601 0.675991 21.0497 0.40578 20.8289C0.13526 20.6085 0 20.2913 0 19.8775V2.53306C0 1.85459 0.256437 1.26287 0.769311 0.757906C1.28218 0.252636 1.88296 0 2.57164 0H22.4284C23.1171 0 23.7179 0.252636 24.2307 0.757906C24.7436 1.26287 25.0001 1.85459 25.0001 2.53306V14.7776C25.0001 15.456 24.7436 16.0478 24.2307 16.5527C23.7179 17.058 23.1171 17.3106 22.4284 17.3106H5.71435L2.18954 20.7832C2.05861 20.9125 1.91391 21.0076 1.75544 21.0686C1.59728 21.1296 1.43168 21.1601 1.25866 21.1601Z" fill="white" fill-opacity="0.3"/>
</svg>
