<svg width="32" height="32" viewBox="0 0 32 32" fill="none" xmlns="http://www.w3.org/2000/svg">
<mask id="mask0_3368_16313" style="mask-type:alpha" maskUnits="userSpaceOnUse" x="0" y="0" width="32" height="32">
<rect width="32" height="32" fill="#D9D9D9"/>
</mask>
<g mask="url(#mask0_3368_16313)">
<path d="M16 28C14.34 28 12.78 27.6851 11.32 27.0553C9.86 26.4256 8.59 25.5709 7.51 24.4913C6.43 23.4118 5.575 22.1422 4.945 20.6827C4.315 19.2233 4 17.6639 4 16.0043C4 14.345 4.31489 12.7849 4.94467 11.324C5.57444 9.86333 6.42911 8.59267 7.50867 7.512C8.58822 6.43133 9.85778 5.57589 11.3173 4.94567C12.7767 4.31522 14.3361 4 15.9957 4C17.655 4 19.2151 4.315 20.676 4.945C22.1367 5.575 23.4073 6.43 24.488 7.51C25.5687 8.59 26.4241 9.86 27.0543 11.32C27.6848 12.78 28 14.34 28 16V17.258C28 18.3596 27.6179 19.2908 26.8537 20.0517C26.0894 20.8126 25.1508 21.193 24.0377 21.193C23.235 21.193 22.5028 20.9651 21.841 20.5093C21.1794 20.0536 20.7106 19.4508 20.4343 18.701C19.9368 19.4708 19.3 20.0786 18.524 20.5243C17.748 20.9701 16.9067 21.193 16 21.193C14.5602 21.193 13.3339 20.6889 12.321 19.6807C11.3081 18.6724 10.8017 17.4426 10.8017 15.991C10.8017 14.5397 11.3081 13.3111 12.321 12.3053C13.3339 11.2996 14.5602 10.7967 16 10.7967C17.4398 10.7967 18.6661 11.2996 19.679 12.3053C20.6919 13.3111 21.1983 14.5433 21.1983 16.002V17.258C21.1983 18.0353 21.4778 18.6974 22.0367 19.2443C22.5958 19.7914 23.2619 20.065 24.035 20.065C24.8083 20.065 25.4744 19.7914 26.0333 19.2443C26.5922 18.6974 26.8717 18.0353 26.8717 17.258V16C26.8717 12.9649 25.8187 10.3941 23.7127 8.28767C21.6067 6.18144 19.0363 5.12833 16.0017 5.12833C12.967 5.12833 10.3961 6.18133 8.289 8.28733C6.18189 10.3933 5.12833 12.9637 5.12833 15.9983C5.12833 19.033 6.18144 21.6039 8.28767 23.711C10.3941 25.8181 12.9649 26.8717 16 26.8717H22.2427C22.4024 26.8717 22.5364 26.9262 22.6447 27.0353C22.7529 27.1444 22.807 27.2797 22.807 27.441C22.807 27.6023 22.7529 27.7358 22.6447 27.8413C22.5364 27.9471 22.4024 28 22.2427 28H16ZM16.0023 20.065C17.1334 20.065 18.0942 19.6698 18.8847 18.8793C19.6749 18.0889 20.07 17.1291 20.07 16C20.07 14.8582 19.6741 13.8936 18.8823 13.106C18.0906 12.3184 17.129 11.9247 15.9977 11.9247C14.8666 11.9247 13.9058 12.319 13.1153 13.1077C12.3251 13.8963 11.93 14.8624 11.93 16.006C11.93 17.1273 12.3259 18.0841 13.1177 18.8763C13.9094 19.6688 14.871 20.065 16.0023 20.065Z" fill="white" fill-opacity="0.3"/>
</g>
</svg>
