<svg width="36" height="36" viewBox="0 0 36 36" fill="none" xmlns="http://www.w3.org/2000/svg">
<g clip-path="url(#clip0_5905_27813)">
<mask id="mask0_5905_27813" style="mask-type:alpha" maskUnits="userSpaceOnUse" x="0" y="0" width="36" height="36">
<rect width="36" height="36" fill="white"/>
</mask>
<g mask="url(#mask0_5905_27813)">
<path d="M27.6054 9.57433L8.11671 29.0261C7.96124 29.1812 7.77224 29.2526 7.54972 29.2403C7.3272 29.2277 7.1382 29.1438 6.98272 28.9886C6.82757 28.8332 6.75 28.6554 6.75 28.4552C6.75 28.255 6.82757 28.0673 6.98272 27.8921L26.4345 8.40341H8.6944C8.46151 8.40341 8.26619 8.32389 8.10845 8.16486C7.95104 8.00582 7.87233 7.80873 7.87233 7.57357C7.87233 7.33842 7.95104 7.14391 8.10845 6.99006C8.26619 6.83588 8.46151 6.75879 8.6944 6.75879H27.8298C28.2321 6.75879 28.5695 6.89483 28.8419 7.16691C29.114 7.43931 29.25 7.77666 29.25 8.17895V27.3144C29.25 27.5473 29.1705 27.7424 29.0114 27.8998C28.8524 28.0576 28.6553 28.1365 28.4202 28.1365C28.1853 28.1365 27.9908 28.0576 27.8366 27.8998C27.6825 27.7424 27.6054 27.5473 27.6054 27.3144V9.57433Z" fill="white"/>
</g>
</g>
<defs>
<clipPath id="clip0_5905_27813">
<rect width="36" height="36" fill="white"/>
</clipPath>
</defs>
</svg>
