<svg width="16" height="16" viewBox="0 0 16 16" fill="none" xmlns="http://www.w3.org/2000/svg">
<mask id="mask0_2473_7890" style="mask-type:alpha" maskUnits="userSpaceOnUse" x="0" y="0" width="16" height="16">
<rect width="16" height="16" fill="#D9D9D9"/>
</mask>
<g mask="url(#mask0_2473_7890)">
<path d="M12.2691 4.2523L3.60743 12.9041C3.53833 12.9731 3.45433 13.0049 3.35543 12.9994C3.25653 12.9938 3.17253 12.9565 3.10343 12.8875C3.03448 12.8183 3 12.7392 3 12.6502C3 12.5611 3.03448 12.4777 3.10343 12.3997L11.7487 3.7315H3.86418C3.76067 3.7315 3.67386 3.69613 3.60376 3.62539C3.53379 3.55466 3.49881 3.46699 3.49881 3.3624C3.49881 3.25781 3.53379 3.1713 3.60376 3.10286C3.67386 3.03429 3.76067 3 3.86418 3H12.3688C12.5476 3 12.6975 3.06051 12.8186 3.18152C12.9395 3.30269 13 3.45273 13 3.63166V12.1428C13 12.2464 12.9647 12.3332 12.894 12.4032C12.8233 12.4733 12.7357 12.5084 12.6312 12.5084C12.5268 12.5084 12.4404 12.4733 12.3718 12.4032C12.3033 12.3332 12.2691 12.2464 12.2691 12.1428V4.2523Z" fill="white" fill-opacity="0.5"/>
</g>
</svg>
