<svg width="16" height="16" viewBox="0 0 16 16" fill="none" xmlns="http://www.w3.org/2000/svg">
<mask id="mask0_2473_7709" style="mask-type:alpha" maskUnits="userSpaceOnUse" x="0" y="0" width="16" height="16">
<rect width="16" height="16" fill="#D9D9D9"/>
</mask>
<g mask="url(#mask0_2473_7709)">
<path d="M3.73094 11.7477L12.3926 3.0959C12.4617 3.0269 12.5457 2.99513 12.6446 3.0006C12.7435 3.00622 12.8275 3.04354 12.8966 3.11254C12.9655 3.1817 13 3.26079 13 3.34982C13 3.43886 12.9655 3.52234 12.8966 3.60028L4.25135 12.2685H12.1358C12.2393 12.2685 12.3261 12.3039 12.3962 12.3746C12.4662 12.4453 12.5012 12.533 12.5012 12.6376C12.5012 12.7422 12.4662 12.8287 12.3962 12.8971C12.3261 12.9657 12.2393 13 12.1358 13H3.63118C3.45239 13 3.30245 12.9395 3.18139 12.8185C3.06046 12.6973 3 12.5473 3 12.3683V3.85723C3 3.75364 3.03534 3.66684 3.10602 3.59682C3.17671 3.52666 3.26431 3.49158 3.36882 3.49158C3.47319 3.49158 3.55964 3.52666 3.62816 3.59682C3.69668 3.66684 3.73094 3.75364 3.73094 3.85723V11.7477Z" fill="white" fill-opacity="0.5"/>
</g>
</svg>
