<svg width="20" height="20" viewBox="0 0 20 20" fill="none" xmlns="http://www.w3.org/2000/svg">
<mask id="mask0_2473_13448" style="mask-type:alpha" maskUnits="userSpaceOnUse" x="0" y="0" width="20" height="20">
<rect width="20" height="20" fill="#D9D9D9"/>
</mask>
<g mask="url(#mask0_2473_13448)">
<path d="M1.38586 10.0015L9.79204 18.7262C9.92942 18.8687 9.99775 19.044 9.99704 19.252C9.99633 19.4598 9.92728 19.6364 9.78991 19.782C9.65894 19.9273 9.49104 20 9.28623 20C9.08141 20 8.90889 19.9273 8.76867 19.782L0.440688 11.1261C0.285695 10.965 0.173499 10.7871 0.1041 10.5925C0.0346997 10.3978 0 10.2008 0 10.0015C0 9.80226 0.0346997 9.60529 0.1041 9.41062C0.173499 9.21595 0.285695 9.03338 0.440688 8.86291L8.78655 0.214758C8.91752 0.0694028 9.08283 -0.00216641 9.28249 4.993e-05C9.48215 0.00208157 9.652 0.0757743 9.79204 0.221129C9.92942 0.366669 9.99873 0.542684 9.99998 0.749173C10.0014 0.955477 9.93209 1.1314 9.79204 1.27694L1.38586 10.0015Z" fill="white" fill-opacity="0.3"/>
</g>
</svg>
