<svg width="16" height="16" viewBox="0 0 16 16" fill="none" xmlns="http://www.w3.org/2000/svg">
<mask id="mask0_3368_14894" style="mask-type:alpha" maskUnits="userSpaceOnUse" x="0" y="0" width="16" height="16">
<rect width="16" height="16" fill="#D9D9D9"/>
</mask>
<g mask="url(#mask0_3368_14894)">
<path d="M14.8913 8.00124L8.16636 14.9809C8.05646 15.095 8.0018 15.2352 8.00237 15.4016C8.00294 15.5678 8.05817 15.7091 8.16807 15.8256C8.27285 15.9419 8.40716 16 8.57102 16C8.73487 16 8.87289 15.9419 8.98507 15.8256L15.6474 8.90085C15.7714 8.77201 15.8612 8.62972 15.9167 8.47398C15.9722 8.31825 16 8.16067 16 8.00124C16 7.84181 15.9722 7.68423 15.9167 7.5285C15.8612 7.37276 15.7714 7.2267 15.6474 7.09033L8.97076 0.171806C8.86598 0.0555223 8.73373 -0.00173313 8.57401 3.9944e-05C8.41428 0.00166526 8.2784 0.0606194 8.16636 0.176903C8.05646 0.293335 8.00101 0.434147 8.00002 0.599338C7.99888 0.764382 8.05433 0.905119 8.16636 1.02155L14.8913 8.00124Z" fill="white" fill-opacity="0.3"/>
</g>
</svg>
