<svg width="32" height="32" viewBox="0 0 32 32" fill="none" xmlns="http://www.w3.org/2000/svg">
<mask id="mask0_1324_2319" style="mask-type:alpha" maskUnits="userSpaceOnUse" x="0" y="0" width="32" height="32">
<rect width="32" height="32" fill="#D9D9D9"/>
</mask>
<g mask="url(#mask0_1324_2319)">
<path d="M23.2038 20.7557C23.2038 22.7746 22.511 24.4867 21.1252 25.892C19.7392 27.2973 18.0442 28 16.0402 28C14.0408 28 12.3433 27.2973 10.9475 25.892C9.55152 24.4867 8.85352 22.7746 8.85352 20.7557V9.012C8.85352 7.61978 9.33396 6.43633 10.2948 5.46167C11.256 4.48722 12.4294 4 13.8152 4C15.2012 4 16.3788 4.48722 17.3482 5.46167C18.3175 6.43633 18.8022 7.61978 18.8022 9.012V20.1403C18.8022 20.9094 18.5382 21.5678 18.0102 22.1153C17.482 22.6629 16.8284 22.9367 16.0495 22.9367C15.2922 22.9367 14.6372 22.6641 14.0845 22.119C13.5316 21.5737 13.2552 20.9141 13.2552 20.1403V9.62733C13.2552 9.46756 13.3097 9.33356 13.4188 9.22533C13.528 9.11733 13.6632 9.06333 13.8245 9.06333C13.9856 9.06333 14.1191 9.11733 14.2248 9.22533C14.3306 9.33356 14.3835 9.46756 14.3835 9.62733V20.1403C14.3835 20.6023 14.5443 20.9959 14.8658 21.321C15.1876 21.6461 15.5772 21.8087 16.0345 21.8087C16.4967 21.8087 16.8855 21.6461 17.2008 21.321C17.5164 20.9959 17.6742 20.6023 17.6742 20.1403V8.98633C17.6724 7.91856 17.3008 7.00856 16.5595 6.25633C15.8182 5.50433 14.9057 5.12833 13.8222 5.12833C12.7468 5.12833 11.838 5.50678 11.0955 6.26367C10.3531 7.02078 9.98185 7.93689 9.98185 9.012V20.7557C9.98007 22.4599 10.5685 23.9053 11.7472 25.092C12.9261 26.2784 14.3611 26.8717 16.0522 26.8717C17.734 26.8717 19.1603 26.2756 20.3312 25.0833C21.5023 23.8911 22.0838 22.4486 22.0758 20.7557V9.62733C22.0758 9.46756 22.1304 9.33356 22.2395 9.22533C22.3486 9.11733 22.4837 9.06333 22.6448 9.06333C22.8062 9.06333 22.9397 9.11733 23.0455 9.22533C23.1511 9.33356 23.2038 9.46756 23.2038 9.62733V20.7557Z" fill="white" fill-opacity="0.3"/>
</g>
</svg>
