<svg width="28" height="28" viewBox="0 0 28 28" fill="none" xmlns="http://www.w3.org/2000/svg">
<mask id="mask0_1811_5468" style="mask-type:alpha" maskUnits="userSpaceOnUse" x="0" y="0" width="28" height="28">
<rect width="28" height="28" fill="#D9D9D9"/>
</mask>
<g mask="url(#mask0_1811_5468)">
<path d="M21 18.6612C21 20.4277 20.3723 21.9258 19.1169 23.1555C17.8614 24.3852 16.3258 25 14.5104 25C12.6992 25 11.1614 24.3852 9.89696 23.1555C8.63232 21.9258 8 20.4277 8 18.6612V8.3855C8 7.1673 8.43524 6.13179 9.30571 5.27896C10.1764 4.42632 11.2394 4 12.4948 4C13.7504 4 14.8172 4.42632 15.6953 5.27896C16.5735 6.13179 17.0125 7.1673 17.0125 8.3855V18.1228C17.0125 18.7958 16.7734 19.3718 16.295 19.8509C15.8165 20.33 15.2245 20.5696 14.5189 20.5696C13.8328 20.5696 13.2394 20.3311 12.7388 19.8541C12.2379 19.377 11.9875 18.7998 11.9875 18.1228V8.92392C11.9875 8.78411 12.0369 8.66686 12.1357 8.57217C12.2346 8.47767 12.3571 8.43042 12.5032 8.43042C12.6492 8.43042 12.7701 8.47767 12.8659 8.57217C12.9617 8.66686 13.0096 8.78411 13.0096 8.92392V18.1228C13.0096 18.527 13.1553 18.8714 13.4466 19.1559C13.7381 19.4403 14.091 19.5826 14.5053 19.5826C14.924 19.5826 15.2762 19.4403 15.5619 19.1559C15.8477 18.8714 15.9907 18.527 15.9907 18.1228V8.36304C15.9891 7.42874 15.6525 6.63249 14.9809 5.97429C14.3093 5.31629 13.4827 4.98729 12.5011 4.98729C11.527 4.98729 10.7036 5.31843 10.031 5.98071C9.35845 6.64318 9.02216 7.44478 9.02216 8.3855V18.6612C9.02055 20.1524 9.55362 21.4172 10.6214 22.4555C11.6893 23.4936 12.9893 24.0127 14.5213 24.0127C16.0448 24.0127 17.3369 23.4911 18.3976 22.4479C19.4586 21.4047 19.9854 20.1425 19.9781 18.6612V8.92392C19.9781 8.78411 20.0276 8.66686 20.1264 8.57217C20.2253 8.47767 20.3477 8.43042 20.4936 8.43042C20.6398 8.43042 20.7607 8.47767 20.8566 8.57217C20.9522 8.66686 21 8.78411 21 8.92392V18.6612Z" fill="white" fill-opacity="0.3"/>
</g>
</svg>
