<svg width="15" height="18" viewBox="0 0 15 18" fill="none" xmlns="http://www.w3.org/2000/svg">
<path d="M7.5 15.7708L2.56406 17.8446C1.94448 18.0935 1.36219 18.0434 0.817187 17.6941C0.272396 17.3447 0 16.8494 0 16.2083V1.77768C0 1.28758 0.176458 0.868825 0.529375 0.521416C0.882292 0.173805 1.31479 0 1.82687 0H13.1731C13.6852 0 14.1177 0.173805 14.4706 0.521416C14.8235 0.868825 15 1.28758 15 1.77768V16.2083C15 16.8494 14.7276 17.3447 14.1828 17.6941C13.6378 18.0434 13.0555 18.0935 12.4359 17.8446L7.5 15.7708ZM7.5 14.6264L12.8606 16.8608C13.1171 16.9698 13.3615 16.9491 13.5938 16.7985C13.826 16.6477 13.9422 16.4345 13.9422 16.1591V1.77768C13.9422 1.5906 13.8621 1.41902 13.7019 1.26295C13.5417 1.10709 13.3654 1.02915 13.1731 1.02915H1.82687C1.63458 1.02915 1.45833 1.10709 1.29813 1.26295C1.13792 1.41902 1.05781 1.5906 1.05781 1.77768V16.1591C1.05781 16.4345 1.17396 16.6477 1.40625 16.7985C1.63854 16.9491 1.88292 16.9698 2.13937 16.8608L7.5 14.6264Z" fill="white" fill-opacity="0.3"/>
</svg>
