<svg width="32" height="32" viewBox="0 0 32 32" fill="none" xmlns="http://www.w3.org/2000/svg">
<mask id="mask0_4990_24611" style="mask-type:alpha" maskUnits="userSpaceOnUse" x="0" y="0" width="32" height="32">
<rect width="32" height="32" fill="white"/>
</mask>
<g mask="url(#mask0_4990_24611)">
<path d="M13.192 15.187H18.8093C19.0247 15.187 19.1745 15.0821 19.259 14.8723C19.3432 14.6628 19.3107 14.4833 19.1613 14.334L16.6843 11.857C16.4885 11.6632 16.2601 11.5663 15.999 11.5663C15.7381 11.5663 15.5108 11.6632 15.317 11.857L12.84 14.334C12.6907 14.4833 12.6581 14.6628 12.7423 14.8723C12.8268 15.0821 12.9767 15.187 13.192 15.187ZM7.28265 26.6673C6.75132 26.6673 6.29376 26.4753 5.90998 26.0913C5.52598 25.7075 5.33398 25.25 5.33398 24.7187V7.28265C5.33398 6.75132 5.52598 6.29376 5.90998 5.90999C6.29376 5.52599 6.75132 5.33398 7.28265 5.33398H24.7187C25.25 5.33398 25.7075 5.52599 26.0913 5.90999C26.4753 6.29376 26.6673 6.75132 26.6673 7.28265V24.7187C26.6673 25.25 26.4753 25.7075 26.0913 26.0913C25.7075 26.4753 25.25 26.6673 24.7187 26.6673H7.28265ZM6.46232 21.264V24.7187C6.46232 24.9238 6.54776 25.1118 6.71865 25.2827C6.88954 25.4535 7.07754 25.539 7.28265 25.539H24.7187C24.9238 25.539 25.1118 25.4535 25.2827 25.2827C25.4535 25.1118 25.539 24.9238 25.539 24.7187V21.264H6.46232ZM6.46232 20.1357H25.539V7.28265C25.539 7.07754 25.4535 6.88954 25.2827 6.71865C25.1118 6.54776 24.9238 6.46232 24.7187 6.46232H7.28265C7.07754 6.46232 6.88954 6.54776 6.71865 6.71865C6.54776 6.88954 6.46232 7.07754 6.46232 7.28265V20.1357Z" fill="white" fill-opacity="0.3"/>
</g>
</svg>
