<svg width="32" height="32" viewBox="0 0 32 32" fill="none" xmlns="http://www.w3.org/2000/svg">
<mask id="mask0_2481_6528" style="mask-type:alpha" maskUnits="userSpaceOnUse" x="0" y="0" width="32" height="32">
<rect width="32" height="32" fill="#D9D9D9"/>
</mask>
<g mask="url(#mask0_2481_6528)">
<path d="M5.94867 26.6663C5.40244 26.6663 4.94111 26.4781 4.56467 26.1017C4.18822 25.7252 4 25.2639 4 24.7177V11.2817C4 10.7355 4.18822 10.2741 4.56467 9.89767C4.94111 9.52123 5.40244 9.33301 5.94867 9.33301H12V7.28168C12 6.73545 12.1882 6.27412 12.5647 5.89767C12.9411 5.52123 13.4024 5.33301 13.9487 5.33301H18.0513C18.5976 5.33301 19.0589 5.52123 19.4353 5.89767C19.8118 6.27412 20 6.73545 20 7.28168V9.33301H26.0513C26.5976 9.33301 27.0589 9.52123 27.4353 9.89767C27.8118 10.2741 28 10.7355 28 11.2817V24.7177C28 25.2639 27.8118 25.7252 27.4353 26.1017C27.0589 26.4781 26.5976 26.6663 26.0513 26.6663H5.94867ZM13.1283 9.33301H18.8717V7.28168C18.8717 7.07656 18.7862 6.88856 18.6153 6.71767C18.4444 6.54678 18.2564 6.46134 18.0513 6.46134H13.9487C13.7436 6.46134 13.5556 6.54678 13.3847 6.71767C13.2138 6.88856 13.1283 7.07656 13.1283 7.28168V9.33301ZM26.8717 19.2253H18.364V20.0497C18.364 20.3201 18.2717 20.5495 18.087 20.7377C17.9021 20.9261 17.6693 21.0203 17.3887 21.0203H14.6153C14.3458 21.0203 14.1169 20.9252 13.9287 20.735C13.7402 20.5448 13.646 20.315 13.646 20.0457V19.2253H5.12833V24.7177C5.12833 24.9228 5.21378 25.1108 5.38467 25.2817C5.55556 25.4526 5.74356 25.538 5.94867 25.538H26.0513C26.2564 25.538 26.4444 25.4526 26.6153 25.2817C26.7862 25.1108 26.8717 24.9228 26.8717 24.7177V19.2253ZM14.7743 19.892H17.236V17.4303H14.7743V19.892ZM5.12833 18.097H13.646V17.2723C13.646 16.9908 13.7412 16.7587 13.9317 16.576C14.1221 16.3936 14.3521 16.3023 14.6217 16.3023H17.395C17.6754 16.3023 17.9071 16.3946 18.09 16.579C18.2727 16.7637 18.364 16.9962 18.364 17.2767V18.097H26.8717V11.2817C26.8717 11.0766 26.7862 10.8886 26.6153 10.7177C26.4444 10.5468 26.2564 10.4613 26.0513 10.4613H5.94867C5.74356 10.4613 5.55556 10.5468 5.38467 10.7177C5.21378 10.8886 5.12833 11.0766 5.12833 11.2817V18.097Z" fill="#707070"/>
</g>
</svg>
