<svg width="32" height="32" viewBox="0 0 32 32" fill="none" xmlns="http://www.w3.org/2000/svg">
<mask id="mask0_3368_16327" style="mask-type:alpha" maskUnits="userSpaceOnUse" x="0" y="0" width="32" height="32">
<rect width="32" height="32" fill="#D9D9D9"/>
</mask>
<g mask="url(#mask0_3368_16327)">
<path d="M5.94867 26.6666C5.40244 26.6666 4.94111 26.4784 4.56467 26.1019C4.18822 25.7255 4 25.2641 4 24.7179V11.2819C4 10.7357 4.18822 10.2744 4.56467 9.89792C4.94111 9.52147 5.40244 9.33325 5.94867 9.33325H12V7.28192C12 6.7357 12.1882 6.27436 12.5647 5.89792C12.9411 5.52147 13.4024 5.33325 13.9487 5.33325H18.0513C18.5976 5.33325 19.0589 5.52147 19.4353 5.89792C19.8118 6.27436 20 6.7357 20 7.28192V9.33325H26.0513C26.5976 9.33325 27.0589 9.52147 27.4353 9.89792C27.8118 10.2744 28 10.7357 28 11.2819V24.7179C28 25.2641 27.8118 25.7255 27.4353 26.1019C27.0589 26.4784 26.5976 26.6666 26.0513 26.6666H5.94867ZM13.1283 9.33325H18.8717V7.28192C18.8717 7.07681 18.7862 6.88881 18.6153 6.71792C18.4444 6.54703 18.2564 6.46158 18.0513 6.46158H13.9487C13.7436 6.46158 13.5556 6.54703 13.3847 6.71792C13.2138 6.88881 13.1283 7.07681 13.1283 7.28192V9.33325ZM26.8717 19.2256H18.364V20.0499C18.364 20.3204 18.2717 20.5497 18.087 20.7379C17.9021 20.9264 17.6693 21.0206 17.3887 21.0206H14.6153C14.3458 21.0206 14.1169 20.9255 13.9287 20.7353C13.7402 20.545 13.646 20.3153 13.646 20.0459V19.2256H5.12833V24.7179C5.12833 24.923 5.21378 25.111 5.38467 25.2819C5.55556 25.4528 5.74356 25.5383 5.94867 25.5383H26.0513C26.2564 25.5383 26.4444 25.4528 26.6153 25.2819C26.7862 25.111 26.8717 24.923 26.8717 24.7179V19.2256ZM14.7743 19.8923H17.236V17.4306H14.7743V19.8923ZM5.12833 18.0973H13.646V17.2726C13.646 16.991 13.7412 16.7589 13.9317 16.5763C14.1221 16.3938 14.3521 16.3026 14.6217 16.3026H17.395C17.6754 16.3026 17.9071 16.3948 18.09 16.5793C18.2727 16.7639 18.364 16.9965 18.364 17.2769V18.0973H26.8717V11.2819C26.8717 11.0768 26.7862 10.8888 26.6153 10.7179C26.4444 10.547 26.2564 10.4616 26.0513 10.4616H5.94867C5.74356 10.4616 5.55556 10.547 5.38467 10.7179C5.21378 10.8888 5.12833 11.0768 5.12833 11.2819V18.0973Z" fill="white" fill-opacity="0.3"/>
</g>
</svg>
