<svg width="36" height="36" viewBox="0 0 36 36" fill="none" xmlns="http://www.w3.org/2000/svg">
<mask id="mask0_1811_5451" style="mask-type:alpha" maskUnits="userSpaceOnUse" x="0" y="0" width="36" height="36">
<rect width="36" height="36" fill="#D9D9D9"/>
</mask>
<g mask="url(#mask0_1811_5451)">
<path d="M8.19225 31C7.57775 31 7.05875 30.7909 6.63525 30.3728C6.21175 29.9547 6 29.4422 6 28.8355V9.24057C6 8.63385 6.21175 8.12141 6.63525 7.70327C7.05875 7.28514 7.57775 7.07607 8.19225 7.07607H11.1442V4.71385C11.1442 4.51465 11.2106 4.34594 11.3434 4.20771C11.4759 4.06924 11.6435 4 11.8463 4C12.0563 4 12.2305 4.06924 12.369 4.20771C12.5075 4.34594 12.5768 4.51465 12.5768 4.71385V7.07607H23.5384V4.66238C23.5384 4.4659 23.6012 4.30645 23.727 4.18401C23.8525 4.06134 24.009 4 24.1965 4C24.391 4 24.5527 4.06269 24.6817 4.18809C24.8105 4.31348 24.8749 4.46973 24.8749 4.65683V7.07607H27.8077C28.4222 7.07607 28.9412 7.28514 29.3647 7.70327C29.7882 8.12141 30 8.63385 30 9.24057V28.8355C30 29.4422 29.7882 29.9547 29.3647 30.3728C28.9412 30.7909 28.4222 31 27.8077 31H8.19225ZM8.19225 29.7467H27.8077C28.0385 29.7467 28.25 29.6518 28.4423 29.462C28.6345 29.2722 28.7306 29.0633 28.7306 28.8355V15.5064H7.26938V28.8355C7.26938 29.0633 7.3655 29.2722 7.55775 29.462C7.75 29.6518 7.9615 29.7467 8.19225 29.7467ZM7.26938 14.2531H28.7306V9.24057C28.7306 9.01274 28.6345 8.80379 28.4423 8.61373C28.25 8.42391 28.0385 8.329 27.8077 8.329H8.19225C7.9615 8.329 7.75 8.42391 7.55775 8.61373C7.3655 8.80379 7.26938 9.01274 7.26938 9.24057V14.2531ZM18 20.8606C17.6905 20.8606 17.4208 20.7472 17.1908 20.5203C16.961 20.2935 16.8461 20.0272 16.8461 19.7213C16.8461 19.4158 16.961 19.1495 17.1908 18.9227C17.4208 18.6959 17.6905 18.5824 18 18.5824C18.3095 18.5824 18.5792 18.6959 18.8092 18.9227C19.039 19.1495 19.1539 19.4158 19.1539 19.7213C19.1539 20.0272 19.039 20.2935 18.8092 20.5203C18.5792 20.7472 18.3095 20.8606 18 20.8606ZM12 20.8606C11.6905 20.8606 11.4208 20.7472 11.1908 20.5203C10.961 20.2935 10.8461 20.0272 10.8461 19.7213C10.8461 19.4158 10.961 19.1495 11.1908 18.9227C11.4208 18.6959 11.6905 18.5824 12 18.5824C12.3095 18.5824 12.5792 18.6959 12.8092 18.9227C13.039 19.1495 13.1539 19.4158 13.1539 19.7213C13.1539 20.0272 13.039 20.2935 12.8092 20.5203C12.5792 20.7472 12.3095 20.8606 12 20.8606ZM24 20.8606C23.6905 20.8606 23.4207 20.7472 23.1908 20.5203C22.961 20.2935 22.8461 20.0272 22.8461 19.7213C22.8461 19.4158 22.961 19.1495 23.1908 18.9227C23.4207 18.6959 23.6905 18.5824 24 18.5824C24.3095 18.5824 24.5793 18.6959 24.8092 18.9227C25.039 19.1495 25.1539 19.4158 25.1539 19.7213C25.1539 20.0272 25.039 20.2935 24.8092 20.5203C24.5793 20.7472 24.3095 20.8606 24 20.8606ZM18 26.557C17.6905 26.557 17.4208 26.4435 17.1908 26.2167C16.961 25.9899 16.8461 25.7235 16.8461 25.4177C16.8461 25.1121 16.961 24.8458 17.1908 24.6187C17.4208 24.3918 17.6905 24.2784 18 24.2784C18.3095 24.2784 18.5792 24.3918 18.8092 24.6187C19.039 24.8458 19.1539 25.1121 19.1539 25.4177C19.1539 25.7235 19.039 25.9899 18.8092 26.2167C18.5792 26.4435 18.3095 26.557 18 26.557ZM12 26.557C11.6905 26.557 11.4208 26.4435 11.1908 26.2167C10.961 25.9899 10.8461 25.7235 10.8461 25.4177C10.8461 25.1121 10.961 24.8458 11.1908 24.6187C11.4208 24.3918 11.6905 24.2784 12 24.2784C12.3095 24.2784 12.5792 24.3918 12.8092 24.6187C13.039 24.8458 13.1539 25.1121 13.1539 25.4177C13.1539 25.7235 13.039 25.9899 12.8092 26.2167C12.5792 26.4435 12.3095 26.557 12 26.557ZM24 26.557C23.6905 26.557 23.4207 26.4435 23.1908 26.2167C22.961 25.9899 22.8461 25.7235 22.8461 25.4177C22.8461 25.1121 22.961 24.8458 23.1908 24.6187C23.4207 24.3918 23.6905 24.2784 24 24.2784C24.3095 24.2784 24.5793 24.3918 24.8092 24.6187C25.039 24.8458 25.1539 25.1121 25.1539 25.4177C25.1539 25.7235 25.039 25.9899 24.8092 26.2167C24.5793 26.4435 24.3095 26.557 24 26.557Z" fill="white"/>
</g>
</svg>
