<svg width="27" height="31" viewBox="0 0 27 31" fill="none" xmlns="http://www.w3.org/2000/svg">
<path d="M2.43583 30.3846C1.75306 30.3846 1.17639 30.1493 0.705833 29.6787C0.235278 29.2082 0 28.6315 0 27.9487V5.8975C0 5.21472 0.235278 4.63805 0.705833 4.1675C1.17639 3.69694 1.75306 3.46166 2.43583 3.46166H5.71583V0.803332C5.71583 0.579165 5.78958 0.389305 5.93708 0.233749C6.08431 0.0779161 6.27056 0 6.49583 0C6.72917 0 6.92278 0.0779161 7.07667 0.233749C7.23056 0.389305 7.3075 0.579165 7.3075 0.803332V3.46166H19.4871V0.745415C19.4871 0.524304 19.5569 0.34486 19.6967 0.207082C19.8361 0.0690266 20.01 0 20.2183 0C20.4344 0 20.6142 0.0705537 20.7575 0.211665C20.9006 0.352776 20.9721 0.528611 20.9721 0.739166V3.46166H24.2308C24.9136 3.46166 25.4903 3.69694 25.9608 4.1675C26.4314 4.63805 26.6667 5.21472 26.6667 5.8975V27.9487C26.6667 28.6315 26.4314 29.2082 25.9608 29.6787C25.4903 30.1493 24.9136 30.3846 24.2308 30.3846H2.43583ZM2.43583 28.9742H24.2308C24.4872 28.9742 24.7222 28.8674 24.9358 28.6538C25.1494 28.4401 25.2563 28.2051 25.2563 27.9487V12.9487H1.41042V27.9487C1.41042 28.2051 1.51722 28.4401 1.73083 28.6538C1.94444 28.8674 2.17944 28.9742 2.43583 28.9742ZM1.41042 11.5383H25.2563V5.8975C25.2563 5.64111 25.1494 5.40597 24.9358 5.19208C24.7222 4.97847 24.4872 4.87167 24.2308 4.87167H2.43583C2.17944 4.87167 1.94444 4.97847 1.73083 5.19208C1.51722 5.40597 1.41042 5.64111 1.41042 5.8975V11.5383ZM13.3333 18.9742C12.9894 18.9742 12.6897 18.8465 12.4342 18.5912C12.1789 18.336 12.0513 18.0362 12.0513 17.6921C12.0513 17.3482 12.1789 17.0486 12.4342 16.7933C12.6897 16.5381 12.9894 16.4104 13.3333 16.4104C13.6772 16.4104 13.9769 16.5381 14.2325 16.7933C14.4878 17.0486 14.6154 17.3482 14.6154 17.6921C14.6154 18.0362 14.4878 18.336 14.2325 18.5912C13.9769 18.8465 13.6772 18.9742 13.3333 18.9742ZM6.66667 18.9742C6.32278 18.9742 6.02306 18.8465 5.7675 18.5912C5.51222 18.336 5.38458 18.0362 5.38458 17.6921C5.38458 17.3482 5.51222 17.0486 5.7675 16.7933C6.02306 16.5381 6.32278 16.4104 6.66667 16.4104C7.01056 16.4104 7.31028 16.5381 7.56583 16.7933C7.82111 17.0486 7.94875 17.3482 7.94875 17.6921C7.94875 18.0362 7.82111 18.336 7.56583 18.5912C7.31028 18.8465 7.01056 18.9742 6.66667 18.9742ZM20 18.9742C19.6561 18.9742 19.3564 18.8465 19.1008 18.5912C18.8456 18.336 18.7179 18.0362 18.7179 17.6921C18.7179 17.3482 18.8456 17.0486 19.1008 16.7933C19.3564 16.5381 19.6561 16.4104 20 16.4104C20.3439 16.4104 20.6436 16.5381 20.8992 16.7933C21.1544 17.0486 21.2821 17.3482 21.2821 17.6921C21.2821 18.0362 21.1544 18.336 20.8992 18.5912C20.6436 18.8465 20.3439 18.9742 20 18.9742ZM13.3333 25.3846C12.9894 25.3846 12.6897 25.2569 12.4342 25.0017C12.1789 24.7464 12.0513 24.4467 12.0513 24.1025C12.0513 23.7586 12.1789 23.4589 12.4342 23.2033C12.6897 22.9481 12.9894 22.8204 13.3333 22.8204C13.6772 22.8204 13.9769 22.9481 14.2325 23.2033C14.4878 23.4589 14.6154 23.7586 14.6154 24.1025C14.6154 24.4467 14.4878 24.7464 14.2325 25.0017C13.9769 25.2569 13.6772 25.3846 13.3333 25.3846ZM6.66667 25.3846C6.32278 25.3846 6.02306 25.2569 5.7675 25.0017C5.51222 24.7464 5.38458 24.4467 5.38458 24.1025C5.38458 23.7586 5.51222 23.4589 5.7675 23.2033C6.02306 22.9481 6.32278 22.8204 6.66667 22.8204C7.01056 22.8204 7.31028 22.9481 7.56583 23.2033C7.82111 23.4589 7.94875 23.7586 7.94875 24.1025C7.94875 24.4467 7.82111 24.7464 7.56583 25.0017C7.31028 25.2569 7.01056 25.3846 6.66667 25.3846ZM20 25.3846C19.6561 25.3846 19.3564 25.2569 19.1008 25.0017C18.8456 24.7464 18.7179 24.4467 18.7179 24.1025C18.7179 23.7586 18.8456 23.4589 19.1008 23.2033C19.3564 22.9481 19.6561 22.8204 20 22.8204C20.3439 22.8204 20.6436 22.9481 20.8992 23.2033C21.1544 23.4589 21.2821 23.7586 21.2821 24.1025C21.2821 24.4467 21.1544 24.7464 20.8992 25.0017C20.6436 25.2569 20.3439 25.3846 20 25.3846Z" fill="white" fill-opacity="0.3"/>
</svg>
