<svg width="40" height="40" viewBox="0 0 40 40" fill="none" xmlns="http://www.w3.org/2000/svg">
<mask id="mask0_5785_4253" style="mask-type:alpha" maskUnits="userSpaceOnUse" x="0" y="0" width="40" height="40">
<rect width="40" height="40" fill="white"/>
</mask>
<g mask="url(#mask0_5785_4253)">
<path d="M9.10258 34.9998C8.4198 34.9998 7.84314 34.7645 7.37258 34.294C6.90203 33.8234 6.66675 33.2468 6.66675 32.564V10.5127C6.66675 9.82996 6.90203 9.25329 7.37258 8.78273C7.84314 8.31218 8.4198 8.0769 9.10258 8.0769H12.3826V5.41857C12.3826 5.1944 12.4563 5.00454 12.6038 4.84898C12.7511 4.69315 12.9373 4.61523 13.1626 4.61523C13.3959 4.61523 13.5895 4.69315 13.7434 4.84898C13.8973 5.00454 13.9742 5.1944 13.9742 5.41857V8.0769H26.1538V5.36065C26.1538 5.13954 26.2237 4.96009 26.3634 4.82232C26.5029 4.68426 26.6767 4.61523 26.8851 4.61523C27.1012 4.61523 27.2809 4.68579 27.4242 4.8269C27.5673 4.96801 27.6388 5.14385 27.6388 5.3544V8.0769H30.8976C31.5804 8.0769 32.157 8.31218 32.6276 8.78273C33.0981 9.25329 33.3334 9.82996 33.3334 10.5127V32.564C33.3334 33.2468 33.0981 33.8234 32.6276 34.294C32.157 34.7645 31.5804 34.9998 30.8976 34.9998H9.10258ZM9.10258 33.5894H30.8976C31.154 33.5894 31.389 33.4826 31.6026 33.269C31.8162 33.0554 31.923 32.8204 31.923 32.564V17.564H8.07717V32.564C8.07717 32.8204 8.18397 33.0554 8.39758 33.269C8.61119 33.4826 8.84619 33.5894 9.10258 33.5894ZM8.07717 16.1536H31.923V10.5127C31.923 10.2563 31.8162 10.0212 31.6026 9.80732C31.389 9.59371 31.154 9.4869 30.8976 9.4869H9.10258C8.84619 9.4869 8.61119 9.59371 8.39758 9.80732C8.18397 10.0212 8.07717 10.2563 8.07717 10.5127V16.1536ZM20.0001 23.5894C19.6562 23.5894 19.3565 23.4618 19.1009 23.2065C18.8456 22.9512 18.718 22.6515 18.718 22.3073C18.718 21.9634 18.8456 21.6638 19.1009 21.4086C19.3565 21.1533 19.6562 21.0257 20.0001 21.0257C20.344 21.0257 20.6437 21.1533 20.8992 21.4086C21.1545 21.6638 21.2822 21.9634 21.2822 22.3073C21.2822 22.6515 21.1545 22.9512 20.8992 23.2065C20.6437 23.4618 20.344 23.5894 20.0001 23.5894ZM13.3334 23.5894C12.9895 23.5894 12.6898 23.4618 12.4342 23.2065C12.179 22.9512 12.0513 22.6515 12.0513 22.3073C12.0513 21.9634 12.179 21.6638 12.4342 21.4086C12.6898 21.1533 12.9895 21.0257 13.3334 21.0257C13.6773 21.0257 13.977 21.1533 14.2326 21.4086C14.4879 21.6638 14.6155 21.9634 14.6155 22.3073C14.6155 22.6515 14.4879 22.9512 14.2326 23.2065C13.977 23.4618 13.6773 23.5894 13.3334 23.5894ZM26.6667 23.5894C26.3229 23.5894 26.0231 23.4618 25.7676 23.2065C25.5123 22.9512 25.3847 22.6515 25.3847 22.3073C25.3847 21.9634 25.5123 21.6638 25.7676 21.4086C26.0231 21.1533 26.3229 21.0257 26.6667 21.0257C27.0106 21.0257 27.3104 21.1533 27.5659 21.4086C27.8212 21.6638 27.9488 21.9634 27.9488 22.3073C27.9488 22.6515 27.8212 22.9512 27.5659 23.2065C27.3104 23.4618 27.0106 23.5894 26.6667 23.5894ZM20.0001 29.9998C19.6562 29.9998 19.3565 29.8722 19.1009 29.6169C18.8456 29.3616 18.718 29.0619 18.718 28.7177C18.718 28.3738 18.8456 28.0741 19.1009 27.8186C19.3565 27.5633 19.6562 27.4356 20.0001 27.4356C20.344 27.4356 20.6437 27.5633 20.8992 27.8186C21.1545 28.0741 21.2822 28.3738 21.2822 28.7177C21.2822 29.0619 21.1545 29.3616 20.8992 29.6169C20.6437 29.8722 20.344 29.9998 20.0001 29.9998ZM13.3334 29.9998C12.9895 29.9998 12.6898 29.8722 12.4342 29.6169C12.179 29.3616 12.0513 29.0619 12.0513 28.7177C12.0513 28.3738 12.179 28.0741 12.4342 27.8186C12.6898 27.5633 12.9895 27.4356 13.3334 27.4356C13.6773 27.4356 13.977 27.5633 14.2326 27.8186C14.4879 28.0741 14.6155 28.3738 14.6155 28.7177C14.6155 29.0619 14.4879 29.3616 14.2326 29.6169C13.977 29.8722 13.6773 29.9998 13.3334 29.9998ZM26.6667 29.9998C26.3229 29.9998 26.0231 29.8722 25.7676 29.6169C25.5123 29.3616 25.3847 29.0619 25.3847 28.7177C25.3847 28.3738 25.5123 28.0741 25.7676 27.8186C26.0231 27.5633 26.3229 27.4356 26.6667 27.4356C27.0106 27.4356 27.3104 27.5633 27.5659 27.8186C27.8212 28.0741 27.9488 28.3738 27.9488 28.7177C27.9488 29.0619 27.8212 29.3616 27.5659 29.6169C27.3104 29.8722 27.0106 29.9998 26.6667 29.9998Z" fill="#989898"/>
</g>
</svg>
