<svg width="32" height="32" viewBox="0 0 32 32" fill="none" xmlns="http://www.w3.org/2000/svg">
<mask id="mask0_1324_2498" style="mask-type:alpha" maskUnits="userSpaceOnUse" x="0" y="0" width="32" height="32">
<rect width="32" height="32" fill="#D9D9D9"/>
</mask>
<g mask="url(#mask0_1324_2498)">
<path d="M25.2083 26.6668C23.0255 26.6668 20.759 26.0986 18.409 24.9622C16.0592 23.8257 13.8607 22.2296 11.8133 20.1738C9.76601 18.1178 8.17412 15.9192 7.03767 13.5778C5.90123 11.2365 5.33301 8.97438 5.33301 6.7915C5.33301 6.37505 5.46945 6.02794 5.74234 5.75016C6.01523 5.47239 6.35623 5.3335 6.76534 5.3335H9.82567C10.2026 5.3335 10.5216 5.4485 10.7827 5.6785C11.0436 5.90827 11.2253 6.21094 11.328 6.5865L12.01 9.61783C12.0613 9.97761 12.0459 10.2976 11.9637 10.5778C11.8817 10.8583 11.7387 11.0891 11.5347 11.2702L8.58167 14.0258C9.17212 15.0656 9.8039 16.0262 10.477 16.9075C11.1503 17.7886 11.8656 18.6138 12.6227 19.3832C13.4405 20.2156 14.3188 20.9789 15.2577 21.6732C16.1968 22.3676 17.223 23.0196 18.3363 23.6292L21.21 20.6892C21.4305 20.4481 21.6719 20.2883 21.9343 20.2098C22.1968 20.1316 22.4881 20.1147 22.8083 20.1592L25.4133 20.7232C25.7905 20.8007 26.0936 20.9837 26.3227 21.2722C26.5518 21.5604 26.6663 21.8908 26.6663 22.2635V25.2345C26.6663 25.6436 26.5275 25.9846 26.2497 26.2575C25.9719 26.5304 25.6248 26.6668 25.2083 26.6668ZM8.03134 13.0018L10.7527 10.4805C10.8267 10.4121 10.8766 10.3181 10.9023 10.1985C10.9279 10.0787 10.9293 9.96761 10.9067 9.86516L10.2493 6.87183C10.2265 6.73516 10.1695 6.63261 10.0783 6.56416C9.98723 6.49594 9.87323 6.46183 9.73634 6.46183H6.82267C6.72023 6.46183 6.63479 6.49594 6.56634 6.56416C6.4979 6.63261 6.46367 6.71816 6.46367 6.82083C6.46767 7.73527 6.60679 8.71072 6.88101 9.74716C7.15501 10.7836 7.53845 11.8685 8.03134 13.0018ZM19.4227 24.1575C20.3305 24.6219 21.3212 24.9673 22.395 25.1935C23.4688 25.4195 24.3968 25.5385 25.179 25.5505C25.2817 25.5505 25.3672 25.5164 25.4357 25.4482C25.5039 25.3797 25.538 25.2942 25.538 25.1915V22.3148C25.538 22.1779 25.5039 22.0639 25.4357 21.9728C25.3672 21.8817 25.2647 21.8247 25.128 21.8018L22.5637 21.2695C22.4612 21.2466 22.3716 21.2481 22.2947 21.2738C22.2176 21.2994 22.1363 21.3492 22.051 21.4232L19.4227 24.1575Z" fill="white" fill-opacity="0.5"/>
</g>
</svg>
