<svg width="32" height="32" viewBox="0 0 32 32" fill="none" xmlns="http://www.w3.org/2000/svg">
<mask id="mask0_5708_31019" style="mask-type:alpha" maskUnits="userSpaceOnUse" x="0" y="0" width="32" height="32">
<rect width="32" height="32" fill="#D9D9D9"/>
</mask>
<g mask="url(#mask0_5708_31019)">
<path d="M25.2086 26.6663C23.0257 26.6663 20.7593 26.0981 18.4093 24.9617C16.0595 23.8252 13.8609 22.2291 11.8136 20.1733C9.76625 18.1173 8.17436 15.9187 7.03792 13.5773C5.90147 11.236 5.33325 8.9739 5.33325 6.79101C5.33325 6.37456 5.4697 6.02745 5.74259 5.74967C6.01547 5.4719 6.35647 5.33301 6.76559 5.33301H9.82592C10.2028 5.33301 10.5218 5.44801 10.7829 5.67801C11.0438 5.90778 11.2256 6.21045 11.3283 6.58601L12.0103 9.61734C12.0616 9.97712 12.0461 10.2971 11.9639 10.5773C11.8819 10.8578 11.7389 11.0886 11.5349 11.2697L8.58192 14.0253C9.17236 15.0651 9.80414 16.0257 10.4773 16.907C11.1506 17.7881 11.8658 18.6133 12.6229 19.3827C13.4407 20.2151 14.319 20.9785 15.2579 21.6727C16.197 22.3671 17.2233 23.0191 18.3366 23.6287L21.2103 20.6887C21.4307 20.4476 21.6721 20.2878 21.9346 20.2093C22.197 20.1311 22.4884 20.1142 22.8086 20.1587L25.4136 20.7227C25.7907 20.8002 26.0938 20.9832 26.3229 21.2717C26.552 21.5599 26.6666 21.8903 26.6666 22.263V25.234C26.6666 25.6431 26.5277 25.9841 26.2499 26.257C25.9721 26.5299 25.625 26.6663 25.2086 26.6663ZM8.03159 13.0013L10.7529 10.48C10.8269 10.4116 10.8768 10.3176 10.9026 10.198C10.9281 10.0782 10.9296 9.96712 10.9069 9.86468L10.2496 6.87134C10.2267 6.73468 10.1697 6.63212 10.0786 6.56367C9.98747 6.49545 9.87347 6.46134 9.73659 6.46134H6.82292C6.72047 6.46134 6.63503 6.49545 6.56659 6.56367C6.49814 6.63212 6.46392 6.71767 6.46392 6.82034C6.46792 7.73479 6.60703 8.71023 6.88125 9.74667C7.15525 10.7831 7.5387 11.868 8.03159 13.0013ZM19.4229 24.157C20.3307 24.6215 21.3215 24.9668 22.3953 25.193C23.469 25.419 24.397 25.538 25.1793 25.55C25.2819 25.55 25.3675 25.5159 25.4359 25.4477C25.5041 25.3792 25.5383 25.2937 25.5383 25.191V22.3143C25.5383 22.1775 25.5041 22.0635 25.4359 21.9723C25.3675 21.8812 25.2649 21.8242 25.1283 21.8013L22.5639 21.269C22.4615 21.2461 22.3718 21.2476 22.2949 21.2733C22.2178 21.2989 22.1366 21.3487 22.0513 21.4227L19.4229 24.157Z" fill="#989898"/>
</g>
</svg>
