<svg width="36" height="36" viewBox="0 0 36 36" fill="none" xmlns="http://www.w3.org/2000/svg">
<mask id="mask0_1811_5460" style="mask-type:alpha" maskUnits="userSpaceOnUse" x="0" y="0" width="36" height="36">
<rect width="36" height="36" fill="#D9D9D9"/>
</mask>
<g mask="url(#mask0_1811_5460)">
<path d="M28.3598 30C25.904 30 23.3543 29.3608 20.7105 28.0823C18.067 26.8038 15.5936 25.0081 13.2904 22.6954C10.9871 20.3824 9.19625 17.9089 7.91775 15.2749C6.63925 12.6409 6 10.096 6 7.64025C6 7.17175 6.1535 6.78125 6.4605 6.46875C6.7675 6.15625 7.15113 6 7.61138 6H11.0543C11.4783 6 11.8371 6.12937 12.1309 6.38812C12.4244 6.64662 12.6289 6.98713 12.7444 7.40963L13.5116 10.8199C13.5694 11.2246 13.552 11.5846 13.4595 11.8999C13.3673 12.2154 13.2064 12.475 12.9769 12.6787L9.65475 15.7789C10.319 16.9486 11.0298 18.0293 11.787 19.0208C12.5445 20.012 13.3491 20.9404 14.2009 21.8059C15.1209 22.7424 16.109 23.6011 17.1653 24.3821C18.2218 25.1634 19.3762 25.8969 20.6287 26.5826L23.8616 23.2751C24.1096 23.0039 24.3813 22.8241 24.6765 22.7359C24.9718 22.6479 25.2995 22.6289 25.6598 22.6789L28.5904 23.3134C29.0146 23.4006 29.3556 23.6065 29.6134 23.931C29.8711 24.2553 30 24.627 30 25.0463V28.3886C30 28.8489 29.8438 29.2325 29.5313 29.5395C29.2188 29.8465 28.8283 30 28.3598 30ZM9.03563 14.6269L12.0971 11.7904C12.1804 11.7134 12.2365 11.6076 12.2655 11.4731C12.2942 11.3384 12.2959 11.2134 12.2704 11.0981L11.5309 7.73063C11.5051 7.57688 11.441 7.4615 11.3385 7.3845C11.236 7.30775 11.1078 7.26937 10.9538 7.26937H7.67588C7.56063 7.26937 7.4645 7.30775 7.3875 7.3845C7.3105 7.4615 7.272 7.55775 7.272 7.67325C7.2765 8.702 7.433 9.79937 7.7415 10.9654C8.04975 12.1314 8.48113 13.3519 9.03563 14.6269ZM21.8509 27.177C22.8721 27.6995 23.9867 28.088 25.1947 28.3425C26.4028 28.5968 27.4468 28.7306 28.3268 28.7441C28.4423 28.7441 28.5385 28.7058 28.6155 28.629C28.6923 28.552 28.7306 28.4558 28.7306 28.3403V25.104C28.7306 24.95 28.6923 24.8218 28.6155 24.7193C28.5385 24.6168 28.4231 24.5526 28.2694 24.5269L25.3845 23.928C25.2693 23.9023 25.1684 23.9039 25.0819 23.9329C24.9951 23.9616 24.9037 24.0176 24.8078 24.1009L21.8509 27.177Z" fill="white"/>
</g>
</svg>
