<svg width="27" height="27" viewBox="0 0 27 27" fill="none" xmlns="http://www.w3.org/2000/svg">
<path d="M24.8442 26.6667C22.1156 26.6667 19.2825 25.9564 16.345 24.5358C13.4078 23.1153 10.6596 21.1201 8.10042 18.5504C5.54125 15.9804 3.55139 13.2321 2.13083 10.3054C0.710278 7.37875 0 4.55111 0 1.8225C0 1.30194 0.170556 0.868056 0.511667 0.520833C0.852778 0.173611 1.27903 0 1.79042 0H5.61583C6.08694 0 6.48569 0.143749 6.81208 0.431249C7.13819 0.718471 7.36542 1.09681 7.49375 1.56625L8.34625 5.35542C8.41042 5.80514 8.39111 6.20514 8.28833 6.55542C8.18583 6.90597 8.00708 7.19444 7.75208 7.42083L4.06083 10.8654C4.79889 12.1651 5.58861 13.3658 6.43 14.4675C7.27167 15.5689 8.16569 16.6004 9.11208 17.5621C10.1343 18.6026 11.2322 19.5568 12.4058 20.4246C13.5797 21.2926 14.8625 22.1076 16.2542 22.8696L19.8463 19.1946C20.1218 18.8932 20.4236 18.6935 20.7517 18.5954C21.0797 18.4976 21.4439 18.4765 21.8442 18.5321L25.1004 19.2371C25.5718 19.334 25.9507 19.5628 26.2371 19.9233C26.5235 20.2836 26.6667 20.6967 26.6667 21.1625V24.8763C26.6667 25.3876 26.4931 25.8139 26.1458 26.155C25.7986 26.4961 25.3647 26.6667 24.8442 26.6667ZM3.37292 9.58542L6.77458 6.43375C6.86708 6.34819 6.92944 6.2307 6.96167 6.08125C6.99361 5.93153 6.99542 5.79264 6.96708 5.66458L6.14542 1.92292C6.11681 1.75208 6.04556 1.62389 5.93167 1.53833C5.81778 1.45305 5.67528 1.41042 5.50417 1.41042H1.86208C1.73403 1.41042 1.62722 1.45305 1.54167 1.53833C1.45611 1.62389 1.41333 1.73083 1.41333 1.85917C1.41833 3.00222 1.59222 4.22153 1.935 5.51708C2.2775 6.81264 2.75681 8.16875 3.37292 9.58542ZM17.6121 23.53C18.7468 24.1106 19.9853 24.5422 21.3275 24.825C22.6697 25.1075 23.8297 25.2563 24.8075 25.2713C24.9358 25.2713 25.0428 25.2286 25.1283 25.1433C25.2136 25.0578 25.2563 24.9508 25.2563 24.8225V21.2267C25.2563 21.0556 25.2136 20.9131 25.1283 20.7992C25.0428 20.6853 24.9146 20.614 24.7437 20.5854L21.5383 19.92C21.4103 19.8914 21.2982 19.8932 21.2021 19.9254C21.1057 19.9574 21.0042 20.0196 20.8975 20.1121L17.6121 23.53Z" fill="white" fill-opacity="0.3"/>
</svg>
