<svg width="28" height="28" viewBox="0 0 28 28" fill="none" xmlns="http://www.w3.org/2000/svg">
<mask id="mask0_1695_2434" style="mask-type:alpha" maskUnits="userSpaceOnUse" x="0" y="0" width="28" height="28">
<rect width="28" height="28" fill="#D9D9D9"/>
</mask>
<g mask="url(#mask0_1695_2434)">
<path d="M22.0569 23.3334C20.1469 23.3334 18.1638 22.8362 16.1075 21.8418C14.0515 20.8474 12.1277 19.4508 10.3363 17.652C8.54489 15.853 7.15199 13.9292 6.1576 11.8805C5.16321 9.83187 4.66602 7.85253 4.66602 5.9425C4.66602 5.57811 4.7854 5.27439 5.02418 5.03133C5.26296 4.78828 5.56134 4.66675 5.91931 4.66675H8.5971C8.92688 4.66675 9.206 4.76737 9.43447 4.96862C9.66275 5.16968 9.82181 5.43451 9.91164 5.76312L10.5084 8.41554C10.5533 8.73035 10.5398 9.01035 10.4678 9.25554C10.3961 9.50093 10.271 9.70286 10.0925 9.86133L7.5086 12.2725C8.02524 13.1823 8.57804 14.0228 9.16702 14.794C9.75618 15.565 10.382 16.287 11.0445 16.9602C11.76 17.6886 12.5286 18.3565 13.3501 18.964C14.1718 19.5716 15.0698 20.1421 16.0439 20.6755L18.5584 18.103C18.7513 17.892 18.9625 17.7522 19.1922 17.6835C19.4218 17.6151 19.6767 17.6003 19.9569 17.6392L22.2363 18.1327C22.5663 18.2006 22.8315 18.3607 23.032 18.6131C23.2324 18.8653 23.3327 19.1544 23.3327 19.4805V22.0801C23.3327 22.4381 23.2112 22.7365 22.9681 22.9752C22.725 23.214 22.4213 23.3334 22.0569 23.3334ZM7.02706 11.3765L9.40822 9.17037C9.47297 9.11048 9.51663 9.02823 9.53918 8.92362C9.56154 8.81882 9.56281 8.7216 9.54297 8.63196L8.96781 6.01279C8.94778 5.89321 8.8979 5.80347 8.81818 5.74358C8.73846 5.68389 8.63871 5.65404 8.51893 5.65404H5.96947C5.87984 5.65404 5.80507 5.68389 5.74518 5.74358C5.68529 5.80347 5.65535 5.87833 5.65535 5.96816C5.65885 6.7683 5.78057 7.62182 6.02052 8.52871C6.26027 9.43559 6.59578 10.3849 7.02706 11.3765ZM16.9945 21.1377C17.7888 21.5441 18.6557 21.8463 19.5953 22.0442C20.5348 22.242 21.3468 22.3461 22.0313 22.3566C22.1211 22.3566 22.196 22.3268 22.2558 22.2671C22.3155 22.2072 22.3454 22.1323 22.3454 22.0425V19.5254C22.3454 19.4056 22.3155 19.3059 22.2558 19.2262C22.196 19.1464 22.1062 19.0966 21.9866 19.0765L19.7428 18.6107C19.6532 18.5907 19.5748 18.592 19.5075 18.6145C19.44 18.6369 19.3689 18.6805 19.2943 18.7452L16.9945 21.1377Z" fill="white" fill-opacity="0.5"/>
</g>
</svg>
