<svg width="32" height="32" viewBox="0 0 32 32" fill="none" xmlns="http://www.w3.org/2000/svg">
<mask id="mask0_4284_21734" style="mask-type:alpha" maskUnits="userSpaceOnUse" x="0" y="0" width="32" height="32">
<rect width="32" height="32" fill="#D9D9D9"/>
</mask>
<g mask="url(#mask0_4284_21734)">
<path d="M27.6409 16.564H24.5639C24.403 16.564 24.2688 16.5099 24.1613 16.4017C24.0537 16.2935 23.9999 16.1582 23.9999 15.996C23.9999 15.834 24.0537 15.7001 24.1613 15.5944C24.2688 15.4888 24.403 15.436 24.5639 15.436H27.6409C27.8018 15.436 27.936 15.4901 28.0436 15.5984C28.1511 15.7066 28.2049 15.8418 28.2049 16.004C28.2049 16.166 28.1511 16.2999 28.0436 16.4057C27.936 16.5112 27.8018 16.564 27.6409 16.564ZM22.4479 22.3094C22.5493 22.1887 22.6741 22.1147 22.8226 22.0874C22.971 22.0598 23.1139 22.0968 23.2513 22.1984L25.6956 24.0427C25.8278 24.1442 25.9076 24.2692 25.9349 24.4177C25.9623 24.5659 25.9253 24.703 25.8239 24.829C25.7224 24.9612 25.5946 25.041 25.4406 25.0684C25.2864 25.0957 25.1464 25.0587 25.0206 24.9574L22.5589 23.1127C22.438 23.0114 22.3639 22.8865 22.3366 22.738C22.3093 22.5896 22.3464 22.4467 22.4479 22.3094ZM25.5933 7.85469L23.1813 9.69402C23.0439 9.79536 22.901 9.83236 22.7526 9.80502C22.6041 9.77769 22.4791 9.69791 22.3776 9.56569C22.2763 9.44502 22.2393 9.30913 22.2666 9.15802C22.2939 9.00713 22.368 8.88091 22.4889 8.77936L24.9179 6.94002C25.0439 6.83869 25.1839 6.80169 25.3379 6.82902C25.4921 6.85636 25.6199 6.93613 25.7213 7.06836C25.8228 7.18924 25.8598 7.32513 25.8323 7.47602C25.8049 7.62713 25.7253 7.75336 25.5933 7.85469ZM7.43592 18.8717H5.74359C5.21226 18.8717 4.75459 18.6798 4.37059 18.296C3.98681 17.912 3.79492 17.4544 3.79492 16.923V15.077C3.79492 14.5457 3.98681 14.088 4.37059 13.704C4.75459 13.3202 5.21226 13.1284 5.74359 13.1284H10.9229L14.7496 10.8717C15.0687 10.6781 15.391 10.6735 15.7166 10.8577C16.0421 11.0419 16.2049 11.3232 16.2049 11.7017V20.2984C16.2049 20.6768 16.0421 20.9581 15.7166 21.1424C15.391 21.3266 15.0687 21.3219 14.7496 21.1284L10.9229 18.8717H8.56392V23.3847C8.56392 23.5456 8.50981 23.6798 8.40159 23.7874C8.29337 23.8949 8.15814 23.9487 7.99592 23.9487C7.83392 23.9487 7.70003 23.8949 7.59426 23.7874C7.4887 23.6798 7.43592 23.5456 7.43592 23.3847V18.8717ZM15.0769 19.9984V12.0017L11.2323 14.2564H5.74359C5.53848 14.2564 5.35037 14.3418 5.17926 14.5127C5.00837 14.6838 4.92292 14.8719 4.92292 15.077V16.923C4.92292 17.1281 5.00837 17.3162 5.17926 17.4874C5.35037 17.6582 5.53848 17.7437 5.74359 17.7437H11.2323L15.0769 19.9984ZM18.5639 19.8514V12.1487C19.0101 12.5625 19.3696 13.1057 19.6423 13.7784C19.9149 14.451 20.0513 15.1916 20.0513 16C20.0513 16.8085 19.9149 17.549 19.6423 18.2217C19.3696 18.8944 19.0101 19.4376 18.5639 19.8514Z" fill="white" fill-opacity="0.3"/>
</g>
</svg>
