<svg width="30" height="27" viewBox="0 0 30 27" fill="none" xmlns="http://www.w3.org/2000/svg">
<path d="M5.12833 23.5377L2.0725 26.6198C1.68722 27.0088 1.24556 27.0993 0.7475 26.8914C0.249167 26.6834 0 26.3045 0 25.7544V2.45716C0 1.76841 0.235278 1.18669 0.705833 0.712014C1.17639 0.237338 1.75306 0 2.43583 0H27.5642C28.2469 0 28.8236 0.237338 29.2942 0.712014C29.7647 1.18669 30 1.76841 30 2.45716V21.0805C30 21.7693 29.7647 22.351 29.2942 22.8256C28.8236 23.3003 28.2469 23.5377 27.5642 23.5377H5.12833ZM4.51083 22.1149H27.5642C27.8206 22.1149 28.0556 22.0072 28.2692 21.7917C28.4828 21.5762 28.5896 21.3391 28.5896 21.0805V2.45716C28.5896 2.19853 28.4828 1.96147 28.2692 1.74599C28.0556 1.53051 27.8206 1.42277 27.5642 1.42277H2.43583C2.17944 1.42277 1.94444 1.53051 1.73083 1.74599C1.51722 1.96147 1.41042 2.19853 1.41042 2.45716V25.3215L4.51083 22.1149Z" fill="white" fill-opacity="0.3"/>
</svg>
