<svg width="36" height="36" viewBox="0 0 36 36" fill="none" xmlns="http://www.w3.org/2000/svg">
<mask id="mask0_1811_5448" style="mask-type:alpha" maskUnits="userSpaceOnUse" x="0" y="0" width="36" height="36">
<rect width="36" height="36" fill="#D9D9D9"/>
</mask>
<g mask="url(#mask0_1811_5448)">
<path d="M9.6155 25.9224L6.86525 28.6621C6.5185 29.0078 6.121 29.0882 5.67275 28.9034C5.22425 28.7186 5 28.3817 5 27.8928V7.18415C5 6.57192 5.21175 6.05484 5.63525 5.6329C6.05875 5.21097 6.57775 5 7.19225 5H29.8077C30.4222 5 30.9412 5.21097 31.3647 5.6329C31.7882 6.05484 32 6.57192 32 7.18415V23.7382C32 24.3504 31.7882 24.8675 31.3647 25.2895C30.9412 25.7114 30.4222 25.9224 29.8077 25.9224H9.6155ZM9.05975 24.6577H29.8077C30.0385 24.6577 30.25 24.5619 30.4423 24.3704C30.6345 24.1788 30.7306 23.9681 30.7306 23.7382V7.18415C30.7306 6.95425 30.6345 6.74353 30.4423 6.55199C30.25 6.36045 30.0385 6.26468 29.8077 6.26468H7.19225C6.9615 6.26468 6.75 6.36045 6.55775 6.55199C6.3655 6.74353 6.26938 6.95425 6.26938 7.18415V27.508L9.05975 24.6577Z" fill="white"/>
</g>
</svg>
