<svg width="36" height="36" viewBox="0 0 36 36" fill="none" xmlns="http://www.w3.org/2000/svg">
<mask id="mask0_5905_27780" style="mask-type:alpha" maskUnits="userSpaceOnUse" x="0" y="0" width="36" height="36">
<rect width="36" height="36" fill="white"/>
</mask>
<g mask="url(#mask0_5905_27780)">
<path d="M9.32194 28.0425L6.54818 30.8349C6.19847 31.1873 5.79757 31.2693 5.34549 31.0809C4.89316 30.8925 4.66699 30.5492 4.66699 30.0508V8.94392C4.66699 8.31992 4.88055 7.79289 5.30767 7.36285C5.73479 6.9328 6.25823 6.71777 6.87798 6.71777H29.6868C30.3065 6.71777 30.83 6.9328 31.2571 7.36285C31.6842 7.79289 31.8978 8.31992 31.8978 8.94392V25.8163C31.8978 26.4403 31.6842 26.9674 31.2571 27.3974C30.83 27.8275 30.3065 28.0425 29.6868 28.0425H9.32194ZM8.76144 26.7535H29.6868C29.9195 26.7535 30.1328 26.6559 30.3267 26.4607C30.5206 26.2654 30.6175 26.0507 30.6175 25.8163V8.94392C30.6175 8.7096 30.5206 8.49483 30.3267 8.29961C30.1328 8.10439 29.9195 8.00678 29.6868 8.00678H6.87798C6.64526 8.00678 6.43195 8.10439 6.23806 8.29961C6.04416 8.49483 5.94722 8.7096 5.94722 8.94392V29.6586L8.76144 26.7535Z" fill="white"/>
</g>
</svg>
