<svg width="28" height="28" viewBox="0 0 28 28" fill="none" xmlns="http://www.w3.org/2000/svg">
<mask id="mask0_2833_7410" style="mask-type:alpha" maskUnits="userSpaceOnUse" x="0" y="0" width="28" height="28">
<rect width="28" height="28" fill="#D9D9D9"/>
</mask>
<g mask="url(#mask0_2833_7410)">
<path d="M12.7935 17.5826L9.78258 14.5569C9.67933 14.4635 9.55936 14.4132 9.42267 14.4058C9.28617 14.3982 9.16231 14.45 9.05108 14.5613C8.94297 14.6696 8.88892 14.7907 8.88892 14.9247C8.88892 15.0588 8.94297 15.1801 9.05108 15.2884L12.195 18.4366C12.3645 18.6163 12.564 18.7061 12.7935 18.7061C13.0227 18.7061 13.2221 18.6163 13.3917 18.4366L19.8996 11.9438C19.9959 11.8377 20.0477 11.7162 20.0551 11.5795C20.0627 11.443 20.0108 11.3192 19.8996 11.208C19.7884 11.0997 19.665 11.0463 19.5295 11.0478C19.3938 11.0494 19.2719 11.1042 19.1638 11.2123L12.7935 17.5826ZM14.5038 25C13.055 25 11.6939 24.7245 10.4205 24.1734C9.14724 23.6224 8.03463 22.8713 7.08263 21.9203C6.13063 20.9691 5.3789 19.8574 4.82746 18.5854C4.27582 17.3133 4 15.9528 4 14.5038C4 13.0519 4.27553 11.6868 4.82658 10.4085C5.37764 9.13042 6.12868 8.01858 7.07971 7.073C8.03093 6.12742 9.14257 5.3789 10.4146 4.82746C11.6867 4.27582 13.0472 4 14.4962 4C15.9481 4 17.3132 4.27553 18.5915 4.82658C19.8696 5.37764 20.9814 6.12547 21.927 7.07008C22.8726 8.01469 23.6211 9.12556 24.1725 10.4027C24.7242 11.6796 25 13.0441 25 14.4962C25 15.945 24.7245 17.3061 24.1734 18.5795C23.6224 19.8528 22.8745 20.9654 21.9299 21.9174C20.9853 22.8694 19.8744 23.6211 18.5973 24.1725C17.3204 24.7242 15.9559 25 14.5038 25ZM14.5 24.0127C17.1495 24.0127 19.3974 23.0889 21.2436 21.2413C23.0897 19.3935 24.0127 17.1464 24.0127 14.5C24.0127 11.8505 23.0897 9.60262 21.2436 7.75637C19.3974 5.91032 17.1495 4.98729 14.5 4.98729C11.8536 4.98729 9.60651 5.91032 7.75871 7.75637C5.9111 9.60262 4.98729 11.8505 4.98729 14.5C4.98729 17.1464 5.9111 19.3935 7.75871 21.2413C9.60651 23.0889 11.8536 24.0127 14.5 24.0127Z" fill="white" fill-opacity="0.3"/>
</g>
</svg>
