<svg width="21" height="21" viewBox="0 0 21 21" fill="none" xmlns="http://www.w3.org/2000/svg">
<path d="M8.79346 13.5826L5.78258 10.5569C5.67933 10.4635 5.55936 10.4132 5.42267 10.4058C5.28617 10.3982 5.16231 10.45 5.05108 10.5613C4.94297 10.6696 4.88892 10.7907 4.88892 10.9247C4.88892 11.0588 4.94297 11.1801 5.05108 11.2884L8.19496 14.4366C8.36451 14.6163 8.56401 14.7061 8.79346 14.7061C9.02271 14.7061 9.22211 14.6163 9.39167 14.4366L15.8996 7.94383C15.9959 7.83767 16.0477 7.71624 16.0551 7.57954C16.0627 7.44304 16.0108 7.31918 15.8996 7.20796C15.7884 7.09965 15.665 7.04628 15.5295 7.04783C15.3938 7.04939 15.2719 7.10422 15.1638 7.21233L8.79346 13.5826ZM10.5038 21C9.05499 21 7.69388 20.7245 6.42046 20.1734C5.14724 19.6224 4.03463 18.8713 3.08263 17.9203C2.13063 16.9691 1.3789 15.8574 0.827458 14.5854C0.275819 13.3133 0 11.9528 0 10.5038C0 9.05188 0.275528 7.68678 0.826583 6.4085C1.37764 5.13042 2.12868 4.01858 3.07971 3.073C4.03093 2.12742 5.14257 1.3789 6.41462 0.827458C7.68668 0.275819 9.04721 0 10.4962 0C11.9481 0 13.3132 0.275529 14.5915 0.826584C15.8696 1.37764 16.9814 2.12547 17.927 3.07008C18.8726 4.01469 19.6211 5.12556 20.1725 6.40267C20.7242 7.67958 21 9.0441 21 10.4962C21 11.945 20.7245 13.3061 20.1734 14.5795C19.6224 15.8528 18.8745 16.9654 17.9299 17.9174C16.9853 18.8694 15.8744 19.6211 14.5973 20.1725C13.3204 20.7242 11.9559 21 10.5038 21ZM10.5 20.0127C13.1495 20.0127 15.3974 19.0889 17.2436 17.2413C19.0897 15.3935 20.0127 13.1464 20.0127 10.5C20.0127 7.8505 19.0897 5.60262 17.2436 3.75637C15.3974 1.91032 13.1495 0.987291 10.5 0.987291C7.85361 0.987291 5.60651 1.91032 3.75871 3.75637C1.9111 5.60262 0.987292 7.8505 0.987292 10.5C0.987292 13.1464 1.9111 15.3935 3.75871 17.2413C5.60651 19.0889 7.85361 20.0127 10.5 20.0127Z" fill="white" fill-opacity="0.3"/>
</svg>
