<svg width="16" height="16" viewBox="0 0 16 16" fill="none" xmlns="http://www.w3.org/2000/svg">
<path d="M8 8.79107L0.973905 15.8172C0.868866 15.9222 0.741178 15.9789 0.590842 15.9872C0.440506 15.9957 0.304503 15.9391 0.182833 15.8172C0.0609445 15.6955 0 15.5637 0 15.4216C0 15.2798 0.0609445 15.148 0.182833 15.0261L7.20893 8L0.182833 0.973904C0.0777944 0.868865 0.0211171 0.741178 0.0128016 0.590842C0.00426717 0.440506 0.0609445 0.304501 0.182833 0.182831C0.304503 0.0609425 0.436348 0 0.578368 0C0.720171 0 0.852017 0.0609425 0.973905 0.182831L8 7.20893L15.0261 0.182831C15.1311 0.0777924 15.2588 0.0211156 15.4092 0.0128001C15.5595 0.00426567 15.6955 0.0609425 15.8172 0.182831C15.9391 0.304501 16 0.436348 16 0.578368C16 0.720171 15.9391 0.852015 15.8172 0.973904L8.79107 8L15.8172 15.0261C15.9222 15.1311 15.9789 15.2588 15.9872 15.4092C15.9957 15.5595 15.9391 15.6955 15.8172 15.8172C15.6955 15.9391 15.5637 16 15.4216 16C15.2798 16 15.148 15.9391 15.0261 15.8172L8 8.79107Z" fill="white" fill-opacity="0.3"/>
</svg>
