<svg width="32" height="32" viewBox="0 0 32 32" fill="none" xmlns="http://www.w3.org/2000/svg">
<mask id="mask0_4866_20537" style="mask-type:alpha" maskUnits="userSpaceOnUse" x="0" y="0" width="32" height="32">
<rect width="32" height="32" fill="#D9D9D9"/>
</mask>
<g mask="url(#mask0_4866_20537)">
<path d="M5.64133 14.103C5.36533 14.103 5.13388 14.0095 4.94699 13.8227C4.76033 13.636 4.66699 13.4047 4.66699 13.1287V5.64132C4.66699 5.36532 4.76033 5.13388 4.94699 4.94699C5.13388 4.76033 5.36533 4.66699 5.64133 4.66699H13.1287C13.4047 4.66699 13.636 4.76033 13.8227 4.94699C14.0095 5.13388 14.103 5.36532 14.103 5.64132V13.1287C14.103 13.4047 14.0095 13.636 13.8227 13.8227C13.636 14.0095 13.4047 14.103 13.1287 14.103H5.64133ZM18.872 14.103C18.596 14.103 18.3647 14.0095 18.178 13.8227C17.9911 13.636 17.8977 13.4047 17.8977 13.1287V5.64132C17.8977 5.36532 17.9911 5.13388 18.178 4.94699C18.3647 4.76033 18.596 4.66699 18.872 4.66699H26.3593C26.6353 4.66699 26.8668 4.76033 27.0537 4.94699C27.2403 5.13388 27.3337 5.36532 27.3337 5.64132V13.1287C27.3337 13.4047 27.2403 13.636 27.0537 13.8227C26.8668 14.0095 26.6353 14.103 26.3593 14.103H18.872ZM5.64133 27.3337C5.36533 27.3337 5.13388 27.2403 4.94699 27.0537C4.76033 26.8668 4.66699 26.6353 4.66699 26.3593V18.872C4.66699 18.596 4.76033 18.3647 4.94699 18.178C5.13388 17.9911 5.36533 17.8977 5.64133 17.8977H13.1287C13.4047 17.8977 13.636 17.9911 13.8227 18.178C14.0095 18.3647 14.103 18.596 14.103 18.872V26.3593C14.103 26.6353 14.0095 26.8668 13.8227 27.0537C13.636 27.2403 13.4047 27.3337 13.1287 27.3337H5.64133ZM22.611 27.3337C22.4552 27.3337 22.3244 27.2795 22.2187 27.1713C22.1129 27.0633 22.06 26.9294 22.06 26.7697V23.1713H18.4287C18.2844 23.1713 18.1599 23.1168 18.055 23.0077C17.9501 22.8985 17.8977 22.7634 17.8977 22.6023C17.8977 22.4523 17.9518 22.3216 18.06 22.21C18.168 22.0987 18.302 22.043 18.462 22.043H22.06V18.4287C22.06 18.2844 22.1145 18.1599 22.2237 18.055C22.3328 17.9501 22.4679 17.8977 22.629 17.8977C22.7792 17.8977 22.91 17.9518 23.0213 18.06C23.1327 18.168 23.1883 18.302 23.1883 18.462V22.043H26.803C26.947 22.043 27.0714 22.1003 27.1763 22.215C27.2812 22.3297 27.3337 22.4649 27.3337 22.6207C27.3337 22.7764 27.2795 22.9071 27.1713 23.0127C27.0633 23.1184 26.9294 23.1713 26.7697 23.1713H23.1883V26.803C23.1883 26.947 23.131 27.0714 23.0163 27.1763C22.9019 27.2812 22.7668 27.3337 22.611 27.3337ZM19.026 5.79532V12.9747H26.2053V5.79532H19.026ZM5.79533 5.79532V12.9747H12.9747V5.79532H5.79533ZM5.79533 19.026V26.2053H12.9747V19.026H5.79533Z" fill="white" fill-opacity="0.3"/>
</g>
</svg>
