<svg width="16" height="18" viewBox="0 0 16 18" fill="none" xmlns="http://www.w3.org/2000/svg">
<path d="M2.81743 18C2.36581 18 1.97457 17.8348 1.64371 17.5043C1.31267 17.1739 1.14714 16.783 1.14714 16.3318V1.75614H0.483428C0.346476 1.75614 0.231714 1.70943 0.139143 1.61602C0.0463808 1.52262 0 1.40685 0 1.26874C0 1.13081 0.0463808 1.01657 0.139143 0.926011C0.231714 0.835455 0.346476 0.790177 0.483428 0.790177H4.46C4.46 0.576153 4.53914 0.390952 4.69743 0.234571C4.85571 0.0781911 5.04029 0 5.25114 0H10.7489C10.9597 0 11.1443 0.0790462 11.3026 0.237139C11.4609 0.395231 11.54 0.579577 11.54 0.790177H15.5166C15.6535 0.790177 15.7683 0.836883 15.8609 0.930293C15.9536 1.0237 16 1.13946 16 1.27758C16 1.4157 15.9536 1.52994 15.8609 1.62031C15.7683 1.71086 15.6535 1.75614 15.5166 1.75614H14.8529V16.3318C14.8529 16.783 14.6873 17.1739 14.3563 17.5043C14.0254 17.8348 13.6342 18 13.1826 18H2.81743ZM13.8857 1.75614H2.11429V16.3318C2.11429 16.5366 2.18267 16.7049 2.31943 16.8366C2.45619 16.9682 2.62219 17.034 2.81743 17.034H13.1826C13.3778 17.034 13.5438 16.9682 13.6806 16.8366C13.8173 16.7049 13.8857 16.5366 13.8857 16.3318V1.75614ZM6.04257 14.6958C6.18067 14.6958 6.29505 14.6494 6.38571 14.5568C6.47638 14.4641 6.52171 14.3494 6.52171 14.2126V4.55843C6.52171 4.43116 6.47495 4.31891 6.38143 4.2217C6.2879 4.12429 6.172 4.07559 6.03371 4.07559C5.89543 4.07559 5.78105 4.12429 5.69057 4.2217C5.59991 4.31891 5.55457 4.43116 5.55457 4.55843V14.2126C5.55457 14.3494 5.60133 14.4641 5.69486 14.5568C5.78838 14.6494 5.90429 14.6958 6.04257 14.6958ZM9.96629 14.6958C10.1046 14.6958 10.219 14.6494 10.3094 14.5568C10.4001 14.4641 10.4454 14.3494 10.4454 14.2126V4.55843C10.4454 4.43116 10.3987 4.31891 10.3051 4.2217C10.2116 4.12429 10.0957 4.07559 9.95743 4.07559C9.81933 4.07559 9.70495 4.12429 9.61429 4.2217C9.52362 4.31891 9.47828 4.43116 9.47828 4.55843V14.2126C9.47828 14.3494 9.52505 14.4641 9.61857 14.5568C9.7121 14.6494 9.828 14.6958 9.96629 14.6958Z" fill="white" fill-opacity="0.3"/>
</svg>
