<svg width="28" height="28" viewBox="0 0 28 28" fill="none" xmlns="http://www.w3.org/2000/svg">
<mask id="mask0_2833_7405" style="mask-type:alpha" maskUnits="userSpaceOnUse" x="0" y="0" width="28" height="28">
<rect width="28" height="28" fill="#D9D9D9"/>
</mask>
<g mask="url(#mask0_2833_7405)">
<path d="M8.81743 23C8.36581 23 7.97457 22.8348 7.64371 22.5043C7.31267 22.1739 7.14714 21.783 7.14714 21.3318V6.75614H6.48343C6.34648 6.75614 6.23171 6.70943 6.13914 6.61602C6.04638 6.52262 6 6.40685 6 6.26874C6 6.13081 6.04638 6.01657 6.13914 5.92601C6.23171 5.83546 6.34648 5.79018 6.48343 5.79018H10.46C10.46 5.57615 10.5391 5.39095 10.6974 5.23457C10.8557 5.07819 11.0403 5 11.2511 5H16.7489C16.9597 5 17.1443 5.07905 17.3026 5.23714C17.4609 5.39523 17.54 5.57958 17.54 5.79018H21.5166C21.6535 5.79018 21.7683 5.83688 21.8609 5.93029C21.9536 6.0237 22 6.13946 22 6.27758C22 6.4157 21.9536 6.52994 21.8609 6.62031C21.7683 6.71086 21.6535 6.75614 21.5166 6.75614H20.8529V21.3318C20.8529 21.783 20.6873 22.1739 20.3563 22.5043C20.0254 22.8348 19.6342 23 19.1826 23H8.81743ZM19.8857 6.75614H8.11429V21.3318C8.11429 21.5366 8.18267 21.7049 8.31943 21.8366C8.45619 21.9682 8.62219 22.034 8.81743 22.034H19.1826C19.3778 22.034 19.5438 21.9682 19.6806 21.8366C19.8173 21.7049 19.8857 21.5366 19.8857 21.3318V6.75614ZM12.0426 19.6958C12.1807 19.6958 12.295 19.6494 12.3857 19.5568C12.4764 19.4641 12.5217 19.3494 12.5217 19.2126V9.55843C12.5217 9.43116 12.475 9.31891 12.3814 9.2217C12.2879 9.12429 12.172 9.07559 12.0337 9.07559C11.8954 9.07559 11.781 9.12429 11.6906 9.2217C11.5999 9.31891 11.5546 9.43116 11.5546 9.55843V19.2126C11.5546 19.3494 11.6013 19.4641 11.6949 19.5568C11.7884 19.6494 11.9043 19.6958 12.0426 19.6958ZM15.9663 19.6958C16.1046 19.6958 16.219 19.6494 16.3094 19.5568C16.4001 19.4641 16.4454 19.3494 16.4454 19.2126V9.55843C16.4454 9.43116 16.3987 9.31891 16.3051 9.2217C16.2116 9.12429 16.0957 9.07559 15.9574 9.07559C15.8193 9.07559 15.705 9.12429 15.6143 9.2217C15.5236 9.31891 15.4783 9.43116 15.4783 9.55843V19.2126C15.4783 19.3494 15.525 19.4641 15.6186 19.5568C15.7121 19.6494 15.828 19.6958 15.9663 19.6958Z" fill="white" fill-opacity="0.3"/>
</g>
</svg>
