<svg width="32" height="32" viewBox="0 0 32 32" fill="none" xmlns="http://www.w3.org/2000/svg">
<mask id="mask0_4489_28162" style="mask-type:alpha" maskUnits="userSpaceOnUse" x="0" y="0" width="32" height="32">
<rect width="32" height="32" fill="white"/>
</mask>
<g mask="url(#mask0_4489_28162)">
<path d="M7.28265 26.6673C6.75132 26.6673 6.29376 26.4753 5.90998 26.0913C5.52598 25.7075 5.33398 25.25 5.33398 24.7187V7.28265C5.33398 6.75132 5.52598 6.29376 5.90998 5.90999C6.29376 5.52599 6.75132 5.33398 7.28265 5.33398H24.7187C25.25 5.33398 25.7075 5.52599 26.0913 5.90999C26.4753 6.29376 26.6673 6.75132 26.6673 7.28265V24.7187C26.6673 25.25 26.4753 25.7075 26.0913 26.0913C25.7075 26.4753 25.25 26.6673 24.7187 26.6673H7.28265ZM21.264 25.539H25.539V7.28265C25.539 7.07754 25.4535 6.88954 25.2827 6.71865C25.1118 6.54776 24.9238 6.46232 24.7187 6.46232H21.264V25.539ZM20.1357 25.539V6.46232H7.28265C7.07754 6.46232 6.88954 6.54776 6.71865 6.71865C6.54776 6.88954 6.46232 7.07754 6.46232 7.28265V24.7187C6.46232 24.9238 6.54776 25.1118 6.71865 25.2827C6.88954 25.4535 7.07754 25.539 7.28265 25.539H20.1357Z" fill="white"/>
</g>
</svg>
