<svg width="28" height="28" viewBox="0 0 28 28" fill="none" xmlns="http://www.w3.org/2000/svg">
<mask id="mask0_2833_7388" style="mask-type:alpha" maskUnits="userSpaceOnUse" x="0" y="0" width="28" height="28">
<rect width="28" height="28" fill="#D9D9D9"/>
</mask>
<g mask="url(#mask0_2833_7388)">
<path d="M6.00492 22.9948H7.18856L20.6278 9.55691L19.4442 8.37299L6.00492 21.8109V22.9948ZM5.86777 24C5.61839 24 5.41137 23.9177 5.2467 23.7532C5.08223 23.5885 5 23.3815 5 23.132V22.1126C5 21.8723 5.0477 21.6428 5.14309 21.424C5.23849 21.2055 5.36763 21.0198 5.53052 20.8669L21.0799 5.28269C21.1793 5.2035 21.2921 5.13659 21.4184 5.08196C21.5444 5.02732 21.6761 5 21.8132 5C21.9474 5 22.0756 5.02286 22.1977 5.06859C22.3198 5.11432 22.436 5.18638 22.5462 5.28477L23.7177 6.45889C23.8192 6.55886 23.8916 6.67318 23.935 6.80186C23.9783 6.93034 24 7.05891 24 7.18759C24 7.3232 23.9744 7.45484 23.9231 7.58253C23.872 7.71021 23.8036 7.82375 23.7177 7.92312L8.13233 23.4694C7.97954 23.6323 7.79389 23.7615 7.57539 23.8569C7.35669 23.9523 7.12721 24 6.88694 24H5.86777ZM20.0421 8.97431L19.4442 8.37299L20.6278 9.55691L20.0421 8.97431Z" fill="white" fill-opacity="0.3"/>
</g>
</svg>
