<svg width="19" height="19" viewBox="0 0 19 19" fill="none" xmlns="http://www.w3.org/2000/svg">
<path d="M1.00492 17.9948H2.18856L15.6278 4.55691L14.4442 3.37299L1.00492 16.8109V17.9948ZM0.867765 19C0.618391 19 0.41137 18.9177 0.246703 18.7532C0.0822343 18.5885 0 18.3815 0 18.132V17.1126C0 16.8723 0.0476981 16.6428 0.143094 16.424C0.23849 16.2055 0.36763 16.0198 0.530515 15.8669L16.0799 0.28269C16.1793 0.203505 16.2921 0.136593 16.4184 0.0819552C16.5444 0.0273174 16.6761 0 16.8132 0C16.9474 0 17.0756 0.0228647 17.1977 0.0685941C17.3198 0.114324 17.436 0.186381 17.5462 0.284769L18.7177 1.45889C18.8192 1.55886 18.8916 1.67318 18.935 1.80186C18.9783 1.93034 19 2.05891 19 2.18759C19 2.3232 18.9744 2.45484 18.9231 2.58253C18.872 2.71021 18.8036 2.82375 18.7177 2.92312L3.13233 18.4694C2.97954 18.6323 2.79389 18.7615 2.57539 18.8569C2.35669 18.9523 2.12721 19 1.88694 19H0.867765ZM15.0421 3.97431L14.4442 3.37299L15.6278 4.55691L15.0421 3.97431Z" fill="white" fill-opacity="0.3"/>
</svg>
