<svg width="32" height="32" viewBox="0 0 32 32" fill="none" xmlns="http://www.w3.org/2000/svg">
<mask id="mask0_1340_1684" style="mask-type:alpha" maskUnits="userSpaceOnUse" x="0" y="0" width="32" height="32">
<rect width="32" height="32" fill="#D9D9D9"/>
</mask>
<g mask="url(#mask0_1340_1684)">
<path d="M6.9635 27C6.41312 27 5.94828 26.8108 5.56897 26.4324C5.18966 26.0541 5 25.5904 5 25.0414V7.51602C5 6.967 5.18966 6.5033 5.56897 6.12493C5.94828 5.74656 6.41312 5.55737 6.9635 5.55737H17.359C17.5487 5.55737 17.6909 5.61712 17.7856 5.73662C17.8803 5.85589 17.9277 5.98376 17.9277 6.12024C17.9277 6.25671 17.8771 6.38604 17.7759 6.50822C17.6747 6.63039 17.5349 6.69148 17.3567 6.69148H6.9635C6.75683 6.69148 6.5674 6.77737 6.39521 6.94913C6.22302 7.12089 6.13692 7.30986 6.13692 7.51602V25.0414C6.13692 25.2475 6.22302 25.4365 6.39521 25.6082C6.5674 25.78 6.75683 25.8659 6.9635 25.8659H24.5322C24.7389 25.8659 24.9283 25.78 25.1005 25.6082C25.2727 25.4365 25.3588 25.2475 25.3588 25.0414V14.5097C25.3588 14.3207 25.4187 14.179 25.5385 14.0845C25.6583 13.99 25.7866 13.9428 25.9234 13.9428C26.06 13.9428 26.1895 13.99 26.312 14.0845C26.4345 14.179 26.4957 14.3207 26.4957 14.5097V25.0414C26.4957 25.5904 26.3061 26.0541 25.9268 26.4324C25.5475 26.8108 25.0826 27 24.5322 27H6.9635ZM13.0609 17.9797V16.2777C13.0609 16.0076 13.1149 15.749 13.2228 15.5017C13.3307 15.2545 13.4768 15.0389 13.6611 14.8551L25.2409 3.30388C25.3558 3.1893 25.4824 3.11001 25.6208 3.066C25.7592 3.022 25.9062 3 26.0618 3C26.2017 3 26.3407 3.02289 26.4786 3.06868C26.6165 3.11447 26.7414 3.19176 26.8531 3.30053L28.6238 5.02298C28.7541 5.14828 28.8494 5.288 28.9097 5.44212C28.9699 5.59623 29 5.75113 29 5.90682C29 6.06272 28.9763 6.21081 28.9288 6.35108C28.8813 6.49135 28.7969 6.62314 28.6755 6.74643L17.0457 18.3747C16.8614 18.5471 16.6453 18.6876 16.3974 18.7962C16.1496 18.9047 15.8903 18.959 15.6196 18.959H14.0427C13.7603 18.959 13.5261 18.8662 13.34 18.6806C13.1539 18.495 13.0609 18.2613 13.0609 17.9797ZM14.1978 17.8249H15.9702L25.1368 8.68096L24.2565 7.79109L23.2791 6.86671L14.1978 15.9205V17.8249Z" fill="white" fill-opacity="0.3"/>
</g>
</svg>
