<svg width="28" height="28" viewBox="0 0 28 28" fill="none" xmlns="http://www.w3.org/2000/svg">
<mask id="mask0_2833_7393" style="mask-type:alpha" maskUnits="userSpaceOnUse" x="0" y="0" width="28" height="28">
<rect width="28" height="28" fill="#D9D9D9"/>
</mask>
<g mask="url(#mask0_2833_7393)">
<path d="M22.2806 20.7539H10.0632C9.58147 20.7539 9.17441 20.5916 8.84206 20.2669C8.5099 19.942 8.34382 19.5441 8.34382 19.0732V3.68073C8.34382 3.20961 8.5099 2.81171 8.84206 2.48703C9.17441 2.16234 9.58147 2 10.0632 2H18.0641C18.3012 2 18.5282 2.04619 18.7453 2.13858C18.9624 2.23096 19.1466 2.35113 19.2979 2.4991L23.4894 6.59626C23.6408 6.74423 23.7637 6.9243 23.8582 7.13647C23.9527 7.34865 24 7.5706 24 7.80233V19.0732C24 19.5441 23.8339 19.942 23.5018 20.2669C23.1696 20.5916 22.7625 20.7539 22.2806 20.7539ZM23.0044 7.54961H19.2324C18.9645 7.54961 18.7379 7.46183 18.5526 7.28626C18.3672 7.1107 18.2744 6.89124 18.2744 6.62789V2.97319H10.0632C9.88225 2.97319 9.71637 3.04688 9.56559 3.19427C9.4148 3.34167 9.33941 3.50382 9.33941 3.68073V19.0732C9.33941 19.2501 9.4148 19.4122 9.56559 19.5596C9.71637 19.707 9.88225 19.7807 10.0632 19.7807H22.2806C22.4616 19.7807 22.6275 19.707 22.7782 19.5596C22.929 19.4122 23.0044 19.2501 23.0044 19.0732V7.54961ZM5.71941 25C5.23745 25 4.83039 24.8377 4.49824 24.513C4.16608 24.1883 4 23.7904 4 23.3193V9.03714C4 8.89856 4.04784 8.7828 4.14353 8.68984C4.23922 8.59707 4.35853 8.55069 4.50147 8.55069C4.64422 8.55069 4.76225 8.59707 4.85559 8.68984C4.94892 8.7828 4.99559 8.89856 4.99559 9.03714V23.3193C4.99559 23.4962 5.07098 23.6583 5.22176 23.8057C5.37255 23.9531 5.53843 24.0268 5.71941 24.0268H16.7812C16.9231 24.0268 17.0416 24.0737 17.1365 24.1674C17.2316 24.2609 17.2791 24.3775 17.2791 24.517C17.2791 24.6567 17.2316 24.7721 17.1365 24.8631C17.0416 24.9544 16.9231 25 16.7812 25H5.71941Z" fill="white" fill-opacity="0.3"/>
</g>
</svg>
