<svg width="20" height="23" viewBox="0 0 20 23" fill="none" xmlns="http://www.w3.org/2000/svg">
<path d="M18.2806 18.7539H6.06323C5.58147 18.7539 5.17441 18.5916 4.84206 18.2669C4.5099 17.942 4.34382 17.5441 4.34382 17.0732V1.68073C4.34382 1.20961 4.5099 0.811708 4.84206 0.487025C5.17441 0.162342 5.58147 0 6.06323 0H14.0641C14.3012 0 14.5282 0.0461919 14.7453 0.138575C14.9624 0.230959 15.1466 0.351133 15.2979 0.4991L19.4894 4.59626C19.6408 4.74423 19.7637 4.9243 19.8582 5.13647C19.9527 5.34865 20 5.5706 20 5.80233V17.0732C20 17.5441 19.8339 17.942 19.5018 18.2669C19.1696 18.5916 18.7625 18.7539 18.2806 18.7539ZM19.0044 5.54961H15.2324C14.9645 5.54961 14.7379 5.46183 14.5526 5.28626C14.3672 5.1107 14.2744 4.89124 14.2744 4.62789V0.973187H6.06323C5.88225 0.973187 5.71637 1.04688 5.56559 1.19427C5.4148 1.34167 5.33941 1.50382 5.33941 1.68073V17.0732C5.33941 17.2501 5.4148 17.4122 5.56559 17.5596C5.71637 17.707 5.88225 17.7807 6.06323 17.7807H18.2806C18.4616 17.7807 18.6275 17.707 18.7782 17.5596C18.929 17.4122 19.0044 17.2501 19.0044 17.0732V5.54961ZM1.71941 23C1.23745 23 0.830392 22.8377 0.498235 22.513C0.166079 22.1883 0 21.7904 0 21.3193V7.03714C0 6.89856 0.0478431 6.7828 0.143529 6.68984C0.239216 6.59707 0.358529 6.55069 0.501471 6.55069C0.644216 6.55069 0.762255 6.59707 0.855588 6.68984C0.948921 6.7828 0.995588 6.89856 0.995588 7.03714V21.3193C0.995588 21.4962 1.07098 21.6583 1.22176 21.8057C1.37255 21.9531 1.53843 22.0268 1.71941 22.0268H12.7812C12.9231 22.0268 13.0416 22.0737 13.1365 22.1674C13.2316 22.2609 13.2791 22.3775 13.2791 22.517C13.2791 22.6567 13.2316 22.7721 13.1365 22.8631C13.0416 22.9544 12.9231 23 12.7812 23H1.71941Z" fill="white" fill-opacity="0.3"/>
</svg>
