<svg width="30" height="24" viewBox="0 0 30 24" fill="none" xmlns="http://www.w3.org/2000/svg">
<path d="M2.43583 23.3333C1.75306 23.3333 1.17639 23.0978 0.705833 22.6267C0.235278 22.1556 0 21.5792 0 20.8975V2.43583C0 1.75417 0.235278 1.17778 0.705833 0.706668C1.17639 0.235556 1.75306 0 2.43583 0H10.2533C10.5892 0 10.9072 0.0669447 11.2075 0.200834C11.5081 0.334723 11.7733 0.509722 12.0033 0.725833L14.3333 3.07708H27.5642C28.2458 3.07708 28.8222 3.31264 29.2933 3.78375C29.7644 4.25486 30 4.83125 30 5.51292V20.8975C30 21.5792 29.7644 22.1556 29.2933 22.6267C28.8222 23.0978 28.2458 23.3333 27.5642 23.3333H2.43583ZM2.43583 21.9229H27.5642C27.8633 21.9229 28.109 21.8268 28.3013 21.6346C28.4935 21.4424 28.5896 21.1967 28.5896 20.8975V5.51292C28.5896 5.21375 28.4935 4.96792 28.3013 4.77542C28.109 4.58319 27.8633 4.48708 27.5642 4.48708H13.7788L10.9904 1.69875C10.8835 1.59181 10.7713 1.51694 10.6538 1.47417C10.5363 1.43167 10.4135 1.41042 10.2854 1.41042H2.43583C2.13667 1.41042 1.89097 1.50653 1.69875 1.69875C1.50653 1.89097 1.41042 2.13667 1.41042 2.43583V20.8975C1.41042 21.1967 1.50653 21.4424 1.69875 21.6346C1.89097 21.8268 2.13667 21.9229 2.43583 21.9229Z" fill="white" fill-opacity="0.3"/>
</svg>
