<svg width="33" height="24" viewBox="0 0 33 24" fill="none" xmlns="http://www.w3.org/2000/svg">
<path d="M2.24375 23.3333C1.62625 23.3333 1.09792 23.1138 0.65875 22.6746C0.219583 22.2354 0 21.7071 0 21.0896V2.43583C0 1.81833 0.251666 1.25806 0.755 0.755C1.25806 0.251666 1.81833 0 2.43583 0H10.2533C10.5892 0 10.9072 0.0669447 11.2075 0.200834C11.5081 0.334723 11.7733 0.509722 12.0033 0.725833L14.3333 3.07708H29.0063C29.2071 3.07708 29.3749 3.14486 29.5096 3.28042C29.6443 3.41597 29.7117 3.58486 29.7117 3.78708C29.7117 3.98958 29.6443 4.15694 29.5096 4.28917C29.3749 4.42111 29.2071 4.48708 29.0063 4.48708H13.7513L10.6742 1.41042H2.43583C2.13667 1.41042 1.89097 1.50653 1.69875 1.69875C1.50653 1.89097 1.41042 2.13667 1.41042 2.43583V21.9229C1.41042 21.6238 1.46917 21.5117 1.58667 21.5867C1.70417 21.6614 1.85903 21.7522 2.05125 21.8592L5.38125 9.96917C5.54792 9.45056 5.84569 9.02695 6.27458 8.69833C6.70319 8.36944 7.19778 8.205 7.75833 8.205H29.8654C30.6751 8.205 31.3317 8.5275 31.835 9.1725C32.3381 9.8175 32.4718 10.531 32.2363 11.3129L29.2829 21.7021C29.1335 22.2235 28.861 22.6257 28.4654 22.9088C28.0696 23.1918 27.5982 23.3333 27.0513 23.3333H2.24375ZM3.52583 21.9229H26.9979C27.2188 21.9229 27.42 21.8589 27.6017 21.7308C27.7831 21.6025 27.9129 21.4208 27.9912 21.1858L30.8121 10.9296C30.9188 10.5876 30.8653 10.2831 30.6517 10.0158C30.4381 9.74889 30.1603 9.61542 29.8183 9.61542H7.72417C7.50361 9.61542 7.29889 9.67945 7.11 9.8075C6.92139 9.93583 6.795 10.1175 6.73083 10.3525L3.52583 21.9229ZM3.52583 21.9229L6.73083 10.3525C6.795 10.1175 6.84833 9.93583 6.89083 9.8075L6.955 9.61542L6.84292 10.0158C6.7682 10.2831 6.67736 10.5876 6.57042 10.9296L3.75 21.1858C3.68583 21.4208 3.63236 21.6025 3.58958 21.7308L3.52583 21.9229Z" fill="white"/>
</svg>
