<svg width="40" height="40" viewBox="0 0 40 40" fill="none" xmlns="http://www.w3.org/2000/svg">
<mask id="mask0_5785_4086" style="mask-type:alpha" maskUnits="userSpaceOnUse" x="0" y="0" width="40" height="40">
<rect width="40" height="40" fill="#D9D9D9"/>
</mask>
<g mask="url(#mask0_5785_4086)">
<path d="M7.43583 31.6663C6.75306 31.6663 6.17639 31.4308 5.70583 30.9597C5.23528 30.4886 5 29.9122 5 29.2305V10.7688C5 10.0872 5.23528 9.51079 5.70583 9.03968C6.17639 8.56856 6.75306 8.33301 7.43583 8.33301H15.2533C15.5892 8.33301 15.9072 8.39995 16.2075 8.53384C16.5081 8.66773 16.7733 8.84273 17.0033 9.05884L19.3333 11.4101H32.5642C33.2458 11.4101 33.8222 11.6456 34.2933 12.1168C34.7644 12.5879 35 13.1643 35 13.8459V29.2305C35 29.9122 34.7644 30.4886 34.2933 30.9597C33.8222 31.4308 33.2458 31.6663 32.5642 31.6663H7.43583ZM7.43583 30.2559H32.5642C32.8633 30.2559 33.109 30.1598 33.3013 29.9676C33.4935 29.7754 33.5896 29.5297 33.5896 29.2305V13.8459C33.5896 13.5468 33.4935 13.3009 33.3013 13.1084C33.109 12.9162 32.8633 12.8201 32.5642 12.8201H18.7788L15.9904 10.0318C15.8835 9.92481 15.7713 9.84995 15.6538 9.80717C15.5363 9.76467 15.4135 9.74342 15.2854 9.74342H7.43583C7.13667 9.74342 6.89097 9.83954 6.69875 10.0318C6.50653 10.224 6.41042 10.4697 6.41042 10.7688V29.2305C6.41042 29.5297 6.50653 29.7754 6.69875 29.9676C6.89097 30.1598 7.13667 30.2559 7.43583 30.2559Z" fill="#989898"/>
</g>
</svg>
