<svg width="40" height="40" viewBox="0 0 40 40" fill="none" xmlns="http://www.w3.org/2000/svg">
<mask id="mask0_5785_4096" style="mask-type:alpha" maskUnits="userSpaceOnUse" x="0" y="0" width="40" height="40">
<rect width="40" height="40" fill="#D9D9D9"/>
</mask>
<g mask="url(#mask0_5785_4096)">
<path d="M7.24375 31.6663C6.62625 31.6663 6.09792 31.4468 5.65875 31.0076C5.21958 30.5684 5 30.0401 5 29.4226V10.7688C5 10.1513 5.25167 9.59106 5.755 9.08801C6.25806 8.58467 6.81833 8.33301 7.43583 8.33301H15.2533C15.5892 8.33301 15.9072 8.39995 16.2075 8.53384C16.5081 8.66773 16.7733 8.84273 17.0033 9.05884L19.3333 11.4101H34.0063C34.2071 11.4101 34.3749 11.4779 34.5096 11.6134C34.6443 11.749 34.7117 11.9179 34.7117 12.1201C34.7117 12.3226 34.6443 12.49 34.5096 12.6222C34.3749 12.7541 34.2071 12.8201 34.0063 12.8201H18.7513L15.6742 9.74342H7.43583C7.13667 9.74342 6.89097 9.83954 6.69875 10.0318C6.50653 10.224 6.41042 10.4697 6.41042 10.7688V30.2559C6.41042 29.9568 6.46917 29.8447 6.58667 29.9197C6.70417 29.9944 6.85903 30.0852 7.05125 30.1922L10.3812 18.3022C10.5479 17.7836 10.8457 17.36 11.2746 17.0313C11.7032 16.7025 12.1978 16.538 12.7583 16.538H34.8654C35.6751 16.538 36.3317 16.8605 36.835 17.5055C37.3381 18.1505 37.4718 18.864 37.2363 19.6459L34.2829 30.0351C34.1335 30.5565 33.861 30.9587 33.4654 31.2418C33.0696 31.5248 32.5982 31.6663 32.0513 31.6663H7.24375ZM8.52583 30.2559H31.9979C32.2188 30.2559 32.42 30.1919 32.6017 30.0638C32.7831 29.9355 32.9129 29.7538 32.9912 29.5188L35.8121 19.2626C35.9188 18.9206 35.8653 18.6161 35.6517 18.3488C35.4381 18.0819 35.1603 17.9484 34.8183 17.9484H12.7242C12.5036 17.9484 12.2989 18.0125 12.11 18.1405C11.9214 18.2688 11.795 18.4505 11.7308 18.6855L8.52583 30.2559ZM8.52583 30.2559L11.7308 18.6855C11.795 18.4505 11.8483 18.2688 11.8908 18.1405L11.955 17.9484L11.8429 18.3488C11.7682 18.6161 11.6774 18.9206 11.5704 19.2626L8.75 29.5188C8.68583 29.7538 8.63236 29.9355 8.58958 30.0638L8.52583 30.2559Z" fill="#1B1B1D"/>
</g>
</svg>
