<svg width="32" height="32" viewBox="0 0 32 32" fill="none" xmlns="http://www.w3.org/2000/svg">
<mask id="mask0_1614_5658" style="mask-type:alpha" maskUnits="userSpaceOnUse" x="0" y="0" width="32" height="32">
<rect width="32" height="32" fill="#D9D9D9"/>
</mask>
<g mask="url(#mask0_1614_5658)">
<path d="M8.60145 24.3388C8.43278 24.3388 8.28378 24.2766 8.15445 24.1521C8.02512 24.0275 7.96045 23.8742 7.96045 23.6925C7.96045 23.5222 8.02512 23.3738 8.15445 23.2471C8.28378 23.1202 8.43278 23.0568 8.60145 23.0568H12.5364L17.3774 8.8738H13.1774C13.0088 8.8738 12.8598 8.80869 12.7304 8.67846C12.6011 8.54824 12.5364 8.39802 12.5364 8.2278C12.5364 8.04602 12.6011 7.89458 12.7304 7.77346C12.8598 7.65235 13.0088 7.5918 13.1774 7.5918H22.7675C22.9475 7.5918 23.0992 7.65413 23.2228 7.7788C23.3466 7.90346 23.4085 8.05658 23.4085 8.23813C23.4085 8.40835 23.3466 8.55691 23.2228 8.6838C23.0992 8.81046 22.9475 8.8738 22.7675 8.8738H18.7811L13.9571 23.0568H18.1911C18.3713 23.0568 18.5232 23.122 18.6468 23.2525C18.7703 23.3827 18.8321 23.5329 18.8321 23.7031C18.8321 23.8849 18.7703 24.0364 18.6468 24.1575C18.5232 24.2784 18.3713 24.3388 18.1911 24.3388H8.60145Z" fill="white" fill-opacity="0.3"/>
</g>
</svg>
