<svg width="32" height="32" viewBox="0 0 32 32" fill="none" xmlns="http://www.w3.org/2000/svg">
<mask id="mask0_1614_5655" style="mask-type:alpha" maskUnits="userSpaceOnUse" x="0" y="0" width="32" height="32">
<rect width="32" height="32" fill="#D9D9D9"/>
</mask>
<g mask="url(#mask0_1614_5655)">
<path d="M11.7148 24.3337C11.3848 24.3337 11.1057 24.2195 10.8775 23.9913C10.6493 23.7631 10.5352 23.4841 10.5352 23.1543V8.84633C10.5352 8.51655 10.6493 8.23755 10.8775 8.00933C11.1057 7.7811 11.3848 7.66699 11.7148 7.66699H16.2028C17.4797 7.66699 18.5828 8.07777 19.5122 8.89932C20.4415 9.7211 20.9062 10.7465 20.9062 11.9757C20.9062 12.7568 20.6896 13.4833 20.2565 14.1553C19.8236 14.8275 19.2196 15.3283 18.4445 15.6577V15.7227C19.3865 15.9715 20.1254 16.4781 20.6612 17.2423C21.1972 18.0063 21.4652 18.8528 21.4652 19.7817C21.4652 21.0608 20.9752 22.1392 19.9952 23.017C19.0149 23.8948 17.8379 24.3337 16.4642 24.3337H11.7148ZM11.8678 23.127H16.3602C17.3242 23.127 18.1849 22.8125 18.9425 22.1837C19.7 21.555 20.0788 20.736 20.0788 19.7267C20.0788 18.7324 19.7029 17.921 18.9512 17.2923C18.1992 16.6634 17.3386 16.349 16.3695 16.349H11.8678V23.127ZM11.8678 15.173H16.1285C17.0338 15.173 17.8293 14.877 18.5148 14.285C19.2002 13.693 19.5428 12.9374 19.5428 12.0183C19.5428 11.1168 19.2013 10.3652 18.5182 9.76366C17.835 9.16188 17.0402 8.86099 16.1335 8.86099H11.8678V15.173Z" fill="white" fill-opacity="0.3"/>
</g>
</svg>
