<svg width="28" height="28" viewBox="0 0 28 28" fill="none" xmlns="http://www.w3.org/2000/svg">
<path d="M15.0306 23C14.3367 23 13.8367 22.5092 13.8367 21.8517V18.1025H13.5408C9.58164 18.1025 7.09182 19.0644 5.30609 22.2737C4.949 22.9018 4.47958 23 4.05099 23C3.51017 23 3 22.5289 3 21.6849C3 14.4318 6.19382 9.90731 13.5408 9.90731H13.8367V6.19738C13.8367 5.5398 14.3367 5 15.051 5C15.551 5 15.8878 5.20611 16.4286 5.69684L24.4796 12.94C24.8776 13.3032 25 13.6663 25 14C25 14.3239 24.8673 14.6968 24.4796 15.0502L16.4286 22.3621C15.9388 22.8037 15.5306 23 15.0306 23ZM15.0306 21.7503C15.1905 21.7503 15.4218 21.7503 15.8571 21.3315L22.8775 15.0502C22.9592 14.9716 23.7483 14.4188 23.7483 14C23.7483 13.5812 22.9592 13.0088 22.8775 12.94L15.7789 6.68815C15.7279 6.6489 15.2517 6.21048 15.051 6.26937C14.8503 6.32825 14.8299 6.32825 14.8299 7.19192V10.5387C14.8299 10.7644 14.7177 10.8626 14.483 10.8626H13.8367C6.83669 10.8626 4.30612 15.4427 4.10202 20.0752C4.09408 20.2555 4.02889 21.6799 4.10202 21.7503C4.2925 21.9335 4.68361 20.8702 4.71427 20.8015C5.91834 18.3381 9.03732 16.928 13.8843 16.928H14.602C14.7551 16.928 14.8299 17.0098 14.8299 17.1701V20.7427C14.8299 20.8309 14.8299 21.7503 15.0306 21.7503Z" fill="white" fill-opacity="0.3"/>
</svg>
