<svg width="36" height="36" viewBox="0 0 36 36" fill="none" xmlns="http://www.w3.org/2000/svg">
<mask id="mask0_1811_5457" style="mask-type:alpha" maskUnits="userSpaceOnUse" x="0" y="0" width="36" height="36">
<rect width="36" height="36" fill="#D9D9D9"/>
</mask>
<g mask="url(#mask0_1811_5457)">
<path d="M4 25.6863C4 24.9731 4.1795 24.3611 4.5385 23.8505C4.89751 23.3401 5.39665 22.934 6.03592 22.6323C7.40459 21.997 8.70405 21.4978 9.93432 21.1347C11.1646 20.7718 12.6558 20.5904 14.408 20.5904C16.1602 20.5904 17.6473 20.7718 18.8694 21.1347C20.0915 21.4978 21.3932 21.997 22.7745 22.6323C23.4011 22.934 23.895 23.3401 24.2559 23.8505C24.6169 24.3611 24.7974 24.9731 24.7974 25.6863V26.6473C24.7974 26.9625 24.6716 27.2667 24.4201 27.56C24.1688 27.8533 23.8565 28 23.4831 28H5.31395C4.95049 28 4.64063 27.868 4.38438 27.604C4.12813 27.3403 4 27.0214 4 26.6473V25.6863ZM30.6861 28H27.3113C27.364 27.7816 27.4153 27.5627 27.465 27.3433C27.5148 27.1237 27.5397 26.8916 27.5397 26.6473V25.7223C27.5397 24.6834 27.3475 23.7777 26.9629 23.0054C26.5782 22.233 26.022 21.5776 25.2943 21.0391C26.1557 21.2129 26.9867 21.4313 27.7874 21.6943C28.5879 21.9573 29.3169 22.2566 29.9745 22.5922C30.5808 22.9211 31.0701 23.3589 31.4422 23.9055C31.8141 24.4519 32 25.0574 32 25.7223V26.6473C32 27.0214 31.8719 27.3403 31.6156 27.604C31.3594 27.868 31.0495 28 30.6861 28ZM14.408 16.9385C13.1762 16.9385 12.1429 16.509 11.3081 15.65C10.4734 14.791 10.0561 13.7275 10.0561 12.4595C10.0561 11.1915 10.4734 10.1313 11.3081 9.27896C12.1429 8.42632 13.1762 8 14.408 8C15.64 8 16.6701 8.42632 17.4983 9.27896C18.3267 10.1313 18.7409 11.1915 18.7409 12.4595C18.7409 13.7275 18.3267 14.791 17.4983 15.65C16.6701 16.509 15.64 16.9385 14.408 16.9385ZM24.7402 12.4595C24.7402 13.7275 24.326 14.791 23.4976 15.65C22.6694 16.509 21.6371 16.9385 20.4006 16.9385C20.336 16.9385 20.2712 16.9332 20.2064 16.9225C20.1415 16.9115 20.0778 16.8953 20.0151 16.8739C20.4942 16.2932 20.8587 15.6276 21.1085 14.8771C21.3583 14.127 21.4832 13.3231 21.4832 12.4656C21.4832 11.6082 21.3489 10.8188 21.0802 10.0977C20.8114 9.3763 20.4563 8.6921 20.0151 8.0451C20.0708 8.03669 20.1346 8.02714 20.2064 8.01644C20.2782 8.00548 20.3419 8 20.3976 8C21.6361 8 22.6694 8.42632 23.4976 9.27896C24.326 10.1313 24.7402 11.1915 24.7402 12.4595ZM5.25676 26.7061H23.5403V25.6867C23.5403 25.2953 23.4391 24.9438 23.2369 24.6321C23.0348 24.3205 22.6922 24.0337 22.2089 23.7717C20.9558 23.1163 19.7392 22.6379 18.5589 22.3364C17.3787 22.035 15.995 21.8843 14.408 21.8843C12.821 21.8843 11.4364 22.035 10.2545 22.3364C9.07222 22.6379 7.85458 23.1163 6.60153 23.7717C6.11824 24.0337 5.77335 24.3205 5.56686 24.6321C5.36013 24.9438 5.25676 25.2953 5.25676 25.6867V26.7061ZM14.3987 15.6447C15.2638 15.6447 15.9943 15.3381 16.5902 14.725C17.1859 14.1119 17.4838 13.3601 17.4838 12.4695C17.4838 11.5789 17.1859 10.8269 16.5902 10.2135C15.9943 9.60041 15.2638 9.29386 14.3987 9.29386C13.5334 9.29386 12.8028 9.60041 12.2068 10.2135C11.6111 10.8269 11.3133 11.5789 11.3133 12.4695C11.3133 13.3601 11.6111 14.1119 12.2068 14.725C12.8028 15.3381 13.5334 15.6447 14.3987 15.6447Z" fill="white"/>
</g>
</svg>
