<svg width="32" height="22" viewBox="0 0 32 22" fill="none" xmlns="http://www.w3.org/2000/svg">
<path d="M0 19.2796C0 18.5021 0.201389 17.835 0.604167 17.2783C1.00694 16.7219 1.56694 16.2793 2.28417 15.9504C3.81972 15.2579 5.27764 14.7137 6.65792 14.3179C8.03819 13.9224 9.71125 13.7246 11.6771 13.7246C13.6429 13.7246 15.3114 13.9224 16.6825 14.3179C18.0536 14.7137 19.514 15.2579 21.0638 15.9504C21.7668 16.2793 22.3208 16.7219 22.7258 17.2783C23.1308 17.835 23.3333 18.5021 23.3333 19.2796V20.3271C23.3333 20.6707 23.1922 21.0024 22.91 21.3221C22.6281 21.6418 22.2776 21.8017 21.8587 21.8017H1.47417C1.06639 21.8017 0.71875 21.6578 0.43125 21.37C0.14375 21.0825 0 20.7349 0 20.3271V19.2796ZM29.94 21.8017H26.1537C26.2129 21.5636 26.2704 21.325 26.3262 21.0858C26.3821 20.8464 26.41 20.5935 26.41 20.3271V19.3188C26.41 18.1863 26.1943 17.199 25.7629 16.3571C25.3313 15.5151 24.7072 14.8007 23.8908 14.2138C24.8572 14.4032 25.7896 14.6412 26.6879 14.9279C27.586 15.2146 28.4039 15.5408 29.1417 15.9067C29.8219 16.2653 30.3708 16.7425 30.7883 17.3383C31.2056 17.9339 31.4142 18.594 31.4142 19.3188V20.3271C31.4142 20.7349 31.2704 21.0825 30.9829 21.37C30.6954 21.6578 30.3478 21.8017 29.94 21.8017ZM11.6771 9.74375C10.2951 9.74375 9.13583 9.27556 8.19917 8.33917C7.26278 7.40278 6.79458 6.24347 6.79458 4.86125C6.79458 3.47903 7.26278 2.32333 8.19917 1.39417C9.13583 0.464723 10.2951 0 11.6771 0C13.0593 0 14.215 0.464723 15.1442 1.39417C16.0736 2.32333 16.5383 3.47903 16.5383 4.86125C16.5383 6.24347 16.0736 7.40278 15.1442 8.33917C14.215 9.27556 13.0593 9.74375 11.6771 9.74375ZM23.2692 4.86125C23.2692 6.24347 22.8044 7.40278 21.875 8.33917C20.9458 9.27556 19.7876 9.74375 18.4004 9.74375C18.3279 9.74375 18.2553 9.73792 18.1825 9.72625C18.1097 9.7143 18.0382 9.69667 17.9679 9.67333C18.5054 9.04028 18.9143 8.31472 19.1946 7.49667C19.4749 6.67889 19.615 5.80264 19.615 4.86792C19.615 3.9332 19.4643 3.07278 19.1629 2.28667C18.8613 1.50028 18.4629 0.754444 17.9679 0.0491664C18.0304 0.0399997 18.1019 0.029583 18.1825 0.0179164C18.2631 0.00597192 18.3346 0 18.3971 0C19.7865 0 20.9458 0.464723 21.875 1.39417C22.8044 2.32333 23.2692 3.47903 23.2692 4.86125ZM1.41 20.3913H21.9229V19.28C21.9229 18.8533 21.8094 18.4701 21.5825 18.1304C21.3558 17.7907 20.9714 17.4781 20.4292 17.1925C19.0233 16.4781 17.6583 15.9565 16.3342 15.6279C15.01 15.2993 13.4576 15.135 11.6771 15.135C9.89653 15.135 8.34319 15.2993 7.01708 15.6279C5.69069 15.9565 4.32458 16.4781 2.91875 17.1925C2.37653 17.4781 1.98958 17.7907 1.75792 18.1304C1.52597 18.4701 1.41 18.8533 1.41 19.28V20.3913ZM11.6667 8.33333C12.6372 8.33333 13.4568 7.99917 14.1254 7.33083C14.7938 6.6625 15.1279 5.84292 15.1279 4.87208C15.1279 3.90125 14.7938 3.08153 14.1254 2.41292C13.4568 1.74458 12.6372 1.41042 11.6667 1.41042C10.6958 1.41042 9.87611 1.74458 9.2075 2.41292C8.53917 3.08153 8.205 3.90125 8.205 4.87208C8.205 5.84292 8.53917 6.6625 9.2075 7.33083C9.87611 7.99917 10.6958 8.33333 11.6667 8.33333Z" fill="white" fill-opacity="0.3"/>
</svg>
