<svg width="32" height="32" viewBox="0 0 32 32" fill="none" xmlns="http://www.w3.org/2000/svg">
<mask id="mask0_3368_16334" style="mask-type:alpha" maskUnits="userSpaceOnUse" x="0" y="0" width="32" height="32">
<rect width="32" height="32" fill="#D9D9D9"/>
</mask>
<g mask="url(#mask0_3368_16334)">
<path d="M15.602 26.7949C15.7911 26.7949 15.9842 26.7547 16.1813 26.6742C16.3785 26.594 16.5369 26.4884 16.6567 26.3572L27.149 15.8596C27.4875 15.5211 27.7522 15.1714 27.9433 14.8102C28.1345 14.4489 28.23 14.0497 28.23 13.6126C28.23 13.1739 28.1345 12.7479 27.9433 12.3346C27.7522 11.9212 27.4875 11.5461 27.149 11.2092L22.0463 6.10658C21.7097 5.76814 21.3602 5.51625 20.998 5.35092C20.636 5.18536 20.2356 5.10258 19.7967 5.10258C19.3598 5.10258 18.9565 5.18536 18.5867 5.35092C18.2167 5.51625 17.871 5.76814 17.5497 6.10658L16.318 7.33825L18.855 9.88291C19.1017 10.1314 19.3008 10.425 19.4523 10.7639C19.6039 11.103 19.6797 11.4526 19.6797 11.8126C19.6797 12.4817 19.4482 13.044 18.9853 13.4996C18.5222 13.9551 17.9619 14.1829 17.3043 14.1829C16.9226 14.1829 16.5751 14.127 16.262 14.0152C15.9489 13.9037 15.6625 13.7237 15.4027 13.4752L13.4687 11.5262C13.3147 11.3725 13.118 11.2956 12.8787 11.2956C12.6396 11.2956 12.443 11.3725 12.289 11.5262L7.05734 16.7579C6.91556 16.8999 6.80723 17.0659 6.73234 17.2559C6.65745 17.4459 6.62001 17.6315 6.62001 17.8126C6.62001 18.167 6.73079 18.4527 6.95234 18.6696C7.1739 18.8865 7.45623 18.9949 7.79934 18.9949C7.99201 18.9949 8.18512 18.951 8.37867 18.8632C8.57245 18.7755 8.72923 18.6717 8.84901 18.5519L12.7003 14.7009C12.8068 14.5942 12.9359 14.5362 13.0877 14.5269C13.2397 14.5174 13.3783 14.5754 13.5037 14.7009C13.6272 14.8245 13.689 14.9584 13.689 15.1026C13.689 15.2466 13.6272 15.3805 13.5037 15.5042L9.66001 19.3332C9.51823 19.4866 9.40979 19.6562 9.33467 19.8422C9.25979 20.0282 9.22234 20.2176 9.22234 20.4102C9.22234 20.7327 9.33834 21.0099 9.57034 21.2419C9.80212 21.4737 10.0793 21.5896 10.402 21.5896C10.5945 21.5896 10.7876 21.5495 10.9813 21.4692C11.1751 21.3888 11.3318 21.283 11.4513 21.1519L15.6103 16.9956C15.717 16.8891 15.8462 16.8311 15.998 16.8216C16.1498 16.8122 16.2885 16.8702 16.414 16.9956C16.5376 17.1194 16.5993 17.2532 16.5993 17.3972C16.5993 17.5415 16.5376 17.6754 16.414 17.7989L12.2627 21.9359C12.1413 22.0668 12.038 22.2309 11.9527 22.4282C11.8676 22.6254 11.825 22.8201 11.825 23.0126C11.825 23.3352 11.941 23.6125 12.173 23.8442C12.4048 24.0763 12.6819 24.1922 13.0043 24.1922C13.197 24.1922 13.3847 24.1548 13.5673 24.0799C13.75 24.005 13.9122 23.8966 14.054 23.7546L18.213 19.5982C18.3197 19.4916 18.4489 19.4336 18.6007 19.4242C18.7525 19.4149 18.891 19.4729 19.0163 19.5982C19.1401 19.7218 19.202 19.8557 19.202 19.9999C19.202 20.1441 19.1401 20.278 19.0163 20.4016L14.8573 24.5606C14.7156 24.7026 14.6072 24.8751 14.5323 25.0782C14.4575 25.2814 14.42 25.4689 14.42 25.6409C14.42 25.9874 14.536 26.2662 14.768 26.4776C15.0002 26.6891 15.2782 26.7949 15.602 26.7949ZM15.5993 27.9229C14.9389 27.9229 14.3747 27.6749 13.9067 27.1789C13.4385 26.6829 13.2343 26.0626 13.2943 25.3179C12.5388 25.3379 11.9097 25.1179 11.407 24.6579C10.9046 24.1981 10.6661 23.5506 10.6917 22.7152C9.86767 22.7239 9.21856 22.4914 8.74434 22.0176C8.2699 21.5438 8.05401 20.9088 8.09667 20.1126C7.36979 20.1326 6.7539 19.9378 6.24901 19.5282C5.74412 19.1185 5.49167 18.5449 5.49167 17.8076C5.49167 17.476 5.55623 17.1442 5.68534 16.8122C5.81423 16.4805 6.00123 16.192 6.24634 15.9469L11.5257 10.6846C11.891 10.3079 12.3417 10.1196 12.8777 10.1196C13.4135 10.1196 13.8697 10.3079 14.2463 10.6846L16.112 12.5502C16.2569 12.6967 16.433 12.8188 16.6403 12.9166C16.8477 13.0144 17.0699 13.0632 17.307 13.0632C17.629 13.0632 17.9173 12.942 18.172 12.6996C18.4267 12.4571 18.554 12.1635 18.554 11.8186C18.554 11.6032 18.5069 11.401 18.4127 11.2119C18.3182 11.0228 18.1978 10.8501 18.0513 10.6939L13.4643 6.10658C13.1275 5.76814 12.7738 5.51625 12.4033 5.35092C12.0327 5.18536 11.6279 5.10258 11.189 5.10258C10.7521 5.10258 10.3572 5.18536 10.0043 5.35092C9.65167 5.51625 9.30612 5.76814 8.96767 6.10658L4.80101 10.2759C4.28145 10.7841 3.96323 11.4038 3.84634 12.1349C3.72945 12.866 3.82345 13.56 4.12834 14.2169C4.19612 14.3578 4.20012 14.5031 4.14034 14.6529C4.08056 14.8027 3.98601 14.9107 3.85667 14.9769C3.71579 15.0429 3.56534 15.0465 3.40534 14.9876C3.24512 14.9285 3.13201 14.8286 3.06601 14.6879C2.70712 13.7797 2.59212 12.8579 2.72101 11.9226C2.85012 10.9872 3.27479 10.1595 3.99501 9.43925L8.13101 5.30325C8.57767 4.85836 9.0579 4.52647 9.57168 4.30758C10.0852 4.08869 10.6347 3.97925 11.22 3.97925C11.8051 3.97925 12.3493 4.08869 12.8527 4.30758C13.3562 4.52647 13.8305 4.85836 14.2753 5.30325L15.507 6.53491L16.7387 5.30325C17.1853 4.85836 17.6612 4.52647 18.1663 4.30758C18.6715 4.08869 19.2167 3.97925 19.802 3.97925C20.3871 3.97925 20.9357 4.08869 21.4477 4.30758C21.9597 4.52647 22.4381 4.85836 22.883 5.30325L27.9523 10.3726C28.3975 10.8177 28.743 11.3231 28.989 11.8889C29.2352 12.4547 29.3583 13.0301 29.3583 13.6152C29.3583 14.2004 29.2352 14.7447 28.989 15.2482C28.743 15.7516 28.3975 16.2258 27.9523 16.6709L17.46 27.1606C17.198 27.4341 16.9105 27.6296 16.5973 27.7469C16.2842 27.8643 15.9516 27.9229 15.5993 27.9229Z" fill="white" fill-opacity="0.3"/>
</g>
</svg>
