<svg width="32" height="32" viewBox="0 0 32 32" fill="none" xmlns="http://www.w3.org/2000/svg">
<mask id="mask0_2481_6535" style="mask-type:alpha" maskUnits="userSpaceOnUse" x="0" y="0" width="32" height="32">
<rect width="32" height="32" fill="#D9D9D9"/>
</mask>
<g mask="url(#mask0_2481_6535)">
<path d="M15.602 26.7952C15.7911 26.7952 15.9842 26.7549 16.1813 26.6745C16.3785 26.5943 16.5369 26.4886 16.6567 26.3575L27.149 15.8598C27.4875 15.5214 27.7522 15.1716 27.9433 14.8105C28.1345 14.4492 28.23 14.0499 28.23 13.6128C28.23 13.1742 28.1345 12.7482 27.9433 12.3348C27.7522 11.9215 27.4875 11.5464 27.149 11.2095L22.0463 6.10683C21.7097 5.76838 21.3602 5.51649 20.998 5.35116C20.636 5.1856 20.2356 5.10283 19.7967 5.10283C19.3598 5.10283 18.9565 5.1856 18.5867 5.35116C18.2167 5.51649 17.871 5.76838 17.5497 6.10683L16.318 7.33849L18.855 9.88316C19.1017 10.1316 19.3008 10.4253 19.4523 10.7642C19.6039 11.1033 19.6797 11.4528 19.6797 11.8128C19.6797 12.4819 19.4482 13.0443 18.9853 13.4998C18.5222 13.9554 17.9619 14.1832 17.3043 14.1832C16.9226 14.1832 16.5751 14.1273 16.262 14.0155C15.9489 13.9039 15.6625 13.7239 15.4027 13.4755L13.4687 11.5265C13.3147 11.3727 13.118 11.2958 12.8787 11.2958C12.6396 11.2958 12.443 11.3727 12.289 11.5265L7.05734 16.7582C6.91556 16.9002 6.80723 17.0662 6.73234 17.2562C6.65745 17.4462 6.62001 17.6317 6.62001 17.8128C6.62001 18.1673 6.73079 18.4529 6.95234 18.6698C7.1739 18.8867 7.45623 18.9952 7.79934 18.9952C7.99201 18.9952 8.18512 18.9513 8.37867 18.8635C8.57245 18.7757 8.72923 18.6719 8.84901 18.5522L12.7003 14.7012C12.8068 14.5945 12.9359 14.5365 13.0877 14.5272C13.2397 14.5176 13.3783 14.5756 13.5037 14.7012C13.6272 14.8247 13.689 14.9586 13.689 15.1028C13.689 15.2468 13.6272 15.3807 13.5037 15.5045L9.66001 19.3335C9.51823 19.4868 9.40979 19.6565 9.33467 19.8425C9.25979 20.0285 9.22234 20.2178 9.22234 20.4105C9.22234 20.7329 9.33834 21.0102 9.57034 21.2422C9.80212 21.4739 10.0793 21.5898 10.402 21.5898C10.5945 21.5898 10.7876 21.5497 10.9813 21.4695C11.1751 21.389 11.3318 21.2833 11.4513 21.1522L15.6103 16.9958C15.717 16.8894 15.8462 16.8314 15.998 16.8218C16.1498 16.8125 16.2885 16.8705 16.414 16.9958C16.5376 17.1196 16.5993 17.2535 16.5993 17.3975C16.5993 17.5417 16.5376 17.6756 16.414 17.7992L12.2627 21.9362C12.1413 22.067 12.038 22.2312 11.9527 22.4285C11.8676 22.6256 11.825 22.8204 11.825 23.0128C11.825 23.3355 11.941 23.6127 12.173 23.8445C12.4048 24.0765 12.6819 24.1925 13.0043 24.1925C13.197 24.1925 13.3847 24.1551 13.5673 24.0802C13.75 24.0053 13.9122 23.8968 14.054 23.7548L18.213 19.5985C18.3197 19.4918 18.4489 19.4338 18.6007 19.4245C18.7525 19.4152 18.891 19.4732 19.0163 19.5985C19.1401 19.722 19.202 19.8559 19.202 20.0002C19.202 20.1444 19.1401 20.2783 19.0163 20.4018L14.8573 24.5608C14.7156 24.7028 14.6072 24.8754 14.5323 25.0785C14.4575 25.2816 14.42 25.4692 14.42 25.6412C14.42 25.9876 14.536 26.2665 14.768 26.4778C15.0002 26.6894 15.2782 26.7952 15.602 26.7952ZM15.5993 27.9232C14.9389 27.9232 14.3747 27.6752 13.9067 27.1792C13.4385 26.6832 13.2343 26.0628 13.2943 25.3182C12.5388 25.3382 11.9097 25.1182 11.407 24.6582C10.9046 24.1984 10.6661 23.5508 10.6917 22.7155C9.86767 22.7242 9.21856 22.4916 8.74434 22.0178C8.2699 21.5441 8.05401 20.909 8.09667 20.1128C7.36979 20.1328 6.7539 19.938 6.24901 19.5285C5.74412 19.1187 5.49167 18.5452 5.49167 17.8078C5.49167 17.4763 5.55623 17.1445 5.68534 16.8125C5.81423 16.4807 6.00123 16.1923 6.24634 15.9472L11.5257 10.6848C11.891 10.3082 12.3417 10.1198 12.8777 10.1198C13.4135 10.1198 13.8697 10.3082 14.2463 10.6848L16.112 12.5505C16.2569 12.6969 16.433 12.819 16.6403 12.9168C16.8477 13.0146 17.0699 13.0635 17.307 13.0635C17.629 13.0635 17.9173 12.9423 18.172 12.6998C18.4267 12.4574 18.554 12.1637 18.554 11.8188C18.554 11.6035 18.5069 11.4013 18.4127 11.2122C18.3182 11.023 18.1978 10.8504 18.0513 10.6942L13.4643 6.10683C13.1275 5.76838 12.7738 5.51649 12.4033 5.35116C12.0327 5.1856 11.6279 5.10283 11.189 5.10283C10.7521 5.10283 10.3572 5.1856 10.0043 5.35116C9.65167 5.51649 9.30612 5.76838 8.96767 6.10683L4.80101 10.2762C4.28145 10.7844 3.96323 11.404 3.84634 12.1352C3.72945 12.8663 3.82345 13.5603 4.12834 14.2172C4.19612 14.358 4.20012 14.5034 4.14034 14.6532C4.08056 14.8029 3.98601 14.9109 3.85667 14.9772C3.71579 15.0432 3.56534 15.0467 3.40534 14.9878C3.24512 14.9287 3.13201 14.8288 3.06601 14.6882C2.70712 13.7799 2.59212 12.8582 2.72101 11.9228C2.85012 10.9875 3.27479 10.1597 3.99501 9.43949L8.13101 5.30349C8.57767 4.8586 9.0579 4.52671 9.57168 4.30782C10.0852 4.08894 10.6347 3.97949 11.22 3.97949C11.8051 3.97949 12.3493 4.08894 12.8527 4.30782C13.3562 4.52671 13.8305 4.8586 14.2753 5.30349L15.507 6.53516L16.7387 5.30349C17.1853 4.8586 17.6612 4.52671 18.1663 4.30782C18.6715 4.08894 19.2167 3.97949 19.802 3.97949C20.3871 3.97949 20.9357 4.08894 21.4477 4.30782C21.9597 4.52671 22.4381 4.8586 22.883 5.30349L27.9523 10.3728C28.3975 10.8179 28.743 11.3234 28.989 11.8892C29.2352 12.4549 29.3583 13.0304 29.3583 13.6155C29.3583 14.2006 29.2352 14.7449 28.989 15.2485C28.743 15.7518 28.3975 16.226 27.9523 16.6712L17.46 27.1608C17.198 27.4344 16.9105 27.6298 16.5973 27.7472C16.2842 27.8645 15.9516 27.9232 15.5993 27.9232Z" fill="#707070"/>
</g>
</svg>
