<svg width="24" height="24" viewBox="0 0 24 24" fill="none" xmlns="http://www.w3.org/2000/svg">
<mask id="mask0_3831_14767" style="mask-type:alpha" maskUnits="userSpaceOnUse" x="0" y="0" width="24" height="24">
<rect width="24" height="24" fill="white"/>
</mask>
<g mask="url(#mask0_3831_14767)">
<path d="M5 19.1536V10.2306C5 9.99339 5.04967 9.77331 5.149 9.57031C5.24833 9.36731 5.39525 9.19848 5.58975 9.06381L11.1283 4.86506C11.3766 4.66856 11.6653 4.57031 11.9943 4.57031C12.3233 4.57031 12.6158 4.66856 12.8718 4.86506L18.4103 9.06381C18.6048 9.19848 18.7517 9.36731 18.851 9.57031C18.9503 9.77331 19 9.99339 19 10.2306V19.1536C19 19.3812 18.9158 19.5791 18.7475 19.7473C18.5793 19.9156 18.3814 19.9998 18.1538 19.9998H14.5385C14.3312 19.9998 14.1576 19.9298 14.0178 19.7898C13.8778 19.65 13.8078 19.4764 13.8078 19.2691V14.3461C13.8078 14.1387 13.7378 13.9651 13.5977 13.8251C13.4577 13.6852 13.2842 13.6153 13.077 13.6153H10.923C10.7158 13.6153 10.5423 13.6852 10.4023 13.8251C10.2622 13.9651 10.1923 14.1387 10.1923 14.3461V19.2691C10.1923 19.4764 10.1223 19.65 9.98225 19.7898C9.84242 19.9298 9.66883 19.9998 9.4615 19.9998H5.84625C5.61858 19.9998 5.42067 19.9156 5.2525 19.7473C5.08417 19.5791 5 19.3812 5 19.1536Z" fill="white"/>
</g>
</svg>
