<svg width="36" height="36" viewBox="0 0 36 36" fill="none" xmlns="http://www.w3.org/2000/svg">
<mask id="mask0_5077_23497" style="mask-type:alpha" maskUnits="userSpaceOnUse" x="0" y="0" width="36" height="36">
<rect x="0.5" y="0.5" width="35" height="35" fill="white" stroke="white"/>
</mask>
<g mask="url(#mask0_5077_23497)">
<path d="M17.9912 6.5C18.3769 6.5 18.7081 6.6126 19.0029 6.83887L19.0059 6.84082L27.3135 13.1387L27.3223 13.1455L27.3311 13.1514C27.5558 13.307 27.7175 13.4958 27.8271 13.7197C27.941 13.9524 28 14.2069 28 14.4902V27.875C28 28.0266 27.9612 28.1607 27.873 28.2871L27.7676 28.4121C27.6044 28.5755 27.4327 28.6445 27.2305 28.6445H21.8076C21.6224 28.6445 21.4919 28.5867 21.3809 28.4756H21.3799C21.2687 28.3645 21.2119 28.2332 21.2119 28.0479V20.6641C21.2119 20.2274 21.0586 19.8369 20.75 19.5283L20.6309 19.4199C20.3436 19.1842 19.9971 19.0674 19.6152 19.0674H16.3848C15.9484 19.0674 15.5585 19.2201 15.25 19.5283C14.9414 19.8369 14.7881 20.2274 14.7881 20.6641V28.0479C14.7881 28.2332 14.7313 28.3645 14.6201 28.4756H14.6191C14.5081 28.5867 14.3776 28.6445 14.1924 28.6445H8.76953C8.61779 28.6445 8.48301 28.6059 8.35645 28.5176L8.23242 28.4121C8.06911 28.249 8.00003 28.0772 8 27.875V14.4902C8.00002 14.2069 8.05901 13.9524 8.17285 13.7197C8.28246 13.4958 8.44422 13.307 8.66895 13.1514L8.67773 13.1455L8.68652 13.1387L16.9941 6.84082L17.0029 6.83398C17.2834 6.61218 17.6058 6.50003 17.9912 6.5Z" stroke="white"/>
</g>
</svg>
