<svg width="32" height="32" viewBox="0 0 32 32" fill="none" xmlns="http://www.w3.org/2000/svg">
<mask id="mask0_3368_14874" style="mask-type:alpha" maskUnits="userSpaceOnUse" x="0" y="0" width="32" height="32">
<rect width="32" height="32" fill="#D9D9D9"/>
</mask>
<g mask="url(#mask0_3368_14874)">
<path d="M16.0377 22C16.1988 22 16.3322 21.9459 16.438 21.8377C16.5438 21.7297 16.5967 21.5958 16.5967 21.436V15.2307C16.5967 15.0709 16.5421 14.937 16.433 14.829C16.3239 14.7208 16.1887 14.6667 16.0273 14.6667C15.866 14.6667 15.7326 14.7208 15.627 14.829C15.5212 14.937 15.4683 15.0709 15.4683 15.2307V21.436C15.4683 21.5958 15.5229 21.7297 15.632 21.8377C15.7411 21.9459 15.8763 22 16.0377 22ZM15.998 12.8343C16.2102 12.8343 16.3887 12.7634 16.5333 12.6217C16.678 12.4801 16.7503 12.3047 16.7503 12.0953C16.7503 11.8736 16.6784 11.6911 16.5347 11.548C16.3909 11.4049 16.2128 11.3333 16.0003 11.3333C15.7779 11.3333 15.5971 11.4058 15.458 11.5507C15.3191 11.6953 15.2497 11.8748 15.2497 12.089C15.2497 12.3001 15.3213 12.4771 15.4647 12.62C15.6082 12.7629 15.786 12.8343 15.998 12.8343ZM16.0103 28C14.3434 28 12.783 27.6851 11.329 27.0553C9.875 26.4256 8.60511 25.5672 7.51933 24.4803C6.43378 23.3932 5.57589 22.124 4.94567 20.6727C4.31522 19.2211 4 17.6642 4 16.002C4 14.3396 4.31489 12.7791 4.94467 11.3207C5.57444 9.86222 6.43278 8.59267 7.51967 7.512C8.60678 6.43133 9.876 5.57589 11.3273 4.94567C12.7789 4.31522 14.3358 4 15.998 4C17.6604 4 19.2209 4.31489 20.6793 4.94467C22.1378 5.57445 23.4073 6.42911 24.488 7.50867C25.5687 8.58822 26.4241 9.85778 27.0543 11.3173C27.6848 12.7767 28 14.3341 28 15.9897C28 17.6566 27.6851 19.217 27.0553 20.671C26.4256 22.125 25.5709 23.3934 24.4913 24.4763C23.4118 25.5592 22.1422 26.4172 20.6827 27.0503C19.2233 27.6834 17.6659 28 16.0103 28ZM16.0027 26.8717C19.0289 26.8717 21.597 25.8159 23.707 23.7043C25.8168 21.5926 26.8717 19.0236 26.8717 15.9973C26.8717 12.9711 25.8186 10.403 23.7123 8.293C21.6059 6.18322 19.0351 5.12833 16 5.12833C12.9756 5.12833 10.4074 6.18144 8.29567 8.28767C6.18411 10.3941 5.12833 12.9649 5.12833 16C5.12833 19.0244 6.18411 21.5926 8.29567 23.7043C10.4074 25.8159 12.9764 26.8717 16.0027 26.8717Z" fill="white" fill-opacity="0.3"/>
</g>
</svg>
