<svg width="36" height="36" viewBox="0 0 36 36" fill="none" xmlns="http://www.w3.org/2000/svg">
<mask id="mask0_5905_27746" style="mask-type:alpha" maskUnits="userSpaceOnUse" x="0" y="0" width="36" height="36">
<rect width="36" height="36" fill="white"/>
</mask>
<g mask="url(#mask0_5905_27746)">
<path d="M18.1708 25.0901C18.3536 25.0901 18.505 25.0287 18.625 24.9059C18.7451 24.7833 18.8051 24.6314 18.8051 24.4501V17.4095C18.8051 17.2282 18.7432 17.0763 18.6194 16.9537C18.4956 16.831 18.3421 16.7696 18.1591 16.7696C17.976 16.7696 17.8246 16.831 17.7049 16.9537C17.5849 17.0763 17.5248 17.2282 17.5248 17.4095V24.4501C17.5248 24.6314 17.5867 24.7833 17.7105 24.9059C17.8343 25.0287 17.9878 25.0901 18.1708 25.0901ZM18.1258 14.6906C18.3666 14.6906 18.5691 14.6101 18.7332 14.4493C18.8973 14.2887 18.9794 14.0896 18.9794 13.8521C18.9794 13.6004 18.8979 13.3934 18.7347 13.2311C18.5716 13.0687 18.3695 12.9875 18.1285 12.9875C17.8761 12.9875 17.671 13.0697 17.5131 13.2341C17.3555 13.3982 17.2767 13.6018 17.2767 13.8449C17.2767 14.0844 17.3581 14.2853 17.5207 14.4474C17.6836 14.6095 17.8853 14.6906 18.1258 14.6906ZM18.1398 31.8978C16.2485 31.8978 14.478 31.5405 12.8283 30.8259C11.1786 30.1114 9.73773 29.1375 8.50579 27.9043C7.2741 26.6708 6.30072 25.2308 5.58566 23.5841C4.87035 21.9371 4.5127 20.1706 4.5127 18.2846C4.5127 16.3984 4.86997 14.6279 5.58453 12.9731C6.29908 11.3184 7.27296 9.8779 8.50616 8.65176C9.73962 7.42562 11.1797 6.45502 12.8264 5.73996C14.4734 5.02465 16.2398 4.66699 18.1258 4.66699C20.012 4.66699 21.7826 5.02427 23.4373 5.73883C25.0921 6.45338 26.5326 7.4231 27.7587 8.64798C28.9848 9.87286 29.9554 11.3133 30.6705 12.9694C31.3858 14.6251 31.7435 16.3922 31.7435 18.2707C31.7435 20.1619 31.3862 21.9324 30.6716 23.5822C29.9571 25.2319 28.9874 26.6711 27.7625 27.8998C26.5376 29.1284 25.0971 30.1019 23.4411 30.8203C21.7853 31.5386 20.0182 31.8978 18.1398 31.8978ZM18.1311 30.6175C21.5647 30.6175 24.4785 29.4196 26.8726 27.0238C29.2663 24.6278 30.4632 21.7129 30.4632 18.2794C30.4632 14.8458 29.2684 11.9319 26.8786 9.5379C24.4886 7.14411 21.5718 5.94722 18.1281 5.94722C14.6965 5.94722 11.7827 7.14209 9.38662 9.53185C6.99082 11.9218 5.79292 14.8387 5.79292 18.2824C5.79292 21.714 6.99082 24.6278 9.38662 27.0238C11.7827 29.4196 14.6975 30.6175 18.1311 30.6175Z" fill="white"/>
</g>
</svg>
