<svg width="32" height="32" viewBox="0 0 32 32" fill="none" xmlns="http://www.w3.org/2000/svg">
<g clip-path="url(#clip0_1508_4015)">
<mask id="mask0_1508_4015" style="mask-type:alpha" maskUnits="userSpaceOnUse" x="0" y="0" width="40" height="40">
<rect width="40" height="40" fill="#D9D9D9"/>
</mask>
<g mask="url(#mask0_1508_4015)">
<path d="M19.1297 13.6736H23.2577C23.4177 13.6736 23.5517 13.728 23.6597 13.8369C23.7679 13.946 23.822 14.0813 23.822 14.2426C23.822 14.4039 23.7679 14.5374 23.6597 14.6429C23.5517 14.7487 23.4177 14.8016 23.2577 14.8016H18.162C17.886 14.8016 17.6546 14.7083 17.4677 14.5216C17.281 14.3347 17.1877 14.1033 17.1877 13.8273V8.73159C17.1877 8.57181 17.2422 8.43781 17.3513 8.32959C17.4602 8.22159 17.5953 8.16759 17.7567 8.16759C17.9067 8.16759 18.0373 8.22159 18.1487 8.32959C18.2602 8.43781 18.316 8.57181 18.316 8.73159V12.8699L25.574 5.61192C25.6807 5.50525 25.8111 5.4477 25.9653 5.43925C26.1198 5.43059 26.2589 5.48814 26.3827 5.61192C26.5062 5.73547 26.568 5.87025 26.568 6.01625C26.568 6.16203 26.5062 6.29681 26.3827 6.42059L19.1297 13.6736ZM25.2083 26.6666C23.0255 26.6666 20.759 26.0984 18.409 24.9619C16.0592 23.8255 13.8607 22.2294 11.8133 20.1736C9.76601 18.1176 8.17412 15.9189 7.03767 13.5776C5.90123 11.2363 5.33301 8.97414 5.33301 6.79125C5.33301 6.37481 5.46945 6.0277 5.74234 5.74992C6.01523 5.47214 6.35623 5.33325 6.76534 5.33325H9.82567C10.2026 5.33325 10.5216 5.44825 10.7827 5.67825C11.0436 5.90803 11.2253 6.2107 11.328 6.58625L12.01 9.61759C12.0613 9.97736 12.0459 10.2974 11.9637 10.5776C11.8817 10.858 11.7387 11.0888 11.5347 11.2699L8.58167 14.0256C9.17212 15.0654 9.8039 16.0259 10.477 16.9073C11.1503 17.7884 11.8656 18.6136 12.6227 19.3829C13.4405 20.2154 14.3188 20.9787 15.2577 21.6729C16.1968 22.3674 17.223 23.0194 18.3363 23.6289L21.21 20.6889C21.4305 20.4478 21.6719 20.288 21.9343 20.2096C22.1968 20.1314 22.4881 20.1145 22.8083 20.1589L25.4133 20.7229C25.7905 20.8005 26.0936 20.9835 26.3227 21.2719C26.5518 21.5601 26.6663 21.8906 26.6663 22.2633V25.2343C26.6663 25.6434 26.5275 25.9844 26.2497 26.2573C25.9719 26.5301 25.6248 26.6666 25.2083 26.6666ZM8.03134 13.0016L10.7527 10.4803C10.8267 10.4118 10.8766 10.3178 10.9023 10.1983C10.9279 10.0785 10.9293 9.96736 10.9067 9.86492L10.2493 6.87159C10.2265 6.73492 10.1695 6.63236 10.0783 6.56392C9.98723 6.4957 9.87323 6.46158 9.73634 6.46158H6.82267C6.72023 6.46158 6.63479 6.4957 6.56634 6.56392C6.4979 6.63236 6.46367 6.71792 6.46367 6.82059C6.46767 7.73503 6.60679 8.71047 6.88101 9.74692C7.15501 10.7834 7.53845 11.8683 8.03134 13.0016ZM19.4227 24.1573C20.3305 24.6217 21.3212 24.967 22.395 25.1933C23.4688 25.4193 24.3968 25.5383 25.179 25.5503C25.2817 25.5503 25.3672 25.5161 25.4357 25.4479C25.5039 25.3795 25.538 25.2939 25.538 25.1913V22.3146C25.538 22.1777 25.5039 22.0637 25.4357 21.9726C25.3672 21.8815 25.2647 21.8245 25.128 21.8016L22.5637 21.2693C22.4612 21.2464 22.3716 21.2478 22.2947 21.2736C22.2176 21.2991 22.1363 21.3489 22.051 21.4229L19.4227 24.1573Z" fill="#26C038"/>
</g>
</g>
<defs>
<clipPath id="clip0_1508_4015">
<rect width="32" height="32" rx="12" fill="white"/>
</clipPath>
</defs>
</svg>
