<svg width="36" height="36" viewBox="0 0 36 36" fill="none" xmlns="http://www.w3.org/2000/svg">
<mask id="mask0_5905_27740" style="mask-type:alpha" maskUnits="userSpaceOnUse" x="0" y="0" width="36" height="36">
<rect width="36" height="36" fill="white"/>
</mask>
<g mask="url(#mask0_5905_27740)">
<path d="M18.2306 32.1024C16.3492 32.1024 14.5803 31.7441 12.924 31.0275C11.2677 30.3107 9.82299 29.3389 8.58979 28.1123C7.35659 26.8856 6.38586 25.4432 5.67761 23.7849C4.96936 22.1266 4.61523 20.3503 4.61523 18.456C4.61523 16.5727 4.96936 14.8044 5.67761 13.1509C6.38586 11.4974 7.35659 10.0573 8.58979 8.83063C9.82299 7.60399 11.2677 6.63742 12.924 5.93094C14.5803 5.2247 16.3492 4.87158 18.2306 4.87158C20.1138 4.87158 21.8832 5.2247 23.5387 5.93094C25.194 6.63742 26.6382 7.60399 27.8714 8.83063C29.1046 10.0573 30.0754 11.4974 30.7836 13.1509C31.4919 14.8044 31.846 16.5727 31.846 18.456C31.846 20.3503 31.4919 22.1266 30.7836 23.7849C30.0754 25.4432 29.1046 26.8856 27.8714 28.1123C26.6382 29.3389 25.194 30.3107 23.5387 31.0275C21.8832 31.7441 20.1138 32.1024 18.2306 32.1024ZM18.2306 30.8766C19.1925 29.749 19.9768 28.6014 20.5834 27.4338C21.1898 26.2664 21.6856 24.9308 22.0709 23.4271H14.3964C14.8036 24.9929 15.3071 26.3592 15.9069 27.5261C16.507 28.693 17.2816 29.8098 18.2306 30.8766ZM16.5317 30.6924C15.7725 29.8281 15.0832 28.7475 14.4637 27.4508C13.8439 26.1543 13.3793 24.8131 13.0696 23.4271H6.88825C7.82897 25.4674 9.12054 27.103 10.763 28.3339C12.4054 29.5648 14.3283 30.351 16.5317 30.6924ZM19.9549 30.6864C22.0431 30.3941 23.9358 29.609 25.6332 28.3309C27.3306 27.0528 28.6439 25.4182 29.573 23.4271H23.3977C22.9869 24.8416 22.476 26.1906 21.8648 27.4743C21.2536 28.7579 20.617 29.8286 19.9549 30.6864ZM6.44991 22.1469H12.8234C12.709 21.4731 12.6299 20.8316 12.5863 20.2222C12.5427 19.613 12.5209 19.0243 12.5209 18.456C12.5209 17.8723 12.5435 17.2828 12.5889 16.6875C12.6346 16.0924 12.7146 15.4704 12.8291 14.8214H6.44991C6.26433 15.3733 6.12553 15.9573 6.0335 16.5732C5.94147 17.189 5.89546 17.8165 5.89546 18.456C5.89546 19.1082 5.94147 19.7453 6.0335 20.367C6.12553 20.9885 6.26433 21.5818 6.44991 22.1469ZM14.115 22.1469H22.3519C22.4704 21.4447 22.5524 20.8057 22.5978 20.2301C22.6434 19.6545 22.6662 19.0631 22.6662 18.456C22.6662 17.8657 22.6434 17.2879 22.5978 16.7226C22.5524 16.1571 22.4704 15.5234 22.3519 14.8214H14.115C13.9967 15.5234 13.9148 16.1571 13.8692 16.7226C13.8235 17.2879 13.8007 17.8657 13.8007 18.456C13.8007 19.0631 13.8235 19.6545 13.8692 20.2301C13.9148 20.8057 13.9967 21.4447 14.115 22.1469ZM23.6321 22.1469H30.0113C30.1969 21.5818 30.3357 20.9885 30.4277 20.367C30.5198 19.7453 30.5658 19.1082 30.5658 18.456C30.5658 17.8165 30.5198 17.189 30.4277 16.5732C30.3357 15.9573 30.1969 15.3733 30.0113 14.8214H23.6575C23.7588 15.5518 23.8323 16.2094 23.878 16.7941C23.9236 17.3791 23.9464 17.933 23.9464 18.456C23.9464 19.0281 23.9226 19.6116 23.875 20.2067C23.8276 20.802 23.7466 21.4487 23.6321 22.1469ZM23.3916 13.5412H29.573C28.6451 11.4827 27.3568 9.83061 25.7081 8.5848C24.0591 7.33899 22.1329 6.56153 19.9295 6.25241C20.6887 7.21002 21.3675 8.31741 21.9658 9.57456C22.5641 10.8315 23.0394 12.1537 23.3916 13.5412ZM14.3964 13.5412H22.0963C21.7004 12.0606 21.1831 10.7033 20.5445 9.46904C19.9058 8.23509 19.1345 7.11509 18.2306 6.10907C17.3514 7.0334 16.6066 8.0891 15.9962 9.27616C15.386 10.4632 14.8527 11.8849 14.3964 13.5412ZM6.88825 13.5412H13.0753C13.42 12.1655 13.8873 10.8533 14.4773 9.60444C15.0671 8.35586 15.7434 7.24053 16.5064 6.25846C14.2967 6.58044 12.3751 7.36068 10.7418 8.59917C9.10819 9.83792 7.82367 11.4853 6.88825 13.5412Z" fill="white"/>
</g>
</svg>
