<svg width="32" height="32" viewBox="0 0 32 32" fill="none" xmlns="http://www.w3.org/2000/svg">
<mask id="mask0_3368_14910" style="mask-type:alpha" maskUnits="userSpaceOnUse" x="0" y="0" width="32" height="32">
<rect width="32" height="32" fill="#D9D9D9"/>
</mask>
<g mask="url(#mask0_3368_14910)">
<path d="M16 28C14.3418 28 12.7828 27.6842 11.323 27.0527C9.86322 26.4209 8.58989 25.5644 7.503 24.4833C6.41611 23.4022 5.56056 22.1309 4.93633 20.6693C4.31211 19.2078 4 17.6422 4 15.9727C4 14.3129 4.31211 12.7543 4.93633 11.297C5.56056 9.83967 6.41611 8.57044 7.503 7.48933C8.58989 6.40822 9.86322 5.55633 11.323 4.93367C12.7828 4.31122 14.3418 4 16 4C17.6598 4 19.2192 4.31122 20.6783 4.93367C22.1372 5.55633 23.4101 6.40822 24.497 7.48933C25.5839 8.57044 26.4394 9.83967 27.0637 11.297C27.6879 12.7543 28 14.3129 28 15.9727C28 17.6422 27.6879 19.2078 27.0637 20.6693C26.4394 22.1309 25.5839 23.4022 24.497 24.4833C23.4101 25.5644 22.1372 26.4209 20.6783 27.0527C19.2192 27.6842 17.6598 28 16 28ZM16 26.9197C16.8478 25.9259 17.539 24.9144 18.0737 23.8853C18.6081 22.8564 19.0451 21.6793 19.3847 20.354H12.6207C12.9796 21.734 13.4233 22.9382 13.952 23.9667C14.4809 24.9951 15.1636 25.9794 16 26.9197ZM14.5027 26.7573C13.8336 25.9956 13.226 25.0432 12.68 23.9003C12.1338 22.7577 11.7242 21.5756 11.4513 20.354H6.00333C6.83244 22.1522 7.97078 23.5938 9.41833 24.6787C10.8659 25.7636 12.5607 26.4564 14.5027 26.7573ZM17.5197 26.752C19.3601 26.4944 21.0283 25.8024 22.5243 24.676C24.0203 23.5496 25.1778 22.1089 25.9967 20.354H20.554C20.192 21.6007 19.7417 22.7897 19.203 23.921C18.6643 25.0523 18.1032 25.996 17.5197 26.752ZM5.617 19.2257H11.2343C11.1334 18.6319 11.0638 18.0664 11.0253 17.5293C10.9869 16.9924 10.9677 16.4736 10.9677 15.9727C10.9677 15.4582 10.9877 14.9387 11.0277 14.414C11.0679 13.8896 11.1384 13.3413 11.2393 12.7693H5.617C5.45344 13.2558 5.33111 13.7704 5.25 14.3133C5.16889 14.856 5.12833 15.4091 5.12833 15.9727C5.12833 16.5476 5.16889 17.109 5.25 17.657C5.33111 18.2048 5.45344 18.7277 5.617 19.2257ZM12.3727 19.2257H19.6323C19.7368 18.6068 19.809 18.0437 19.849 17.5363C19.8892 17.029 19.9093 16.5078 19.9093 15.9727C19.9093 15.4524 19.8892 14.9432 19.849 14.445C19.809 13.9466 19.7368 13.388 19.6323 12.7693H12.3727C12.2684 13.388 12.1962 13.9466 12.156 14.445C12.1158 14.9432 12.0957 15.4524 12.0957 15.9727C12.0957 16.5078 12.1158 17.029 12.156 17.5363C12.1962 18.0437 12.2684 18.6068 12.3727 19.2257ZM20.7607 19.2257H26.383C26.5466 18.7277 26.6689 18.2048 26.75 17.657C26.8311 17.109 26.8717 16.5476 26.8717 15.9727C26.8717 15.4091 26.8311 14.856 26.75 14.3133C26.6689 13.7704 26.5466 13.2558 26.383 12.7693H20.783C20.8723 13.4131 20.9371 13.9927 20.9773 14.508C21.0176 15.0236 21.0377 15.5118 21.0377 15.9727C21.0377 16.4769 21.0167 16.9912 20.9747 17.5157C20.9329 18.0403 20.8616 18.6103 20.7607 19.2257ZM20.5487 11.641H25.9967C25.1789 9.82678 24.0434 8.37067 22.5903 7.27267C21.137 6.17467 19.4393 5.48944 17.4973 5.217C18.1664 6.061 18.7647 7.037 19.292 8.145C19.8193 9.25278 20.2382 10.4181 20.5487 11.641ZM12.6207 11.641H19.407C19.0581 10.3361 18.6022 9.13978 18.0393 8.052C17.4764 6.96444 16.7967 5.97733 16 5.09067C15.2251 5.90533 14.5687 6.83578 14.0307 7.882C13.4929 8.92822 13.0229 10.1812 12.6207 11.641ZM6.00333 11.641H11.4563C11.7601 10.4286 12.172 9.272 12.692 8.17133C13.2118 7.07089 13.8079 6.08789 14.4803 5.22233C12.5328 5.50611 10.8392 6.19378 9.39967 7.28533C7.95989 8.37711 6.82778 9.829 6.00333 11.641Z" fill="white" fill-opacity="0.3"/>
</g>
</svg>
