<svg width="40" height="40" viewBox="0 0 40 40" fill="none" xmlns="http://www.w3.org/2000/svg">
<mask id="mask0_3368_16414" style="mask-type:alpha" maskUnits="userSpaceOnUse" x="0" y="0" width="40" height="40">
<rect width="40" height="40" fill="#D9D9D9"/>
</mask>
<g mask="url(#mask0_3368_16414)">
<path d="M11.795 26.795C9.915 26.795 8.3125 26.1326 6.9875 24.8079C5.6625 23.4832 5 21.8811 5 20.0016C5 18.1222 5.6625 16.5195 6.9875 15.1937C8.3125 13.8679 9.915 13.205 11.795 13.205H17.1154C17.3151 13.205 17.4826 13.2732 17.6179 13.4095C17.7529 13.5459 17.8204 13.715 17.8204 13.9166C17.8204 14.1183 17.7529 14.2851 17.6179 14.417C17.4826 14.5493 17.3151 14.6154 17.1154 14.6154H11.7912C10.3004 14.6154 9.03083 15.1388 7.9825 16.1858C6.93444 17.2327 6.41042 18.5019 6.41042 19.9933C6.41042 21.485 6.93444 22.7563 7.9825 23.8075C9.03083 24.8588 10.3004 25.3845 11.7912 25.3845H17.1154C17.3151 25.3845 17.4826 25.4527 17.6179 25.5891C17.7529 25.7255 17.8204 25.8945 17.8204 26.0962C17.8204 26.2976 17.7529 26.4644 17.6179 26.5966C17.4826 26.7288 17.3151 26.795 17.1154 26.795H11.795ZM14.9467 20.705C14.7469 20.705 14.5794 20.6368 14.4442 20.5004C14.3089 20.364 14.2413 20.1951 14.2413 19.9937C14.2413 19.792 14.3089 19.6251 14.4442 19.4929C14.5794 19.3609 14.7469 19.295 14.9467 19.295H25.0746C25.2607 19.295 25.4247 19.3632 25.5667 19.4995C25.7089 19.6359 25.78 19.8048 25.78 20.0062C25.78 20.2079 25.7089 20.3748 25.5667 20.507C25.4247 20.639 25.2607 20.705 25.0746 20.705H14.9467ZM22.8846 26.795C22.6849 26.795 22.5174 26.7268 22.3821 26.5904C22.2471 26.454 22.1796 26.285 22.1796 26.0833C22.1796 25.8816 22.2471 25.7148 22.3821 25.5829C22.5174 25.4507 22.6849 25.3845 22.8846 25.3845H28.2088C29.6996 25.3845 30.9692 24.8611 32.0175 23.8141C33.0656 22.7672 33.5896 21.498 33.5896 20.0066C33.5896 18.515 33.0656 17.2436 32.0175 16.1925C30.9692 15.1411 29.6996 14.6154 28.2088 14.6154H22.8846C22.6849 14.6154 22.5174 14.5472 22.3821 14.4108C22.2471 14.2744 22.1796 14.1054 22.1796 13.9037C22.1796 13.7023 22.2471 13.5355 22.3821 13.4033C22.5174 13.2711 22.6849 13.205 22.8846 13.205H28.205C30.085 13.205 31.6875 13.8673 33.0125 15.192C34.3375 16.5168 35 18.1188 35 19.9983C35 21.8777 34.3375 23.4804 33.0125 24.8062C31.6875 26.132 30.085 26.795 28.205 26.795H22.8846Z" fill="white" fill-opacity="0.3"/>
</g>
</svg>
