<svg width="32" height="32" viewBox="0 0 32 32" fill="none" xmlns="http://www.w3.org/2000/svg">
<mask id="mask0_3368_14925" style="mask-type:alpha" maskUnits="userSpaceOnUse" x="0" y="0" width="32" height="32">
<rect width="32" height="32" fill="#D9D9D9"/>
</mask>
<g mask="url(#mask0_3368_14925)">
<path d="M27.635 16.5637H12.8023C12.6417 16.5637 12.5074 16.5095 12.3997 16.401C12.2921 16.2926 12.2383 16.1573 12.2383 15.9953C12.2383 15.8336 12.2921 15.6998 12.3997 15.594C12.5074 15.4885 12.6417 15.4357 12.8023 15.4357H27.635L24.9767 12.7773C24.8684 12.6691 24.8104 12.5396 24.8027 12.3887C24.7951 12.2376 24.8527 12.0993 24.9753 11.974C25.1015 11.8487 25.2368 11.7885 25.381 11.7933C25.5254 11.7982 25.6611 11.8576 25.788 11.9713L29.1373 15.316C29.3311 15.5118 29.428 15.7402 29.428 16.0013C29.428 16.2622 29.3311 16.4896 29.1373 16.6833L25.788 20.033C25.678 20.1412 25.5474 20.1983 25.3963 20.2043C25.2454 20.2103 25.1099 20.1507 24.9897 20.0253C24.8721 19.9 24.813 19.7652 24.8123 19.621C24.8114 19.4768 24.8737 19.342 24.999 19.2167L27.635 16.5637ZM20.334 11.3843V7.28168C20.334 7.04234 20.2571 6.84579 20.1033 6.69201C19.9493 6.53823 19.7527 6.46134 19.5133 6.46134H7.28265C7.04332 6.46134 6.84676 6.53823 6.69298 6.69201C6.53921 6.84579 6.46232 7.04234 6.46232 7.28168V24.7177C6.46232 24.957 6.53921 25.1536 6.69298 25.3073C6.84676 25.4611 7.04332 25.538 7.28265 25.538H19.5133C19.7527 25.538 19.9493 25.4611 20.1033 25.3073C20.2571 25.1536 20.334 24.957 20.334 24.7177V20.615C20.334 20.4543 20.3882 20.3201 20.4967 20.2123C20.6051 20.1048 20.7403 20.051 20.9023 20.051C21.0641 20.051 21.1979 20.1048 21.3037 20.2123C21.4094 20.3201 21.4623 20.4543 21.4623 20.615V24.7177C21.4623 25.249 21.2703 25.7066 20.8863 26.0903C20.5023 26.4743 20.0447 26.6663 19.5133 26.6663H7.28265C6.75132 26.6663 6.29376 26.4743 5.90998 26.0903C5.52598 25.7066 5.33398 25.249 5.33398 24.7177V7.28168C5.33398 6.75034 5.52598 6.29279 5.90998 5.90901C6.29376 5.52501 6.75132 5.33301 7.28265 5.33301H19.5133C20.0447 5.33301 20.5023 5.52501 20.8863 5.90901C21.2703 6.29279 21.4623 6.75034 21.4623 7.28168V11.3843C21.4623 11.545 21.408 11.6792 21.2993 11.787C21.1909 11.8946 21.0558 11.9483 20.894 11.9483C20.732 11.9483 20.5982 11.8946 20.4927 11.787C20.3869 11.6792 20.334 11.545 20.334 11.3843Z" fill="white" fill-opacity="0.3"/>
</g>
</svg>
