<svg width="30" height="24" viewBox="0 0 30 24" fill="none" xmlns="http://www.w3.org/2000/svg">
<path d="M2.43583 23.3333C1.75306 23.3333 1.17639 23.0981 0.705833 22.6275C0.235278 22.1569 0 21.5803 0 20.8975V2.43583C0 1.75306 0.235278 1.17639 0.705833 0.705833C1.17639 0.235278 1.75306 0 2.43583 0H27.5642C28.2469 0 28.8236 0.235278 29.2942 0.705833C29.7647 1.17639 30 1.75306 30 2.43583V20.8975C30 21.5803 29.7647 22.1569 29.2942 22.6275C28.8236 23.0981 28.2469 23.3333 27.5642 23.3333H2.43583ZM28.5896 2.55333L15.6933 11.125C15.58 11.1828 15.4674 11.2325 15.3554 11.2742C15.2432 11.3158 15.1247 11.3367 15 11.3367C14.8753 11.3367 14.7568 11.3158 14.6446 11.2742C14.5326 11.2325 14.4271 11.1828 14.3279 11.125L1.41042 2.55333V20.8975C1.41042 21.1967 1.50653 21.4424 1.69875 21.6346C1.89097 21.8268 2.13667 21.9229 2.43583 21.9229H27.5642C27.8633 21.9229 28.109 21.8268 28.3013 21.6346C28.4935 21.4424 28.5896 21.1967 28.5896 20.8975V2.55333ZM15 9.96583L28.03 1.41042H1.99792L15 9.96583ZM1.41042 2.88667V1.78292V1.83708V1.41042V1.82042V1.74542V2.88667Z" fill="white" fill-opacity="0.3"/>
</svg>
