<svg width="36" height="36" viewBox="0 0 36 36" fill="none" xmlns="http://www.w3.org/2000/svg">
<mask id="mask0_1811_5454" style="mask-type:alpha" maskUnits="userSpaceOnUse" x="0" y="0" width="36" height="36">
<rect width="36" height="36" fill="#D9D9D9"/>
</mask>
<g mask="url(#mask0_1811_5454)">
<path d="M7.19225 29C6.57775 29 6.05875 28.7882 5.63525 28.3647C5.21175 27.9412 5 27.4223 5 26.8078V10.1923C5 9.57775 5.21175 9.05875 5.63525 8.63525C6.05875 8.21175 6.57775 8 7.19225 8H29.8077C30.4222 8 30.9412 8.21175 31.3647 8.63525C31.7882 9.05875 32 9.57775 32 10.1923V26.8078C32 27.4223 31.7882 27.9412 31.3647 28.3647C30.9412 28.7882 30.4222 29 29.8077 29H7.19225ZM30.7306 10.298L19.124 18.0125C19.022 18.0645 18.9206 18.1092 18.8199 18.1467C18.7189 18.1842 18.6122 18.203 18.5 18.203C18.3877 18.203 18.2811 18.1842 18.1801 18.1467C18.0794 18.1092 17.9844 18.0645 17.8951 18.0125L6.26938 10.298V26.8078C6.26938 27.077 6.35588 27.2981 6.52888 27.4711C6.70188 27.6441 6.923 27.7306 7.19225 27.7306H29.8077C30.077 27.7306 30.2981 27.6441 30.4711 27.4711C30.6441 27.2981 30.7306 27.077 30.7306 26.8078V10.298ZM18.5 16.9692L30.227 9.26937H6.79812L18.5 16.9692ZM6.26938 10.598V9.60462V9.65338V9.26937V9.63838V9.57088V10.598Z" fill="white"/>
</g>
</svg>
