<svg width="40" height="40" viewBox="0 0 40 40" fill="none" xmlns="http://www.w3.org/2000/svg">
<mask id="mask0_5785_4256" style="mask-type:alpha" maskUnits="userSpaceOnUse" x="0" y="0" width="40" height="40">
<rect width="40" height="40" fill="white"/>
</mask>
<g mask="url(#mask0_5785_4256)">
<path d="M7.43583 31.6663C6.75306 31.6663 6.17639 31.4311 5.70583 30.9605C5.23528 30.49 5 29.9133 5 29.2305V10.7688C5 10.0861 5.23528 9.5094 5.70583 9.03884C6.17639 8.56829 6.75306 8.33301 7.43583 8.33301H32.5642C33.2469 8.33301 33.8236 8.56829 34.2942 9.03884C34.7647 9.5094 35 10.0861 35 10.7688V29.2305C35 29.9133 34.7647 30.49 34.2942 30.9605C33.8236 31.4311 33.2469 31.6663 32.5642 31.6663H7.43583ZM33.5896 10.8863L20.6933 19.458C20.58 19.5158 20.4674 19.5655 20.3554 19.6072C20.2432 19.6488 20.1247 19.6697 20 19.6697C19.8753 19.6697 19.7568 19.6488 19.6446 19.6072C19.5326 19.5655 19.4271 19.5158 19.3279 19.458L6.41042 10.8863V29.2305C6.41042 29.5297 6.50653 29.7754 6.69875 29.9676C6.89097 30.1598 7.13667 30.2559 7.43583 30.2559H32.5642C32.8633 30.2559 33.109 30.1598 33.3013 29.9676C33.4935 29.7754 33.5896 29.5297 33.5896 29.2305V10.8863ZM20 18.2988L33.03 9.74342H6.99792L20 18.2988ZM6.41042 11.2197V10.1159V10.1701V9.74342V10.1534V10.0784V11.2197Z" fill="#989898"/>
</g>
</svg>
