<svg width="28" height="28" viewBox="0 0 28 28" fill="none" xmlns="http://www.w3.org/2000/svg">
<mask id="mask0_5200_21892" style="mask-type:alpha" maskUnits="userSpaceOnUse" x="0" y="0" width="28" height="28">
<rect width="28" height="28" fill="white"/>
</mask>
<g mask="url(#mask0_5200_21892)">
<path d="M13.5 20.7708L8.56406 22.8446C7.94448 23.0935 7.36219 23.0434 6.81719 22.6941C6.2724 22.3447 6 21.8494 6 21.2083V6.77768C6 6.28758 6.17646 5.86883 6.52938 5.52142C6.88229 5.1738 7.31479 5 7.82687 5H19.1731C19.6852 5 20.1177 5.1738 20.4706 5.52142C20.8235 5.86883 21 6.28758 21 6.77768V21.2083C21 21.8494 20.7276 22.3447 20.1828 22.6941C19.6378 23.0434 19.0555 23.0935 18.4359 22.8446L13.5 20.7708ZM13.5 19.6264L18.8606 21.8608C19.1171 21.9698 19.3615 21.9491 19.5938 21.7985C19.826 21.6477 19.9422 21.4345 19.9422 21.1591V6.77768C19.9422 6.5906 19.8621 6.41902 19.7019 6.26295C19.5417 6.10709 19.3654 6.02915 19.1731 6.02915H7.82687C7.63458 6.02915 7.45833 6.10709 7.29813 6.26295C7.13792 6.41902 7.05781 6.5906 7.05781 6.77768V21.1591C7.05781 21.4345 7.17396 21.6477 7.40625 21.7985C7.63854 21.9491 7.88292 21.9698 8.13937 21.8608L13.5 19.6264Z" fill="#58A7F7"/>
</g>
</svg>
