<svg width="36" height="36" viewBox="0 0 36 36" fill="none" xmlns="http://www.w3.org/2000/svg">
<g clip-path="url(#clip0_5905_27795)">
<mask id="mask0_5905_27795" style="mask-type:alpha" maskUnits="userSpaceOnUse" x="0" y="0" width="36" height="36">
<rect width="36" height="36" fill="white"/>
</mask>
<g mask="url(#mask0_5905_27795)">
<path d="M17.3577 26.7055L11.0115 29.3718C10.2149 29.6918 9.46623 29.6273 8.76551 29.1783C8.06507 28.729 7.71484 28.0923 7.71484 27.268V8.7143C7.71484 8.08417 7.94172 7.54577 8.39547 7.0991C8.84922 6.65217 9.40529 6.42871 10.0637 6.42871H24.6517C25.3101 6.42871 25.8662 6.65217 26.3199 7.0991C26.7737 7.54577 27.0006 8.08417 27.0006 8.7143V27.268C27.0006 28.0923 26.6503 28.729 25.9499 29.1783C25.2492 29.6273 24.5005 29.6918 23.7039 29.3718L17.3577 26.7055ZM17.3577 25.2341L24.2499 28.1069C24.5797 28.2471 24.8939 28.2204 25.1925 28.0267C25.4912 27.8328 25.6405 27.5588 25.6405 27.2047V8.7143C25.6405 8.47377 25.5375 8.25317 25.3315 8.05251C25.1256 7.85211 24.899 7.75191 24.6517 7.75191H10.0637C9.81645 7.75191 9.58984 7.85211 9.38386 8.05251C9.17788 8.25317 9.07489 8.47377 9.07489 8.7143V27.2047C9.07489 27.5588 9.22422 27.8328 9.52288 28.0267C9.82154 28.2204 10.1357 28.2471 10.4655 28.1069L17.3577 25.2341Z" fill="white"/>
</g>
</g>
<defs>
<clipPath id="clip0_5905_27795">
<rect width="36" height="36" fill="white"/>
</clipPath>
</defs>
</svg>
