<svg width="32" height="32" viewBox="0 0 32 32" fill="none" xmlns="http://www.w3.org/2000/svg">
<mask id="mask0_1811_5124" style="mask-type:alpha" maskUnits="userSpaceOnUse" x="0" y="0" width="32" height="32">
<rect width="32" height="32" fill="#D9D9D9"/>
</mask>
<g mask="url(#mask0_1811_5124)">
<path d="M5.55519 9.12833C5.39791 9.12833 5.26611 9.07378 5.1598 8.96467C5.05327 8.85556 5 8.72033 5 8.559C5 8.39767 5.05327 8.26422 5.1598 8.15867C5.26611 8.05289 5.39791 8 5.55519 8H25.4448C25.6021 8 25.7339 8.05455 25.8402 8.16367C25.9467 8.27278 26 8.408 26 8.56933C26 8.73045 25.9467 8.86389 25.8402 8.96967C25.7339 9.07545 25.6021 9.12833 25.4448 9.12833H5.55519ZM5.55519 24C5.39791 24 5.26611 23.9454 5.1598 23.8363C5.05327 23.7272 5 23.592 5 23.4307C5 23.2696 5.05327 23.1361 5.1598 23.0303C5.26611 22.9246 5.39791 22.8717 5.55519 22.8717H25.4448C25.6021 22.8717 25.7339 22.9262 25.8402 23.0353C25.9467 23.1444 26 23.2797 26 23.441C26 23.6023 25.9467 23.7358 25.8402 23.8413C25.7339 23.9471 25.6021 24 25.4448 24H5.55519ZM5.55519 16.564C5.39791 16.564 5.26611 16.5094 5.1598 16.4003C5.05327 16.2912 5 16.1561 5 15.995C5 15.8337 5.05327 15.7001 5.1598 15.5943C5.26611 15.4888 5.39791 15.436 5.55519 15.436H25.4448C25.6021 15.436 25.7339 15.4906 25.8402 15.5997C25.9467 15.7088 26 15.8439 26 16.005C26 16.1663 25.9467 16.2999 25.8402 16.4057C25.7339 16.5112 25.6021 16.564 25.4448 16.564H5.55519Z" fill="#FF8900"/>
</g>
</svg>
