<svg width="32" height="32" viewBox="0 0 32 32" fill="none" xmlns="http://www.w3.org/2000/svg">
<mask id="mask0_5708_31009" style="mask-type:alpha" maskUnits="userSpaceOnUse" x="0" y="0" width="32" height="32">
<rect width="32" height="32" fill="#D9D9D9"/>
</mask>
<g mask="url(#mask0_5708_31009)">
<path d="M16.3973 26.8002C15.8464 26.8002 15.3759 26.606 14.9857 26.2177C14.5955 25.8293 14.4004 25.3624 14.4004 24.817C14.4004 24.2716 14.5965 23.8058 14.9888 23.4195C15.3812 23.0334 15.8528 22.8403 16.4035 22.8403C16.9543 22.8403 17.4249 23.0345 17.8151 23.4228C18.2053 23.8112 18.4004 24.2781 18.4004 24.8235C18.4004 25.3689 18.2043 25.8346 17.812 26.2207C17.4195 26.607 16.948 26.8002 16.3973 26.8002ZM16.3973 17.9803C15.8464 17.9803 15.3759 17.7861 14.9857 17.3978C14.5955 17.0092 14.4004 16.5423 14.4004 15.9972C14.4004 15.4518 14.5965 14.9859 14.9888 14.5996C15.3812 14.2132 15.8528 14.0201 16.4035 14.0201C16.9543 14.0201 17.4249 14.2143 17.8151 14.6026C18.2053 14.9912 18.4004 15.4581 18.4004 16.0032C18.4004 16.5486 18.2043 17.0145 17.812 17.4008C17.4195 17.7871 16.948 17.9803 16.3973 17.9803ZM16.3973 9.16008C15.8464 9.16008 15.3759 8.96591 14.9857 8.57756C14.5955 8.18921 14.4004 7.72233 14.4004 7.17693C14.4004 6.63153 14.5965 6.16578 14.9888 5.77968C15.3812 5.39336 15.8528 5.2002 16.4035 5.2002C16.9543 5.2002 17.4249 5.39437 17.8151 5.78272C18.2053 6.17107 18.4004 6.63795 18.4004 7.18335C18.4004 7.72875 18.2043 8.19461 17.812 8.58093C17.4195 8.96703 16.948 9.16008 16.3973 9.16008Z" fill="#989898"/>
</g>
</svg>
