<svg width="32" height="32" viewBox="0 0 32 32" fill="none" xmlns="http://www.w3.org/2000/svg">
<mask id="mask0_1324_2486" style="mask-type:alpha" maskUnits="userSpaceOnUse" x="0" y="0" width="32" height="32">
<rect width="32" height="32" fill="#D9D9D9"/>
</mask>
<g mask="url(#mask0_1324_2486)">
<path d="M16.3973 26.8C15.8464 26.8 15.3759 26.6058 14.9857 26.2174C14.5955 25.8291 14.4004 25.3622 14.4004 24.8168C14.4004 24.2714 14.5965 23.8055 14.9888 23.4192C15.3812 23.0331 15.8528 22.8401 16.4035 22.8401C16.9543 22.8401 17.4249 23.0342 17.8151 23.4226C18.2053 23.8109 18.4004 24.2778 18.4004 24.8232C18.4004 25.3686 18.2043 25.8344 17.812 26.2205C17.4195 26.6068 16.948 26.8 16.3973 26.8ZM16.3973 17.9801C15.8464 17.9801 15.3759 17.7859 14.9857 17.3975C14.5955 17.009 14.4004 16.5421 14.4004 15.9969C14.4004 15.4515 14.5965 14.9857 14.9888 14.5993C15.3812 14.213 15.8528 14.0198 16.4035 14.0198C16.9543 14.0198 17.4249 14.214 17.8151 14.6024C18.2053 14.9909 18.4004 15.4578 18.4004 16.003C18.4004 16.5484 18.2043 17.0143 17.812 17.4006C17.4195 17.7869 16.948 17.9801 16.3973 17.9801ZM16.3973 9.15984C15.8464 9.15984 15.3759 8.96566 14.9857 8.57731C14.5955 8.18896 14.4004 7.72209 14.4004 7.17669C14.4004 6.63129 14.5965 6.16554 14.9888 5.77944C15.3812 5.39311 15.8528 5.19995 16.4035 5.19995C16.9543 5.19995 17.4249 5.39413 17.8151 5.78248C18.2053 6.17083 18.4004 6.6377 18.4004 7.1831C18.4004 7.7285 18.2043 8.19436 17.812 8.58069C17.4195 8.96679 16.948 9.15984 16.3973 9.15984Z" fill="white" fill-opacity="0.3"/>
</g>
</svg>
