<svg width="32" height="32" viewBox="0 0 32 32" fill="none" xmlns="http://www.w3.org/2000/svg">
<mask id="mask0_1614_5819" style="mask-type:alpha" maskUnits="userSpaceOnUse" x="0" y="0" width="32" height="32">
<rect width="32" height="32" fill="#D9D9D9"/>
</mask>
<g mask="url(#mask0_1614_5819)">
<path d="M6.91822 26C6.38053 26 5.92641 25.8147 5.55584 25.4442C5.18528 25.0736 5 24.6195 5 24.0818V6.91822C5 6.38053 5.18528 5.92641 5.55584 5.55584C5.92641 5.18528 6.38053 5 6.91822 5H13.5312C13.6885 5 13.8204 5.0537 13.927 5.16111C14.0333 5.26851 14.0864 5.40163 14.0864 5.56044C14.0864 5.71903 14.0333 5.85039 13.927 5.95452C13.8204 6.05864 13.6885 6.1107 13.5312 6.1107H6.91822C6.71631 6.1107 6.53125 6.19481 6.36303 6.36303C6.19481 6.53125 6.1107 6.71631 6.1107 6.91822V24.0818C6.1107 24.2837 6.19481 24.4688 6.36303 24.637C6.53125 24.8052 6.71631 24.8893 6.91822 24.8893H24.0818C24.2837 24.8893 24.4688 24.8052 24.637 24.637C24.8052 24.4688 24.8893 24.2837 24.8893 24.0818V17.4688C24.8893 17.3115 24.943 17.1796 25.0504 17.073C25.1578 16.9667 25.2909 16.9136 25.4497 16.9136C25.6085 16.9136 25.7399 16.9667 25.8438 17.073C25.9479 17.1796 26 17.3115 26 17.4688V24.0818C26 24.6195 25.8147 25.0736 25.4442 25.4442C25.0736 25.8147 24.6195 26 24.0818 26H6.91822ZM20.9518 10.0482H17.5698C17.4123 10.0482 17.2804 9.9945 17.1741 9.88709C17.0676 9.77969 17.0143 9.64658 17.0143 9.48777C17.0143 9.32895 17.0676 9.19759 17.1741 9.09369C17.2804 8.98956 17.4123 8.9375 17.5698 8.9375H20.9518V5.55519C20.9518 5.39791 21.0055 5.26611 21.1129 5.1598C21.2203 5.05327 21.3534 5 21.5122 5C21.671 5 21.8024 5.05327 21.9063 5.1598C22.0104 5.26611 22.0625 5.39791 22.0625 5.55519V8.9375H25.4448C25.6021 8.9375 25.7339 8.9912 25.8402 9.09861C25.9467 9.20601 26 9.33913 26 9.49794C26 9.65653 25.9467 9.78789 25.8402 9.89202C25.7339 9.99614 25.6021 10.0482 25.4448 10.0482H22.0625V13.4302C22.0625 13.5877 22.0088 13.7196 21.9014 13.8259C21.794 13.9324 21.6609 13.9857 21.5021 13.9857C21.3435 13.9857 21.2121 13.9324 21.108 13.8259C21.0039 13.7196 20.9518 13.5877 20.9518 13.4302V10.0482Z" fill="white" fill-opacity="0.3"/>
</g>
</svg>
