<svg width="32" height="32" viewBox="0 0 32 32" fill="none" xmlns="http://www.w3.org/2000/svg">
<mask id="mask0_5708_31078" style="mask-type:alpha" maskUnits="userSpaceOnUse" x="0" y="0" width="32" height="32">
<rect width="32" height="32" fill="#D9D9D9"/>
</mask>
<g mask="url(#mask0_5708_31078)">
<path d="M7.28216 26.6663C6.73594 26.6663 6.27461 26.4781 5.89816 26.1017C5.52172 25.7252 5.3335 25.2639 5.3335 24.7177V7.28168C5.3335 6.73545 5.52172 6.27412 5.89816 5.89767C6.27461 5.52123 6.73594 5.33301 7.28216 5.33301H14.0002C14.1599 5.33301 14.2939 5.38756 14.4022 5.49667C14.5102 5.60578 14.5642 5.74101 14.5642 5.90234C14.5642 6.06345 14.5102 6.1969 14.4022 6.30268C14.2939 6.40845 14.1599 6.46134 14.0002 6.46134H7.28216C7.07705 6.46134 6.88905 6.54678 6.71816 6.71767C6.54727 6.88856 6.46183 7.07656 6.46183 7.28168V24.7177C6.46183 24.9228 6.54727 25.1108 6.71816 25.2817C6.88905 25.4526 7.07705 25.538 7.28216 25.538H24.7182C24.9233 25.538 25.1113 25.4526 25.2822 25.2817C25.4531 25.1108 25.5385 24.9228 25.5385 24.7177V17.9997C25.5385 17.8399 25.5931 17.7059 25.7022 17.5977C25.8113 17.4897 25.9465 17.4357 26.1078 17.4357C26.2692 17.4357 26.4026 17.4897 26.5082 17.5977C26.6139 17.7059 26.6668 17.8399 26.6668 17.9997V24.7177C26.6668 25.2639 26.4786 25.7252 26.1022 26.1017C25.7257 26.4781 25.2644 26.6663 24.7182 26.6663H7.28216ZM21.5385 10.4613H18.1028C17.9428 10.4613 17.8088 10.4068 17.7008 10.2977C17.5926 10.1886 17.5385 10.0533 17.5385 9.89201C17.5385 9.73068 17.5926 9.59723 17.7008 9.49167C17.8088 9.3859 17.9428 9.33301 18.1028 9.33301H21.5385V5.89701C21.5385 5.73723 21.5931 5.60334 21.7022 5.49534C21.8113 5.38712 21.9465 5.33301 22.1078 5.33301C22.2692 5.33301 22.4026 5.38712 22.5082 5.49534C22.6139 5.60334 22.6668 5.73723 22.6668 5.89701V9.33301H26.1028C26.2626 9.33301 26.3965 9.38756 26.5045 9.49667C26.6127 9.60578 26.6668 9.74101 26.6668 9.90234C26.6668 10.0635 26.6127 10.1969 26.5045 10.3027C26.3965 10.4085 26.2626 10.4613 26.1028 10.4613H22.6668V13.897C22.6668 14.057 22.6123 14.191 22.5032 14.299C22.3941 14.4072 22.2588 14.4613 22.0975 14.4613C21.9364 14.4613 21.8029 14.4072 21.6972 14.299C21.5914 14.191 21.5385 14.057 21.5385 13.897V10.4613Z" fill="#989898"/>
</g>
</svg>
