<svg width="29" height="32" viewBox="0 0 29 32" fill="none" xmlns="http://www.w3.org/2000/svg">
<path fill-rule="evenodd" clip-rule="evenodd" d="M17.3791 0.801411L17 1.86404C16.7686 2.51257 15.2555 4.02709 14.6011 4.27032L13.7161 4.52084C9.95502 5.07114 7.01608 6.49645 6.22402 9.53882L4.30932 17.893C3.95282 19.2623 3.24747 20.7256 1.99941 21.4296L1.38564 21.7758C0.5721 22.2346 -0.0888651 22.8281 0.00978093 23.7443L0.0187058 23.827C0.119327 24.7615 0.854695 25.5087 1.8023 25.6396L9.86369 26.7521C9.84434 26.9229 9.83441 27.0965 9.83441 27.2723C9.83441 29.8423 11.956 31.9256 14.5732 31.9256C16.9217 31.9256 18.871 30.2482 19.2467 28.047L26.6094 28.6484C27.8763 28.7705 28.537 28.4269 28.8327 27.3889C29.0596 26.5924 28.537 25.9279 28.3691 25.8185L27.8763 25.3197C26.8741 24.3051 26.3323 21.9362 26.374 20.5235L26.5473 15.9431C26.5473 15.9431 26.468 11.544 26.0153 10.4256C25.5 8.92561 25 7.86409 22.5 6.42561C21.811 6.02915 20.3207 5.51051 19.8442 2.02194C19.8442 1.36426 19.9293 0.204451 18.9643 0.0340989C18 -0.136144 17.5 0.364258 17.3791 0.801411ZM27.0349 26.9275C25.0393 25.3207 24.8532 22.4921 24.9038 20.7772L25.032 16.4315C25.032 16.4315 24.968 11.7813 24.5 10.864C24 8.86396 21.9984 7.91724 21 7.42559C19.2277 6.53942 18.0364 6.37613 16.0544 6.17623C14.6955 6.03917 12.9432 6.12929 12.5571 6.17631C10.5149 6.42311 8.22217 7.56097 7.50723 10.3071L5.59253 18.6614C5.15982 20.3234 3.87421 22.7408 1.49872 23.7443L27.0349 26.9275Z" fill="white" fill-opacity="0.3"/>
</svg>
