<svg width="32" height="32" viewBox="0 0 32 32" fill="none" xmlns="http://www.w3.org/2000/svg">
<mask id="mask0_3935_15640" style="mask-type:alpha" maskUnits="userSpaceOnUse" x="0" y="0" width="32" height="32">
<rect width="32" height="32" fill="#D9D9D9"/>
</mask>
<g mask="url(#mask0_3935_15640)">
<path d="M7.28265 26.6666C6.73643 26.6666 6.2751 26.4784 5.89865 26.1019C5.52221 25.7255 5.33398 25.2641 5.33398 24.7179V7.28192C5.33398 6.7357 5.52221 6.27436 5.89865 5.89792C6.2751 5.52147 6.73643 5.33325 7.28265 5.33325H14.2007C14.3613 5.33325 14.4955 5.38747 14.6033 5.49592C14.7109 5.60436 14.7647 5.73958 14.7647 5.90158C14.7647 6.06336 14.7109 6.19714 14.6033 6.30292C14.4955 6.4087 14.3613 6.46158 14.2007 6.46158H7.28265C7.07754 6.46158 6.88954 6.54703 6.71865 6.71792C6.54776 6.88881 6.46232 7.07681 6.46232 7.28192V24.7179C6.46232 24.923 6.54776 25.111 6.71865 25.2819C6.88954 25.4528 7.07754 25.5383 7.28265 25.5383H24.7187C24.9238 25.5383 25.1118 25.4528 25.2827 25.2819C25.4535 25.111 25.539 24.923 25.539 24.7179V17.7999C25.539 17.6393 25.5933 17.505 25.702 17.3973C25.8104 17.2897 25.9455 17.2359 26.1073 17.2359C26.2693 17.2359 26.4031 17.2897 26.5087 17.3973C26.6144 17.505 26.6673 17.6393 26.6673 17.7999V24.7179C26.6673 25.2641 26.4791 25.7255 26.1027 26.1019C25.7262 26.4784 25.2649 26.6666 24.7187 26.6666H7.28265ZM25.539 7.26992L13.322 19.4873C13.2155 19.5937 13.0859 19.6504 12.933 19.6573C12.7803 19.6641 12.6422 19.6057 12.5187 19.4819C12.3949 19.3584 12.333 19.2245 12.333 19.0803C12.333 18.936 12.3949 18.8021 12.5187 18.6786L24.7357 6.46158H18.816C18.6553 6.46158 18.5211 6.40725 18.4133 6.29859C18.3058 6.19014 18.252 6.05503 18.252 5.89325C18.252 5.73125 18.3058 5.59747 18.4133 5.49192C18.5211 5.38614 18.6553 5.33325 18.816 5.33325H25.693C25.9732 5.33325 26.2057 5.42559 26.3903 5.61025C26.575 5.79492 26.6673 6.02736 26.6673 6.30758V13.1846C26.6673 13.3453 26.6131 13.4795 26.5047 13.5873C26.3962 13.6948 26.261 13.7486 26.099 13.7486C25.9372 13.7486 25.8034 13.6948 25.6977 13.5873C25.5919 13.4795 25.539 13.3453 25.539 13.1846V7.26992Z" fill="white" fill-opacity="0.3"/>
</g>
</svg>
