<svg width="24" height="24" viewBox="0 0 24 24" fill="none" xmlns="http://www.w3.org/2000/svg">
<mask id="mask0_4283_16733" style="mask-type:alpha" maskUnits="userSpaceOnUse" x="0" y="0" width="24" height="24">
<rect width="24" height="24" fill="white"/>
</mask>
<g mask="url(#mask0_4283_16733)">
<path d="M5.14258 18.4263V17.2743C5.14258 17.1802 5.15666 17.0892 5.18483 17.0013C5.21299 16.9135 5.26516 16.8316 5.34133 16.7556L16.7183 5.39982C16.811 5.30716 16.9117 5.24116 17.0206 5.20182C17.1292 5.16249 17.2357 5.14282 17.3401 5.14282C17.4486 5.14282 17.5517 5.16249 17.6496 5.20182C17.7474 5.24116 17.8421 5.30782 17.9336 5.40182L18.8816 6.33882C18.9671 6.42899 19.032 6.52624 19.0763 6.63057C19.1205 6.73491 19.1426 6.84757 19.1426 6.96857C19.1426 7.06757 19.1216 7.17124 19.0796 7.27957C19.0374 7.38791 18.9714 7.48949 18.8816 7.58432L7.52583 18.9403C7.44133 19.0163 7.35675 19.0717 7.27208 19.1063C7.18725 19.1408 7.10024 19.1581 7.01108 19.1581H5.87883C5.66683 19.1581 5.49108 19.0867 5.35158 18.9438C5.21224 18.801 5.14258 18.6285 5.14258 18.4263ZM16.9823 8.26957L18.2951 6.95682L17.3438 5.99282L16.0311 7.30557L16.9823 8.26957Z" fill="white"/>
</g>
</svg>
