<svg width="27" height="18" viewBox="0 0 27 18" fill="none" xmlns="http://www.w3.org/2000/svg">
<path d="M21.7693 6.518H18.2307C18.0709 6.518 17.937 6.46344 17.829 6.35433C17.7208 6.24522 17.6667 6.11011 17.6667 5.949C17.6667 5.78767 17.7208 5.65411 17.829 5.54833C17.937 5.44278 18.0709 5.39 18.2307 5.39H21.7693V1.85133C21.7693 1.69155 21.8239 1.55767 21.933 1.44967C22.0421 1.34144 22.1772 1.28733 22.3383 1.28733C22.4997 1.28733 22.6332 1.34144 22.739 1.44967C22.8446 1.55767 22.8973 1.69155 22.8973 1.85133V5.39H26.436C26.5958 5.39 26.7297 5.44456 26.8377 5.55367C26.9459 5.66278 27 5.79789 27 5.959C27 6.12033 26.9459 6.25389 26.8377 6.35967C26.7297 6.46522 26.5958 6.518 26.436 6.518H22.8973V10.0567C22.8973 10.2164 22.8428 10.3503 22.7337 10.4583C22.6246 10.5666 22.4894 10.6207 22.3283 10.6207C22.167 10.6207 22.0334 10.5666 21.9277 10.4583C21.8221 10.3503 21.7693 10.2164 21.7693 10.0567V6.518ZM9.33333 7.795C8.23333 7.795 7.30878 7.42045 6.55967 6.67133C5.81056 5.92222 5.436 4.99478 5.436 3.889C5.436 2.78322 5.81056 1.85867 6.55967 1.11533C7.30878 0.371779 8.23333 0 9.33333 0C10.4333 0 11.3579 0.371779 12.107 1.11533C12.8561 1.85867 13.2307 2.78322 13.2307 3.889C13.2307 4.99478 12.8561 5.92222 12.107 6.67133C11.3579 7.42045 10.4333 7.795 9.33333 7.795ZM0 16.2617V15.4237C0 14.8701 0.160222 14.3536 0.480667 13.874C0.801333 13.3947 1.24511 13.0242 1.812 12.7627C3.16022 12.1522 4.44467 11.7024 5.66533 11.4133C6.88622 11.1242 8.10733 10.9797 9.32867 10.9797C10.55 10.9797 11.7718 11.1242 12.994 11.4133C14.2162 11.7024 15.5014 12.1522 16.8497 12.7627C17.4166 13.0389 17.8611 13.4131 18.1833 13.8853C18.5056 14.3573 18.6667 14.8701 18.6667 15.4237V16.2617C18.6667 16.5879 18.5517 16.866 18.3217 17.096C18.0917 17.3262 17.8136 17.4413 17.4873 17.4413H1.17933C0.853111 17.4413 0.575 17.3262 0.345 17.096C0.115 16.866 0 16.5879 0 16.2617ZM1.12833 16.313H17.5383V15.424C17.5383 15.0998 17.4314 14.7899 17.2177 14.4943C17.0037 14.1986 16.7067 13.9518 16.3267 13.754C15.114 13.1791 13.9466 12.761 12.8243 12.4997C11.7021 12.2386 10.5384 12.108 9.33333 12.108C8.12822 12.108 6.96089 12.2386 5.83133 12.4997C4.70156 12.761 3.53611 13.1791 2.335 13.754C1.94367 13.9518 1.64467 14.1986 1.438 14.4943C1.23156 14.7899 1.12833 15.0998 1.12833 15.424V16.313ZM9.33333 6.66667C10.11 6.66667 10.7657 6.39933 11.3003 5.86467C11.8352 5.33 12.1027 4.67433 12.1027 3.89767C12.1027 3.121 11.8352 2.46522 11.3003 1.93033C10.7657 1.39567 10.11 1.12833 9.33333 1.12833C8.55667 1.12833 7.901 1.39567 7.36633 1.93033C6.83144 2.46522 6.564 3.121 6.564 3.89767C6.564 4.67433 6.83144 5.33 7.36633 5.86467C7.901 6.39933 8.55667 6.66667 9.33333 6.66667Z" fill="white" fill-opacity="0.3"/>
</svg>
