<svg width="20" height="20" viewBox="0 0 20 20" fill="none" xmlns="http://www.w3.org/2000/svg">
<mask id="mask0_2188_2934" style="mask-type:alpha" maskUnits="userSpaceOnUse" x="0" y="0" width="20" height="20">
<rect width="20" height="20" fill="#D9D9D9"/>
</mask>
<g mask="url(#mask0_2188_2934)">
<path d="M13.8298 6.97414L10.9512 11.7748L11.456 14.0542C11.4706 14.1202 11.4745 14.1884 11.4674 14.2586C11.4604 14.3286 11.4359 14.3986 11.394 14.4685L11.2365 14.7312C11.1589 14.8607 11.0501 14.9429 10.9101 14.9778C10.7704 15.0128 10.6373 14.9891 10.5108 14.9067L7.81992 13.1545L5.66947 16.7408C5.59164 16.8706 5.4846 16.9521 5.34835 16.9854C5.21209 17.0187 5.0822 16.9951 4.95866 16.9146C4.835 16.8341 4.7566 16.7221 4.72343 16.5785C4.69015 16.4348 4.71243 16.298 4.79026 16.1682L6.94071 12.5819L4.24981 10.8297C4.12334 10.7473 4.04454 10.6331 4.0134 10.4869C3.98222 10.3405 4.00544 10.2026 4.08306 10.0731L4.24059 9.8104C4.2825 9.74051 4.33212 9.68691 4.38944 9.64959C4.44695 9.61224 4.50739 9.58594 4.57076 9.57069L6.75801 9.04432L9.63662 4.24366L9.26464 4.00144C9.14009 3.92034 9.06184 3.80879 9.0299 3.6668C8.99785 3.52474 9.02042 3.38934 9.09762 3.2606C9.17489 3.13174 9.28248 3.05007 9.42039 3.01558C9.55827 2.9809 9.68948 3.00412 9.81404 3.08522L14.7512 6.30014C14.8757 6.38125 14.954 6.49279 14.9859 6.63478C15.0179 6.77684 14.9954 6.91224 14.9182 7.04099C14.8409 7.16984 14.7333 7.25152 14.5954 7.286C14.4575 7.32068 14.3263 7.29747 14.2018 7.21636L13.8298 6.97414Z" fill="white" fill-opacity="0.3"/>
</g>
</svg>
