<svg width="22" height="18" viewBox="0 0 22 18" fill="none" xmlns="http://www.w3.org/2000/svg">
<path d="M12.0306 18C11.3367 18 10.8367 17.5092 10.8367 16.8517V13.1025H10.5408C6.58164 13.1025 4.09182 14.0644 2.30609 17.2737C1.949 17.9018 1.47958 18 1.05099 18C0.510172 18 0 17.5289 0 16.6849C0 9.43182 3.19382 4.90731 10.5408 4.90731H10.8367V1.19738C10.8367 0.539803 11.3367 0 12.051 0C12.551 0 12.8878 0.206107 13.4286 0.696837L21.4796 7.94002C21.8776 8.30315 22 8.66633 22 9C22 9.32387 21.8673 9.69681 21.4796 10.0502L13.4286 17.3621C12.9388 17.8037 12.5306 18 12.0306 18ZM12.0306 16.7503C12.1905 16.7503 12.4218 16.7503 12.8571 16.3315L19.8775 10.0502C19.9592 9.9716 20.7483 9.41876 20.7483 9C20.7483 8.58124 19.9592 8.00878 19.8775 7.94002L12.7789 1.68815C12.7279 1.6489 12.2517 1.21048 12.051 1.26937C11.8503 1.32825 11.8299 1.32825 11.8299 2.19192V5.53871C11.8299 5.76444 11.7177 5.86259 11.483 5.86259H10.8367C3.83669 5.86259 1.30612 10.4427 1.10202 15.0752C1.09408 15.2555 1.02889 16.6799 1.10202 16.7503C1.2925 16.9335 1.68361 15.8702 1.71427 15.8015C2.91834 13.3381 6.03732 11.928 10.8843 11.928H11.602C11.7551 11.928 11.8299 12.0098 11.8299 12.1701V15.7427C11.8299 15.8309 11.8299 16.7503 12.0306 16.7503Z" fill="white" fill-opacity="0.3"/>
</svg>
