<svg width="24" height="24" viewBox="0 0 24 24" fill="none" xmlns="http://www.w3.org/2000/svg">
<mask id="mask0_5708_30804" style="mask-type:alpha" maskUnits="userSpaceOnUse" x="0" y="0" width="24" height="24">
<rect width="24" height="24" fill="#D9D9D9"/>
</mask>
<g mask="url(#mask0_5708_30804)">
<path d="M2.25384 12.6513C2.17267 12.5701 2.132 12.4701 2.13184 12.3513C2.13167 12.2324 2.17425 12.1303 2.25959 12.0448C2.35375 11.9521 2.457 11.9054 2.56934 11.9048C2.68167 11.9041 2.78059 11.9508 2.86609 12.0448L6.90459 16.0743L7.40459 15.5743C7.46909 15.5449 7.54875 15.5371 7.64359 15.5508C7.73859 15.5644 7.82475 15.6099 7.90209 15.6873C7.98759 15.7813 8.03209 15.8839 8.03559 15.995C8.03925 16.106 7.99409 16.2043 7.90009 16.2898L7.41559 16.7743C7.27025 16.9269 7.09925 17.0036 6.90259 17.0043C6.70609 17.0049 6.53517 16.9283 6.38984 16.7743L2.25384 12.6513ZM12.1193 16.0725L21.1436 7.06103C21.2249 6.9797 21.3228 6.9362 21.4373 6.93053C21.5518 6.9247 21.6561 6.96453 21.7501 7.05003C21.8428 7.14403 21.8894 7.2472 21.8901 7.35953C21.8908 7.47203 21.8441 7.57103 21.7501 7.65653L12.6321 16.7743C12.4868 16.9283 12.3158 17.0053 12.1193 17.0053C11.9227 17.0053 11.7518 16.9283 11.6066 16.7743L7.48334 12.6513C7.395 12.5714 7.35034 12.4718 7.34934 12.3523C7.3485 12.2328 7.3945 12.1303 7.48734 12.0448C7.57267 11.9508 7.67192 11.9038 7.78509 11.9038C7.89809 11.9038 8.00159 11.9508 8.09559 12.0448L12.1193 16.0725ZM16.5316 7.65828L11.7283 12.4615C11.6483 12.5415 11.5514 12.584 11.4376 12.589C11.3238 12.5942 11.2198 12.5504 11.1258 12.4578C11.0317 12.3638 10.9846 12.2624 10.9846 12.1535C10.9846 12.0449 11.0317 11.9434 11.1258 11.8493L15.9251 7.05003C16.0051 6.9702 16.1027 6.92703 16.2178 6.92053C16.333 6.9142 16.4376 6.95736 16.5316 7.05003C16.6256 7.14403 16.6726 7.24545 16.6726 7.35428C16.6726 7.46295 16.6256 7.56428 16.5316 7.65828Z" fill="#989898"/>
</g>
</svg>
