<svg width="28" height="28" viewBox="0 0 28 28" fill="none" xmlns="http://www.w3.org/2000/svg">
<mask id="mask0_2010_1888" style="mask-type:alpha" maskUnits="userSpaceOnUse" x="0" y="0" width="28" height="28">
<rect width="28" height="28" fill="#D9D9D9"/>
</mask>
<g mask="url(#mask0_2010_1888)">
<path d="M2.62964 14.7598C2.53494 14.6651 2.4875 14.5485 2.48731 14.4098C2.48711 14.2712 2.53679 14.152 2.63635 14.0522C2.74621 13.9441 2.86667 13.8897 2.99772 13.8889C3.12878 13.8881 3.24418 13.9426 3.34393 14.0522L8.05551 18.7533L8.63885 18.17C8.7141 18.1358 8.80704 18.1266 8.91768 18.1426C9.02851 18.1585 9.12904 18.2116 9.21926 18.3018C9.31901 18.4115 9.37093 18.5312 9.37501 18.6609C9.37929 18.7904 9.3266 18.905 9.21693 19.0047L8.65168 19.57C8.48213 19.7481 8.28263 19.8375 8.05318 19.8383C7.82393 19.8391 7.62453 19.7497 7.45497 19.57L2.62964 14.7598ZM14.1394 18.7513L24.6677 8.23787C24.7626 8.14298 24.8768 8.09223 25.0104 8.08562C25.144 8.07881 25.2656 8.12528 25.3753 8.22503C25.4834 8.3347 25.5378 8.45506 25.5386 8.58612C25.5394 8.71737 25.4849 8.83287 25.3753 8.93262L14.7376 19.57C14.568 19.7497 14.3686 19.8395 14.1394 19.8395C13.9099 19.8395 13.7105 19.7497 13.5412 19.57L8.73072 14.7598C8.62767 14.6667 8.57556 14.5504 8.57439 14.411C8.57342 14.2716 8.62708 14.152 8.73539 14.0522C8.83494 13.9426 8.95074 13.8877 9.08276 13.8877C9.2146 13.8877 9.33535 13.9426 9.44501 14.0522L14.1394 18.7513ZM19.287 8.93466L13.6832 14.5385C13.5899 14.6318 13.4768 14.6814 13.344 14.6872C13.2112 14.6932 13.09 14.6422 12.9803 14.5341C12.8704 14.4244 12.8155 14.3061 12.8155 14.1791C12.8155 14.0523 12.8704 13.934 12.9803 13.8242L18.5794 8.22503C18.6728 8.1319 18.7866 8.08153 18.921 8.07395C19.0553 8.06656 19.1773 8.11692 19.287 8.22503C19.3967 8.3347 19.4515 8.45302 19.4515 8.57999C19.4515 8.70677 19.3967 8.82499 19.287 8.93466Z" fill="white" fill-opacity="0.3"/>
</g>
</svg>
