<svg width="36" height="36" viewBox="0 0 36 36" fill="none" xmlns="http://www.w3.org/2000/svg">
<mask id="mask0_5905_27804" style="mask-type:alpha" maskUnits="userSpaceOnUse" x="0" y="0" width="36" height="36">
<rect width="36" height="36" fill="white"/>
</mask>
<g mask="url(#mask0_5905_27804)">
<path d="M3.05446 18.8605C2.93312 18.7379 2.87232 18.5869 2.87207 18.4074C2.87182 18.228 2.93548 18.0737 3.06306 17.9446C3.20383 17.8046 3.35819 17.7341 3.52613 17.7331C3.69407 17.7321 3.84195 17.8026 3.96977 17.9446L10.0073 24.0299L10.7548 23.2748C10.8512 23.2305 10.9703 23.2186 11.1121 23.2393C11.2541 23.2599 11.3829 23.3286 11.4986 23.4454C11.6264 23.5874 11.6929 23.7423 11.6981 23.9102C11.7036 24.0778 11.6361 24.2262 11.4956 24.3553L10.7712 25.087C10.554 25.3176 10.2983 25.4333 10.0043 25.4343C9.71054 25.4353 9.45502 25.3196 9.23775 25.087L3.05446 18.8605ZM17.8033 24.0272L31.2945 10.4182C31.4161 10.2953 31.5625 10.2297 31.7337 10.2211C31.9048 10.2123 32.0607 10.2724 32.2012 10.4016C32.3398 10.5435 32.4095 10.6993 32.4105 10.869C32.4115 11.0389 32.3418 11.1884 32.2012 11.3175L18.5699 25.087C18.3526 25.3196 18.0971 25.4358 17.8033 25.4358C17.5093 25.4358 17.2538 25.3196 17.0368 25.087L10.8725 18.8605C10.7405 18.7399 10.6737 18.5894 10.6722 18.4089C10.671 18.2285 10.7397 18.0737 10.8785 17.9446C11.0061 17.8026 11.1545 17.7316 11.3236 17.7316C11.4926 17.7316 11.6473 17.8026 11.7878 17.9446L17.8033 24.0272ZM24.3996 11.3201L17.2188 18.5739C17.0992 18.6948 16.9543 18.7589 16.7841 18.7665C16.6139 18.7743 16.4586 18.7082 16.318 18.5683C16.1773 18.4263 16.1069 18.2732 16.1069 18.1088C16.1069 17.9447 16.1773 17.7915 16.318 17.6493L23.4929 10.4016C23.6125 10.281 23.7584 10.2158 23.9305 10.206C24.1027 10.1964 24.2591 10.2616 24.3996 10.4016C24.5401 10.5435 24.6104 10.6967 24.6104 10.861C24.6104 11.0251 24.5401 11.1782 24.3996 11.3201Z" fill="white"/>
</g>
</svg>
