<svg width="22" height="18" viewBox="0 0 22 18" fill="none" xmlns="http://www.w3.org/2000/svg">
<path d="M9.96938 18C10.6633 18 11.1633 17.5092 11.1633 16.8517V13.1025H11.4592C15.4184 13.1025 17.9082 14.0644 19.6939 17.2737C20.051 17.9018 20.5204 18 20.949 18C21.4898 18 22 17.5289 22 16.6849C22 9.43182 18.8062 4.90731 11.4592 4.90731H11.1633V1.19738C11.1633 0.539803 10.6633 0 9.94901 0C9.44902 0 9.11222 0.206107 8.57144 0.696837L0.520408 7.94002C0.122449 8.30315 0 8.66633 0 9C0 9.32387 0.132653 9.69681 0.520408 10.0502L8.57144 17.3621C9.06119 17.8037 9.4694 18 9.96938 18ZM9.96938 16.7503C9.80953 16.7503 9.57824 16.7503 9.14287 16.3315L2.12245 10.0502C2.04082 9.9716 1.2517 9.41876 1.2517 9C1.2517 8.58124 2.04082 8.00878 2.12245 7.94002L9.22108 1.68815C9.27211 1.6489 9.74833 1.21048 9.94901 1.26937C10.1497 1.32825 10.1701 1.32825 10.1701 2.19192V5.53871C10.1701 5.76444 10.2823 5.86259 10.517 5.86259H11.1633C18.1633 5.86259 20.6939 10.4427 20.898 15.0752C20.9059 15.2555 20.9711 16.6799 20.898 16.7503C20.7075 16.9335 20.3164 15.8702 20.2857 15.8015C19.0817 13.3381 15.9627 11.928 11.1157 11.928H10.398C10.2449 11.928 10.1701 12.0098 10.1701 12.1701V15.7427C10.1701 15.8309 10.1701 16.7503 9.96938 16.7503Z" fill="white" fill-opacity="0.3"/>
</svg>
