<svg width="28" height="28" viewBox="0 0 28 28" fill="none" xmlns="http://www.w3.org/2000/svg">
<path d="M12.9694 23C13.6633 23 14.1633 22.5092 14.1633 21.8517V18.1025H14.4592C18.4184 18.1025 20.9082 19.0644 22.6939 22.2737C23.051 22.9018 23.5204 23 23.949 23C24.4898 23 25 22.5289 25 21.6849C25 14.4318 21.8062 9.90731 14.4592 9.90731H14.1633V6.19738C14.1633 5.5398 13.6633 5 12.949 5C12.449 5 12.1122 5.20611 11.5714 5.69684L3.52041 12.94C3.12245 13.3032 3 13.6663 3 14C3 14.3239 3.13265 14.6968 3.52041 15.0502L11.5714 22.3621C12.0612 22.8037 12.4694 23 12.9694 23ZM12.9694 21.7503C12.8095 21.7503 12.5782 21.7503 12.1429 21.3315L5.12245 15.0502C5.04082 14.9716 4.2517 14.4188 4.2517 14C4.2517 13.5812 5.04082 13.0088 5.12245 12.94L12.2211 6.68815C12.2721 6.6489 12.7483 6.21048 12.949 6.26937C13.1497 6.32825 13.1701 6.32825 13.1701 7.19192V10.5387C13.1701 10.7644 13.2823 10.8626 13.517 10.8626H14.1633C21.1633 10.8626 23.6939 15.4427 23.898 20.0752C23.9059 20.2555 23.9711 21.6799 23.898 21.7503C23.7075 21.9335 23.3164 20.8702 23.2857 20.8015C22.0817 18.3381 18.9627 16.928 14.1157 16.928H13.398C13.2449 16.928 13.1701 17.0098 13.1701 17.1701V20.7427C13.1701 20.8309 13.1701 21.7503 12.9694 21.7503Z" fill="white" fill-opacity="0.3"/>
</svg>
