<svg width="32" height="32" viewBox="0 0 32 32" fill="none" xmlns="http://www.w3.org/2000/svg">
<mask id="mask0_3368_16320" style="mask-type:alpha" maskUnits="userSpaceOnUse" x="0" y="0" width="32" height="32">
<rect width="32" height="32" fill="#D9D9D9"/>
</mask>
<g mask="url(#mask0_3368_16320)">
<path d="M16.5967 15.7607V9.76233C16.5967 9.59856 16.5434 9.46355 16.437 9.35733C16.3308 9.25133 16.1957 9.19833 16.0317 9.19833C15.8674 9.19833 15.7326 9.25133 15.627 9.35733C15.5212 9.46355 15.4683 9.59856 15.4683 9.76233V15.8437C15.4683 15.973 15.4914 16.0943 15.5377 16.2077C15.5839 16.321 15.656 16.4284 15.754 16.53L20.6 21.436C20.7064 21.546 20.8414 21.6043 21.005 21.611C21.1686 21.6179 21.3122 21.5596 21.436 21.436C21.5596 21.3122 21.6213 21.1738 21.6213 21.0207C21.6213 20.8673 21.5596 20.7346 21.436 20.6223L16.5967 15.7607ZM16.0043 28C14.3486 28 12.793 27.6851 11.3377 27.0553C9.88256 26.4256 8.611 25.5672 7.523 24.4803C6.435 23.3932 5.57589 22.1228 4.94567 20.669C4.31522 19.2152 4 17.6603 4 16.0043C4 14.3486 4.31489 12.793 4.94467 11.3377C5.57444 9.88256 6.43278 8.611 7.51967 7.523C8.60678 6.435 9.87722 5.57589 11.331 4.94567C12.7848 4.31522 14.3397 4 15.9957 4C17.6514 4 19.207 4.31489 20.6623 4.94467C22.1174 5.57445 23.389 6.43278 24.477 7.51967C25.565 8.60678 26.4241 9.87722 27.0543 11.331C27.6848 12.7848 28 14.3397 28 15.9957C28 17.6514 27.6851 19.207 27.0553 20.6623C26.4256 22.1174 25.5672 23.389 24.4803 24.477C23.3932 25.565 22.1228 26.4241 20.669 27.0543C19.2152 27.6848 17.6603 28 16.0043 28ZM16 26.8717C19.0022 26.8717 21.5648 25.8103 23.6877 23.6877C25.8103 21.5648 26.8717 19.0022 26.8717 16C26.8717 12.9978 25.8103 10.4352 23.6877 8.31233C21.5648 6.18967 19.0022 5.12833 16 5.12833C12.9978 5.12833 10.4352 6.18967 8.31233 8.31233C6.18967 10.4352 5.12833 12.9978 5.12833 16C5.12833 19.0022 6.18967 21.5648 8.31233 23.6877C10.4352 25.8103 12.9978 26.8717 16 26.8717Z" fill="white" fill-opacity="0.3"/>
</g>
</svg>
