<svg width="20" height="20" viewBox="0 0 20 20" fill="none" xmlns="http://www.w3.org/2000/svg">
<path fill-rule="evenodd" clip-rule="evenodd" d="M8.68182 3.5C5.81998 3.5 3.5 5.81998 3.5 8.68182C3.5 11.5437 5.81998 13.8636 8.68182 13.8636C11.5437 13.8636 13.8636 11.5437 13.8636 8.68182C13.8636 5.81998 11.5437 3.5 8.68182 3.5ZM2 8.68182C2 4.99155 4.99155 2 8.68182 2C12.3721 2 15.3636 4.99155 15.3636 8.68182C15.3636 10.2567 14.8188 11.7044 13.9072 12.8466L17.7803 16.7197C18.0732 17.0126 18.0732 17.4874 17.7803 17.7803C17.4874 18.0732 17.0126 18.0732 16.7197 17.7803L12.8466 13.9072C11.7044 14.8188 10.2567 15.3636 8.68182 15.3636C4.99155 15.3636 2 12.3721 2 8.68182Z" fill="white" fill-opacity="0.3"/>
</svg>
