<svg width="28" height="28" viewBox="0 0 28 28" fill="none" xmlns="http://www.w3.org/2000/svg">
<mask id="mask0_5708_31075" style="mask-type:alpha" maskUnits="userSpaceOnUse" x="0" y="0" width="28" height="28">
<rect width="28" height="28" fill="#D9D9D9"/>
</mask>
<g mask="url(#mask0_5708_31075)">
<path d="M12.2528 19.3401C10.2341 19.3401 8.52335 18.6395 7.12053 17.2384C5.71791 15.8373 5.0166 14.131 5.0166 12.1196C5.0166 10.1084 5.71696 8.40218 7.11768 7.00108C8.51839 5.59997 10.2237 4.89941 12.2335 4.89941C14.2435 4.89941 15.9521 5.59997 17.3591 7.00108C18.766 8.40218 19.4694 10.1075 19.4694 12.1171C19.4694 12.9909 19.3134 13.844 19.0015 14.6766C18.6895 15.5092 18.2628 16.2317 17.7213 16.8439L22.3517 21.4494C22.4529 21.5444 22.5076 21.6704 22.5158 21.8274C22.5239 21.9844 22.4692 22.119 22.3517 22.2311C22.2341 22.3433 22.1009 22.3994 21.9522 22.3994C21.8033 22.3994 21.6732 22.3406 21.5619 22.2229L16.953 17.6124C16.3236 18.1701 15.593 18.5975 14.7613 18.8945C13.9298 19.1916 13.0936 19.3401 12.2528 19.3401ZM12.2478 18.2674C13.9722 18.2674 15.4283 17.6749 16.6159 16.4899C17.8035 15.3049 18.3973 13.8482 18.3973 12.1196C18.3973 10.391 17.8035 8.93425 16.6159 7.74927C15.4283 6.56428 13.9722 5.97179 12.2478 5.97179C10.5207 5.97179 9.06246 6.56428 7.87295 7.74927C6.68344 8.93425 6.08868 10.391 6.08868 12.1196C6.08868 13.8482 6.68344 15.3049 7.87295 16.4899C9.06246 17.6749 10.5207 18.2674 12.2478 18.2674Z" fill="#989898"/>
</g>
</svg>
