<svg width="28" height="28" viewBox="0 0 28 28" fill="none" xmlns="http://www.w3.org/2000/svg">
<g clip-path="url(#clip0_1496_3388)">
<mask id="mask0_1496_3388" style="mask-type:alpha" maskUnits="userSpaceOnUse" x="0" y="0" width="28" height="28">
<rect width="28" height="28" fill="#D9D9D9"/>
</mask>
<g mask="url(#mask0_1496_3388)">
<path d="M13.5 20.7708L8.56406 22.8446C7.94448 23.0935 7.36219 23.0434 6.81719 22.6941C6.2724 22.3447 6 21.8494 6 21.2083V6.77768C6 6.28758 6.17646 5.86883 6.52938 5.52142C6.88229 5.1738 7.31479 5 7.82687 5H19.1731C19.6852 5 20.1177 5.1738 20.4706 5.52142C20.8235 5.86883 21 6.28758 21 6.77768V21.2083C21 21.8494 20.7276 22.3447 20.1828 22.6941C19.6378 23.0434 19.0555 23.0935 18.4359 22.8446L13.5 20.7708Z" fill="#F04C4C"/>
</g>
</g>
<defs>
<clipPath id="clip0_1496_3388">
<rect width="28" height="28" fill="white"/>
</clipPath>
</defs>
</svg>
