<svg width="21" height="21" viewBox="0 0 21 21" fill="none" xmlns="http://www.w3.org/2000/svg">
<path fill-rule="evenodd" clip-rule="evenodd" d="M6.4085 20.1734C7.68678 20.7245 9.05188 21 10.5038 21C11.9559 21 13.3204 20.7242 14.5973 20.1725C15.8744 19.6211 16.9853 18.8726 17.9299 17.927C18.8745 16.9814 19.6224 15.8696 20.1734 14.5915C20.7245 13.3132 21 11.9481 21 10.4962C21 9.0441 20.2972 7.9095 19.7455 6.63258C19.1941 5.35547 18.4456 4.44461 17.5 3.5C16.5544 2.55539 15.4426 1.60756 14.1645 1.0565C12.8862 0.505445 11.9481 0 10.4962 0C9.0441 0 7.67958 0.275819 6.40267 0.827458C5.12556 1.3789 4.01469 2.12742 3.07008 3.073C2.12547 4.01858 1.37764 5.13042 0.826583 6.4085C0.275528 7.68678 0 9.05188 0 10.5038C0 11.9559 0.275819 13.3204 0.827458 14.5973C1.3789 15.8744 2.12742 16.9853 3.073 17.9299C4.01858 18.8745 5.13042 19.6224 6.4085 20.1734ZM17.2471 17.2486C15.4034 19.0913 13.1539 20.0127 10.4985 20.0127C7.84321 20.0127 5.59417 19.0908 3.75142 17.2471C1.90867 15.4034 0.987292 13.1539 0.987292 10.4985C0.987292 7.84321 1.90915 5.59417 3.75287 3.75142C5.5966 1.90867 6.84467 1.5 9.5 1.5C10.9958 1.5 11.1731 2.82295 11.3722 4.30795C11.5265 5.45909 11.6939 6.7076 12.4985 7.51271C13.2832 8.29779 14.5805 8.56769 15.8116 8.82382C17.4716 9.16919 19.5 9.97534 19.5 11.5C19.5 14.1553 19.0908 15.4058 17.2471 17.2486ZM18.2738 6.1891C17.4316 4.94541 16.3699 3.86562 15.1406 3.00265L14.3809 2.46935C13.4672 1.82798 12.4492 1.34994 11.3722 1.0565L11.6168 1.61892C11.8717 2.20496 12.0698 2.81408 12.2084 3.43792L12.7468 5.86053C12.9032 6.5646 13.4267 7.1299 14.1167 7.33996L16.3299 8.01376C17.3873 8.33569 18.3841 8.83072 19.2796 9.4787L20 10C19.6692 8.67694 19.1088 7.42222 18.3441 6.29297L18.2738 6.1891Z" fill="white" fill-opacity="0.3"/>
</svg>
