<svg width="24" height="24" viewBox="0 0 24 24" fill="none" xmlns="http://www.w3.org/2000/svg">
<path d="M12.0117 18.5077C13.0992 18.5077 14.1304 18.243 15.1053 17.7137C16.0802 17.1843 16.8642 16.4599 17.4573 15.5403C17.5776 15.3652 17.5831 15.1876 17.474 15.0073C17.3649 14.8269 17.2092 14.7367 17.007 14.7367C16.9203 14.7367 16.8436 14.7584 16.7767 14.802C16.7096 14.8458 16.647 14.901 16.589 14.9677C16.0743 15.735 15.4172 16.3382 14.6177 16.7773C13.8183 17.2164 12.9472 17.436 12.0043 17.436C11.0783 17.436 10.2108 17.221 9.40167 16.791C8.59256 16.361 7.93078 15.7549 7.41633 14.9727C7.37122 14.906 7.314 14.85 7.24467 14.8047C7.17533 14.7593 7.098 14.7367 7.01267 14.7367C6.81089 14.7367 6.657 14.8259 6.551 15.0043C6.44522 15.1826 6.45245 15.3703 6.57267 15.5677C7.18444 16.4966 7.96733 17.2188 8.92133 17.7343C9.87533 18.2499 10.9054 18.5077 12.0117 18.5077ZM16.4813 10.0187C16.8704 10.0187 17.2038 9.878 17.4813 9.59667C17.7587 9.31511 17.8973 8.97978 17.8973 8.59067C17.8973 8.20156 17.7567 7.86822 17.4753 7.59067C17.1938 7.31311 16.8584 7.17433 16.4693 7.17433C16.08 7.17433 15.7467 7.31511 15.4693 7.59667C15.1918 7.87822 15.053 8.21356 15.053 8.60267C15.053 8.99178 15.1938 9.32511 15.4753 9.60267C15.7569 9.88 16.0922 10.0187 16.4813 10.0187ZM7.53067 10.0187C7.92 10.0187 8.25333 9.878 8.53067 9.59667C8.80822 9.31511 8.947 8.97978 8.947 8.59067C8.947 8.20156 8.80622 7.86822 8.52467 7.59067C8.24311 7.31311 7.90778 7.17433 7.51867 7.17433C7.12956 7.17433 6.79622 7.31511 6.51867 7.59667C6.24133 7.87822 6.10267 8.21356 6.10267 8.60267C6.10267 8.99178 6.24333 9.32511 6.52467 9.60267C6.80622 9.88 7.14156 10.0187 7.53067 10.0187ZM12.0043 24C10.345 24 8.78489 23.6851 7.324 23.0553C5.86333 22.4256 4.59267 21.5709 3.512 20.4913C2.43133 19.4118 1.57589 18.1422 0.945666 16.6827C0.315222 15.2233 0 13.6639 0 12.0043C0 10.345 0.314889 8.78489 0.944667 7.324C1.57444 5.86333 2.42911 4.59267 3.50867 3.512C4.58822 2.43133 5.85778 1.57589 7.31733 0.945666C8.77667 0.315222 10.3361 0 11.9957 0C13.655 0 15.2151 0.31489 16.676 0.944668C18.1367 1.57445 19.4073 2.42911 20.488 3.50867C21.5687 4.58822 22.4241 5.85778 23.0543 7.31733C23.6848 8.77667 24 10.3361 24 11.9957C24 13.655 23.6851 15.2151 23.0553 16.676C22.4256 18.1367 21.5709 19.4073 20.4913 20.488C19.4118 21.5687 18.1422 22.4241 16.6827 23.0543C15.2233 23.6848 13.6639 24 12.0043 24ZM11.9983 22.8717C15.033 22.8717 17.6039 21.8187 19.711 19.7127C21.8181 17.6067 22.8717 15.0363 22.8717 12.0017C22.8717 8.967 21.8187 6.39611 19.7127 4.289C17.6067 2.18189 15.0363 1.12833 12.0017 1.12833C8.967 1.12833 6.39611 2.18133 4.289 4.28733C2.18189 6.39333 1.12833 8.96367 1.12833 11.9983C1.12833 15.033 2.18133 17.6039 4.28733 19.711C6.39333 21.8181 8.96367 22.8717 11.9983 22.8717Z" fill="white" fill-opacity="0.3"/>
</svg>
