<svg width="32" height="32" viewBox="0 0 32 32" fill="none" xmlns="http://www.w3.org/2000/svg">
<mask id="mask0_4997_25070" style="mask-type:alpha" maskUnits="userSpaceOnUse" x="0" y="0" width="32" height="32">
<rect width="32" height="32" fill="white"/>
</mask>
<g mask="url(#mask0_4997_25070)">
<path d="M4.559 15.846C4.39767 15.846 4.26422 15.792 4.15867 15.684C4.05289 15.5758 4 15.4418 4 15.282V11.3847C4 11.2249 4.05456 11.0909 4.16367 10.9827C4.27278 10.8747 4.408 10.8207 4.56933 10.8207C4.73044 10.8207 4.86389 10.8747 4.96967 10.9827C5.07544 11.0909 5.12833 11.2249 5.12833 11.3847V15.282C5.12833 15.4418 5.07378 15.5758 4.96467 15.684C4.85556 15.792 4.72033 15.846 4.559 15.846ZM4.61467 25.299C4.45444 25.2403 4.312 25.1373 4.18733 24.99C4.06244 24.8424 4 24.654 4 24.4247V19.3847C4 19.2249 4.05456 19.0909 4.16367 18.9827C4.27278 18.8747 4.408 18.8207 4.56933 18.8207C4.73044 18.8207 4.86389 18.8747 4.96967 18.9827C5.07544 19.0909 5.12833 19.2249 5.12833 19.3847V24.0813L7.60867 21.5383H9.94867C10.1084 21.5383 10.2424 21.5929 10.3507 21.702C10.4587 21.8111 10.5127 21.9463 10.5127 22.1077C10.5127 22.269 10.4587 22.4024 10.3507 22.508C10.2424 22.6138 10.1084 22.6667 9.94867 22.6667H8.10267L5.64967 25.1197C5.50744 25.2668 5.34222 25.351 5.154 25.3723C4.96578 25.3937 4.786 25.3692 4.61467 25.299ZM14.0513 22.6667C13.8916 22.6667 13.7576 22.6121 13.6493 22.503C13.5413 22.3939 13.4873 22.2587 13.4873 22.0973C13.4873 21.9362 13.5413 21.8028 13.6493 21.697C13.7576 21.5912 13.8916 21.5383 14.0513 21.5383H17.9487C18.1084 21.5383 18.2424 21.5929 18.3507 21.702C18.4587 21.8111 18.5127 21.9463 18.5127 22.1077C18.5127 22.269 18.4587 22.4024 18.3507 22.508C18.2424 22.6138 18.1084 22.6667 17.9487 22.6667H14.0513ZM22.0513 22.6667C21.8916 22.6667 21.7576 22.6121 21.6493 22.503C21.5413 22.3939 21.4873 22.2587 21.4873 22.0973C21.4873 21.9362 21.5413 21.8028 21.6493 21.697C21.7576 21.5912 21.8916 21.5383 22.0513 21.5383H26.0513C26.2564 21.5383 26.4444 21.4529 26.6153 21.282C26.7862 21.1111 26.8717 20.9231 26.8717 20.718V19.3847C26.8717 19.2249 26.9262 19.0909 27.0353 18.9827C27.1444 18.8747 27.2797 18.8207 27.441 18.8207C27.6023 18.8207 27.7358 18.8747 27.8413 18.9827C27.9471 19.0909 28 19.2249 28 19.3847V20.718C28 21.2642 27.8118 21.7256 27.4353 22.102C27.0589 22.4784 26.5976 22.6667 26.0513 22.6667H22.0513ZM27.0303 15.684C26.9246 15.5758 26.8717 15.4418 26.8717 15.282V11.3847C26.8717 11.2249 26.9262 11.0909 27.0353 10.9827C27.1444 10.8747 27.2797 10.8207 27.441 10.8207C27.6023 10.8207 27.7358 10.8747 27.8413 10.9827C27.9471 11.0909 28 11.2249 28 11.3847V15.282C28 15.4418 27.9454 15.5758 27.8363 15.684C27.7272 15.792 27.592 15.846 27.4307 15.846C27.2696 15.846 27.1361 15.792 27.0303 15.684ZM27.0303 7.69167C26.9246 7.58344 26.8717 7.44944 26.8717 7.28967V5.94867C26.8717 5.74356 26.7862 5.55555 26.6153 5.38467C26.4444 5.21378 26.2564 5.12833 26.0513 5.12833H22.0513C21.8916 5.12833 21.7576 5.07378 21.6493 4.96467C21.5413 4.85556 21.4873 4.72033 21.4873 4.559C21.4873 4.39767 21.5413 4.26422 21.6493 4.15867C21.7576 4.05289 21.8916 4 22.0513 4H26.0513C26.5976 4 27.0589 4.18822 27.4353 4.56467C27.8118 4.94111 28 5.40245 28 5.94867V7.28967C28 7.44944 27.9454 7.58344 27.8363 7.69167C27.7272 7.79989 27.592 7.854 27.4307 7.854C27.2696 7.854 27.1361 7.79989 27.0303 7.69167ZM14.0513 5.12833C13.8916 5.12833 13.7576 5.07378 13.6493 4.96467C13.5413 4.85556 13.4873 4.72033 13.4873 4.559C13.4873 4.39767 13.5413 4.26422 13.6493 4.15867C13.7576 4.05289 13.8916 4 14.0513 4H17.9487C18.1084 4 18.2424 4.05455 18.3507 4.16367C18.4587 4.27278 18.5127 4.408 18.5127 4.56933C18.5127 4.73045 18.4587 4.86389 18.3507 4.96967C18.2424 5.07545 18.1084 5.12833 17.9487 5.12833H14.0513ZM4.559 7.854C4.39767 7.854 4.26422 7.79989 4.15867 7.69167C4.05289 7.58344 4 7.44944 4 7.28967V5.94867C4 5.40245 4.18822 4.94111 4.56467 4.56467C4.94111 4.18822 5.40244 4 5.94867 4H9.94867C10.1084 4 10.2424 4.05455 10.3507 4.16367C10.4587 4.27278 10.5127 4.408 10.5127 4.56933C10.5127 4.73045 10.4587 4.86389 10.3507 4.96967C10.2424 5.07545 10.1084 5.12833 9.94867 5.12833H5.94867C5.74356 5.12833 5.55556 5.21378 5.38467 5.38467C5.21378 5.55555 5.12833 5.74356 5.12833 5.94867V7.28967C5.12833 7.44944 5.07378 7.58344 4.96467 7.69167C4.85556 7.79989 4.72033 7.854 4.559 7.854Z" fill="white" fill-opacity="0.3"/>
</g>
</svg>
