<svg width="32" height="32" viewBox="0 0 32 32" fill="none" xmlns="http://www.w3.org/2000/svg">
<mask id="mask0_3935_15629" style="mask-type:alpha" maskUnits="userSpaceOnUse" x="0" y="0" width="32" height="32">
<rect width="32" height="32" fill="#D9D9D9"/>
</mask>
<g mask="url(#mask0_3935_15629)">
<path d="M10.8497 9.49233L14.3803 4.79066C14.5883 4.51244 14.8313 4.31022 15.1093 4.184C15.3871 4.058 15.6844 3.995 16.0013 3.995C16.3182 3.995 16.6151 4.058 16.892 4.184C17.1687 4.31022 17.4112 4.51244 17.6197 4.79066L21.1503 9.49233L26.5907 11.3443C27.0442 11.4937 27.3929 11.7502 27.6367 12.114C27.8807 12.4778 28.0027 12.8796 28.0027 13.3193C28.0027 13.5224 27.9723 13.7264 27.9117 13.9313C27.851 14.136 27.7522 14.3244 27.6153 14.4967L24.065 19.3247L24.1983 24.536C24.2172 25.1258 24.0204 25.6283 23.608 26.0437C23.1958 26.459 22.7074 26.6667 22.143 26.6667C22.1508 26.6667 21.9547 26.6419 21.5547 26.5923L16 24.9497L10.4473 26.5913C10.3349 26.6364 10.2286 26.6602 10.1283 26.6627C10.0283 26.6653 9.93667 26.6667 9.85333 26.6667C9.27822 26.6667 8.78689 26.4591 8.37933 26.044C7.972 25.6291 7.77944 25.119 7.80167 24.5137L7.935 19.295L4.37 14.4913C4.24444 14.3049 4.15144 14.1104 4.091 13.908C4.03033 13.7056 4 13.5032 4 13.301C4 12.869 4.12578 12.4667 4.37733 12.094C4.62889 11.7213 4.98144 11.4629 5.435 11.3187L10.8497 9.49233Z" fill="#FFD633"/>
</g>
</svg>
