<svg width="32" height="32" viewBox="0 0 32 32" fill="none" xmlns="http://www.w3.org/2000/svg">
<mask id="mask0_1614_5664" style="mask-type:alpha" maskUnits="userSpaceOnUse" x="0" y="0" width="32" height="32">
<rect width="32" height="32" fill="#D9D9D9"/>
</mask>
<g mask="url(#mask0_1614_5664)">
<path d="M16.3778 25.8463C15.0896 25.8463 13.8946 25.5198 12.7928 24.8666C11.6913 24.2133 10.8262 23.3225 10.1975 22.1943C10.1355 22.0519 10.1292 21.905 10.1785 21.7536C10.2276 21.6023 10.3317 21.4956 10.4908 21.4336C10.6435 21.355 10.8015 21.3432 10.9648 21.3983C11.1279 21.4532 11.2616 21.557 11.3658 21.7096C11.9016 22.6099 12.6126 23.3159 13.4988 23.8276C14.3853 24.3394 15.3467 24.5953 16.3832 24.5953C17.6241 24.5953 18.7222 24.2423 19.6775 23.5363C20.6328 22.8303 21.1105 21.899 21.1105 20.7423C21.1105 20.365 21.0741 19.9905 21.0012 19.619C20.9281 19.2476 20.8021 18.8904 20.6232 18.5473C20.5434 18.3991 20.5303 18.2472 20.5838 18.0916C20.6374 17.9361 20.7439 17.8184 20.9035 17.7386C21.0597 17.6475 21.2174 17.6324 21.3765 17.6933C21.5358 17.7544 21.6628 17.8573 21.7575 18.002C21.9922 18.4129 22.1519 18.8496 22.2368 19.3123C22.3217 19.775 22.3642 20.2391 22.3642 20.7046C22.3642 22.2129 21.7641 23.4469 20.5638 24.4066C19.3636 25.3664 17.9683 25.8463 16.3778 25.8463ZM3.8975 15.231C3.73283 15.231 3.59772 15.1782 3.49216 15.0726C3.38639 14.9669 3.3335 14.8316 3.3335 14.667C3.3335 14.5023 3.38639 14.3671 3.49216 14.2613C3.59772 14.1558 3.73283 14.103 3.8975 14.103H28.1028C28.2675 14.103 28.4026 14.1558 28.5082 14.2613C28.6139 14.3671 28.6668 14.5023 28.6668 14.667C28.6668 14.8316 28.6139 14.9669 28.5082 15.0726C28.4026 15.1782 28.2675 15.231 28.1028 15.231H3.8975ZM11.0618 11.6456C10.8903 11.6628 10.7378 11.6188 10.6045 11.5136C10.4712 11.4085 10.3959 11.2645 10.3788 11.0816C10.2962 9.62231 10.8235 8.41997 11.9608 7.47464C13.0982 6.52931 14.4417 6.05664 15.9915 6.05664C16.9386 6.05664 17.8314 6.25209 18.6698 6.64297C19.5083 7.03386 20.2144 7.59853 20.7882 8.33697C20.8777 8.4612 20.9134 8.60764 20.8952 8.77631C20.8769 8.94497 20.7974 9.07231 20.6565 9.15831C20.5203 9.25297 20.3641 9.28575 20.1878 9.25664C20.0114 9.22753 19.8639 9.14753 19.7455 9.01664C19.2982 8.4462 18.7443 8.01886 18.0838 7.73464C17.4234 7.4502 16.7219 7.30797 15.9795 7.30797C14.8213 7.30797 13.8048 7.64497 12.9302 8.31897C12.0555 8.9932 11.6207 9.87353 11.6258 10.96C11.6429 11.1446 11.5961 11.3036 11.4852 11.437C11.3743 11.5703 11.2332 11.6399 11.0618 11.6456Z" fill="white" fill-opacity="0.3"/>
</g>
</svg>
