<svg width="32" height="32" viewBox="0 0 32 32" fill="none" xmlns="http://www.w3.org/2000/svg">
<mask id="mask0_1636_8619" style="mask-type:alpha" maskUnits="userSpaceOnUse" x="0" y="0" width="32" height="32">
<rect width="32" height="32" fill="#D9D9D9"/>
</mask>
<g mask="url(#mask0_1636_8619)">
<path d="M6.58929 25.3332C6.04307 25.3332 5.58174 25.1449 5.20529 24.7685C4.82885 24.3921 4.64062 23.9307 4.64062 23.3845V8.61517C4.64062 8.06895 4.82885 7.60762 5.20529 7.23117C5.58174 6.85473 6.04307 6.6665 6.58929 6.6665H21.3586C21.9049 6.6665 22.3662 6.85473 22.7426 7.23117C23.1191 7.60762 23.3073 8.06895 23.3073 8.61517V15.1708L26.5056 11.9725C26.655 11.8232 26.8344 11.7864 27.044 11.8622C27.2537 11.9379 27.3586 12.0835 27.3586 12.2988V19.7008C27.3586 19.9162 27.2537 20.0617 27.044 20.1375C26.8344 20.2133 26.655 20.1765 26.5056 20.0272L23.3073 16.8118V23.3845C23.3073 23.9307 23.1191 24.3921 22.7426 24.7685C22.3662 25.1449 21.9049 25.3332 21.3586 25.3332H6.58929ZM6.58929 24.2048H21.3586C21.598 24.2048 21.7945 24.1279 21.9483 23.9742C22.1021 23.8204 22.179 23.6238 22.179 23.3845V8.61517C22.179 8.37584 22.1021 8.17928 21.9483 8.0255C21.7945 7.87173 21.598 7.79484 21.3586 7.79484H6.58929C6.34996 7.79484 6.1534 7.87173 5.99963 8.0255C5.84585 8.17928 5.76896 8.37584 5.76896 8.61517V23.3845C5.76896 23.6238 5.84585 23.8204 5.99963 23.9742C6.1534 24.1279 6.34996 24.2048 6.58929 24.2048Z" fill="white" fill-opacity="0.3"/>
</g>
</svg>
