<svg width="28" height="28" viewBox="0 0 28 28" fill="none" xmlns="http://www.w3.org/2000/svg">
<mask id="mask0_3699_14792" style="mask-type:alpha" maskUnits="userSpaceOnUse" x="0" y="0" width="28" height="28">
<rect width="28" height="28" fill="#D9D9D9"/>
</mask>
<g mask="url(#mask0_3699_14792)">
<path d="M14.0072 17.5899C15.1593 17.5899 16.1415 17.1812 16.9539 16.3637C17.7665 15.5461 18.1728 14.5612 18.1728 13.4091C18.1728 12.257 17.7641 11.2748 16.9466 10.4624C16.129 9.64983 15.1441 9.24354 13.9921 9.24354C12.84 9.24354 11.8577 9.65226 11.0454 10.4697C10.2328 11.2873 9.82648 12.2722 9.82648 13.4243C9.82648 14.5764 10.2352 15.5586 11.0526 16.371C11.8703 17.1836 12.8551 17.5899 14.0072 17.5899ZM13.9924 16.5997C13.1063 16.5997 12.3555 16.2895 11.7401 15.6692C11.1245 15.049 10.8167 14.2957 10.8167 13.4094C10.8167 12.5233 11.1268 11.7726 11.7471 11.1572C12.3674 10.5416 13.1207 10.2337 14.0069 10.2337C14.893 10.2337 15.6438 10.5439 16.2592 11.1642C16.8748 11.7844 17.1826 12.5377 17.1826 13.424C17.1826 14.3101 16.8725 15.0608 16.2522 15.6762C15.6319 16.2919 14.8786 16.5997 13.9924 16.5997ZM13.9996 21C11.6902 21 9.57088 20.3788 7.6416 19.1363C5.71232 17.894 4.15093 16.2826 2.95743 14.3022C2.86313 14.1523 2.79624 14.0049 2.75677 13.86C2.7171 13.7152 2.69727 13.5664 2.69727 13.4138C2.69727 13.2613 2.7171 13.1135 2.75677 12.9702C2.79624 12.8267 2.86313 12.6803 2.95743 12.5312C4.15093 10.5508 5.71232 8.93943 7.6416 7.69712C9.57088 6.45462 11.6902 5.83337 13.9996 5.83337C16.3091 5.83337 18.4284 6.45462 20.3577 7.69712C22.287 8.93943 23.8484 10.5508 25.0419 12.5312C25.1362 12.6811 25.203 12.8285 25.2425 12.9734C25.2822 13.1182 25.302 13.267 25.302 13.4196C25.302 13.5721 25.2822 13.7199 25.2425 13.8632C25.203 14.0067 25.1362 14.1531 25.0419 14.3022C23.8484 16.2826 22.287 17.894 20.3577 19.1363C18.4284 20.3788 16.3091 21 13.9996 21ZM13.9964 20.0127C16.2497 20.0127 18.3154 19.4178 20.1938 18.228C22.0721 17.0382 23.5069 15.4345 24.4982 13.4167C23.5069 11.399 22.0732 9.79518 20.197 8.60537C18.3208 7.41557 16.2561 6.82066 14.0028 6.82066C11.7496 6.82066 9.68385 7.41557 7.80552 8.60537C5.92718 9.79518 4.49092 11.399 3.49672 13.4167C4.49092 15.4345 5.92611 17.0382 7.80231 18.228C9.6785 19.4178 11.7432 20.0127 13.9964 20.0127Z" fill="white" fill-opacity="0.3"/>
</g>
</svg>
