<svg width="28" height="28" viewBox="0 0 28 28" fill="none" xmlns="http://www.w3.org/2000/svg">
<mask id="mask0_5708_31111" style="mask-type:alpha" maskUnits="userSpaceOnUse" x="0" y="0" width="28" height="28">
<rect width="28" height="28" fill="#D9D9D9"/>
</mask>
<g mask="url(#mask0_5708_31111)">
<path d="M14.0075 17.5895C15.1596 17.5895 16.1418 17.1808 16.9542 16.3633C17.7668 15.5457 18.1731 14.5608 18.1731 13.4088C18.1731 12.2567 17.7643 11.2744 16.9469 10.4621C16.1292 9.64947 15.1444 9.24317 13.9923 9.24317C12.8402 9.24317 11.858 9.6519 11.0456 10.4693C10.233 11.287 9.82672 12.2718 9.82672 13.4239C9.82672 14.576 10.2354 15.5582 11.0529 16.3706C11.8705 17.1832 12.8554 17.5895 14.0075 17.5895ZM13.9926 16.5993C13.1065 16.5993 12.3558 16.2892 11.7403 15.6689C11.1247 15.0486 10.8169 14.2953 10.8169 13.409C10.8169 12.523 11.1271 11.7722 11.7473 11.1568C12.3676 10.5412 13.1209 10.2334 14.0072 10.2334C14.8933 10.2334 15.644 10.5435 16.2594 11.1638C16.875 11.7841 17.1828 12.5374 17.1828 13.4236C17.1828 14.3097 16.8727 15.0605 16.2524 15.6759C15.6321 16.2915 14.8789 16.5993 13.9926 16.5993ZM13.9999 20.9997C11.6905 20.9997 9.57112 20.3784 7.64184 19.1359C5.71257 17.8936 4.15118 16.2823 2.95768 14.3018C2.86337 14.1519 2.79648 14.0045 2.75701 13.8597C2.71734 13.7148 2.69751 13.5661 2.69751 13.4134C2.69751 13.261 2.71734 13.1131 2.75701 12.9698C2.79648 12.8263 2.86337 12.68 2.95768 12.5308C4.15118 10.5504 5.71257 8.93906 7.64184 7.69676C9.57112 6.45426 11.6905 5.83301 13.9999 5.83301C16.3093 5.83301 18.4287 6.45426 20.3579 7.69676C22.2872 8.93906 23.8486 10.5504 25.0421 12.5308C25.1364 12.6808 25.2033 12.8281 25.2428 12.973C25.2824 13.1179 25.3023 13.2666 25.3023 13.4193C25.3023 13.5717 25.2824 13.7196 25.2428 13.8629C25.2033 14.0064 25.1364 14.1527 25.0421 14.3018C23.8486 16.2823 22.2872 17.8936 20.3579 19.1359C18.4287 20.3784 16.3093 20.9997 13.9999 20.9997ZM13.9967 20.0124C16.2499 20.0124 18.3157 19.4175 20.194 18.2277C22.0723 17.0379 23.5072 15.4341 24.4984 13.4163C23.5072 11.3986 22.0734 9.79481 20.1972 8.60501C18.321 7.4152 16.2563 6.8203 14.0031 6.8203C11.7499 6.8203 9.68409 7.4152 7.80576 8.60501C5.92743 9.79481 4.49116 11.3986 3.49697 13.4163C4.49116 15.4341 5.92636 17.0379 7.80255 18.2277C9.67875 19.4175 11.7435 20.0124 13.9967 20.0124Z" fill="#989898"/>
</g>
</svg>
