<svg width="32" height="32" viewBox="0 0 32 32" fill="none" xmlns="http://www.w3.org/2000/svg">
<mask id="mask0_3368_14899" style="mask-type:alpha" maskUnits="userSpaceOnUse" x="0" y="0" width="32" height="32">
<rect width="32" height="32" fill="#D9D9D9"/>
</mask>
<g mask="url(#mask0_3368_14899)">
<path d="M25.1288 15.9662C25.1288 14.0722 24.6065 12.3509 23.5618 10.8022C22.5171 9.25334 21.1289 8.10567 19.3971 7.35923C19.2278 7.27901 19.1087 7.17345 19.0398 7.04256C18.9709 6.91189 18.9726 6.77512 19.0448 6.63223C19.1166 6.47823 19.2441 6.3819 19.4275 6.34323C19.6106 6.30434 19.7921 6.32512 19.9721 6.40556C21.8624 7.2689 23.3824 8.55356 24.5321 10.2596C25.6819 11.9658 26.2568 13.8677 26.2568 15.9652C26.2568 18.0628 25.6819 19.965 24.5321 21.6719C23.3824 23.3786 21.8624 24.6636 19.9721 25.5269C19.7921 25.6073 19.6106 25.6281 19.4275 25.5892C19.2441 25.5506 19.1166 25.4542 19.0448 25.3002C18.9726 25.1573 18.9709 25.0206 19.0398 24.8899C19.1087 24.759 19.2278 24.6535 19.3971 24.5732C21.1289 23.8268 22.5171 22.6791 23.5618 21.1302C24.6065 19.5816 25.1288 17.8602 25.1288 15.9662ZM10.3081 18.6662H6.71847C6.43847 18.6662 6.20603 18.5739 6.02114 18.3892C5.83647 18.2043 5.74414 17.9719 5.74414 17.6919V14.3072C5.74414 14.0272 5.83647 13.7948 6.02114 13.6099C6.20603 13.4252 6.43847 13.3329 6.71847 13.3329H10.3081L14.0605 9.5809C14.2489 9.39223 14.4656 9.34856 14.7105 9.4499C14.9551 9.55145 15.0775 9.72412 15.0775 9.9679V22.0142C15.0775 22.2693 14.9551 22.4477 14.7105 22.5492C14.4656 22.6506 14.2489 22.6069 14.0605 22.4182L10.3081 18.6662ZM21.0775 16.0026C21.0775 16.801 20.9199 17.5425 20.6048 18.2269C20.2897 18.9113 19.8353 19.4837 19.2415 19.9439C19.1041 20.0568 18.957 20.0743 18.8001 19.9966C18.643 19.9188 18.5645 19.7933 18.5645 19.6202V12.3176C18.5645 12.1442 18.643 12.0216 18.8001 11.9496C18.957 11.8776 19.1041 11.8908 19.2415 11.9892C19.8353 12.4541 20.2897 13.0405 20.6048 13.7482C20.9199 14.456 21.0775 15.2075 21.0775 16.0026ZM13.9491 11.3619L10.8071 14.4612H6.87214V17.5379H10.8071L13.9491 20.6422V11.3619Z" fill="white" fill-opacity="0.3"/>
</g>
</svg>
