<svg width="36" height="36" viewBox="0 0 36 36" fill="none" xmlns="http://www.w3.org/2000/svg">
<mask id="mask0_5905_27712" style="mask-type:alpha" maskUnits="userSpaceOnUse" x="0" y="0" width="36" height="36">
<rect width="36" height="36" fill="white"/>
</mask>
<g mask="url(#mask0_5905_27712)">
<path d="M28.3216 18.1279C28.3216 15.9974 27.734 14.0611 26.5587 12.319C25.3834 10.5767 23.8217 9.28567 21.8734 8.446C21.6829 8.35576 21.5489 8.23703 21.4714 8.08979C21.3939 7.94281 21.3958 7.78895 21.477 7.62821C21.5578 7.45498 21.7013 7.34662 21.9075 7.30312C22.1135 7.25938 22.3178 7.28275 22.5203 7.37324C24.6468 8.34439 26.3568 9.78949 27.6503 11.7085C28.9438 13.6279 29.5906 15.7673 29.5906 18.1268C29.5906 20.4863 28.9438 22.6261 27.6503 24.5461C26.3568 26.4659 24.6468 27.9114 22.5203 28.8825C22.3178 28.973 22.1135 28.9964 21.9075 28.9527C21.7013 28.9092 21.5578 28.8008 21.477 28.6276C21.3958 28.4668 21.3939 28.313 21.4714 28.166C21.5489 28.0188 21.6829 27.9 21.8734 27.8098C23.8217 26.9701 25.3834 25.6791 26.5587 23.9368C27.734 22.1947 28.3216 20.2584 28.3216 18.1279ZM11.6482 21.1651H7.6098C7.2948 21.1651 7.0333 21.0612 6.8253 20.8535C6.61755 20.6455 6.51367 20.384 6.51367 20.0691V16.2617C6.51367 15.9467 6.61755 15.6853 6.8253 15.4773C7.0333 15.2696 7.2948 15.1657 7.6098 15.1657H11.6482L15.8696 10.9451C16.0816 10.7329 16.3254 10.6838 16.6009 10.7978C16.8761 10.912 17.0138 11.1062 17.0138 11.3805V24.9312C17.0138 25.2182 16.8761 25.4188 16.6009 25.533C16.3254 25.647 16.0816 25.5979 15.8696 25.3857L11.6482 21.1651ZM23.7638 18.1688C23.7638 19.0669 23.5865 19.901 23.232 20.6709C22.8775 21.4408 22.3663 22.0846 21.6983 22.6023C21.5438 22.7293 21.3783 22.749 21.2018 22.6616C21.025 22.5741 20.9367 22.433 20.9367 22.2382V14.0236C20.9367 13.8286 21.025 13.6906 21.2018 13.6096C21.3783 13.5286 21.5438 13.5435 21.6983 13.6542C22.3663 14.1772 22.8775 14.8367 23.232 15.6329C23.5865 16.4291 23.7638 17.2744 23.7638 18.1688ZM15.7444 12.9485L12.2096 16.4349H7.78268V19.8958H12.2096L15.7444 23.3879V12.9485Z" fill="white"/>
</g>
</svg>
