<svg width="32" height="32" viewBox="0 0 32 32" fill="none" xmlns="http://www.w3.org/2000/svg">
<mask id="mask0_3368_16359" style="mask-type:alpha" maskUnits="userSpaceOnUse" x="0" y="0" width="32" height="32">
<rect width="32" height="32" fill="#D9D9D9"/>
</mask>
<g mask="url(#mask0_3368_16359)">
<path d="M6.86747 26C6.34401 26 5.9019 25.8147 5.54114 25.4442C5.18038 25.0736 5 24.6195 5 24.0818V10.8557C5 10.318 5.18038 9.86391 5.54114 9.49334C5.9019 9.12278 6.34401 8.9375 6.86747 8.9375H12.6667V6.91822C12.6667 6.38053 12.847 5.92641 13.2078 5.55584C13.5686 5.18528 14.0107 5 14.5341 5H18.4659C18.9893 5 19.4314 5.18528 19.7922 5.55584C20.153 5.92641 20.3333 6.38053 20.3333 6.91822V8.9375H26.1325C26.656 8.9375 27.0981 9.12278 27.4589 9.49334C27.8196 9.86391 28 10.318 28 10.8557V24.0818C28 24.6195 27.8196 25.0736 27.4589 25.4442C27.0981 25.8147 26.656 26 26.1325 26H6.86747ZM13.748 8.9375H19.252V6.91822C19.252 6.71631 19.1701 6.53125 19.0064 6.36303C18.8426 6.19481 18.6624 6.1107 18.4659 6.1107H14.5341C14.3376 6.1107 14.1574 6.19481 13.9936 6.36303C13.8299 6.53125 13.748 6.71631 13.748 6.91822V8.9375Z" fill="white" fill-opacity="0.3"/>
</g>
</svg>
