<svg width="139" height="155" viewBox="0 0 139 155" fill="none" xmlns="http://www.w3.org/2000/svg">
<path fill-rule="evenodd" clip-rule="evenodd" d="M77.3783 2.07753C72.4913 -0.692512 66.5087 -0.692507 61.6217 2.07753L34.75 17.309L8.12379 32.9657C3.28147 35.8131 0.290175 40.9944 0.245523 46.6118L0 77.5L0.245523 108.388C0.290175 114.006 3.28148 119.187 8.1238 122.034L34.75 137.691L61.6217 152.922C66.5087 155.693 72.4913 155.693 77.3783 152.922L104.25 137.691L130.876 122.034C135.719 119.187 138.71 114.006 138.754 108.388L139 77.5L138.754 46.6118C138.71 40.9944 135.719 35.8131 130.876 32.9657L104.25 17.309L77.3783 2.07753ZM90.35 41.3854L73.4391 31.8C70.9956 30.4149 68.0043 30.4149 65.5609 31.8L48.65 41.3854L31.8936 51.2385C29.4725 52.6622 27.9768 55.2528 27.9545 58.0615L27.8 77.5L27.9545 96.9385C27.9768 99.7472 29.4725 102.338 31.8937 103.762L48.65 113.615L65.5609 123.2C68.0043 124.585 70.9957 124.585 73.4391 123.2L90.35 113.615L107.106 103.762C109.527 102.338 111.023 99.7472 111.045 96.9385L111.2 77.5L111.045 58.0615C111.023 55.2528 109.527 52.6622 107.106 51.2385L90.35 41.3854Z" fill="url(#paint0_linear_40_27434)"/>
<circle cx="69.5" cy="77.5" r="22.5" fill="#1E1E1E"/>
<defs>
<linearGradient id="paint0_linear_40_27434" x1="0" y1="77.5" x2="139" y2="77.5" gradientUnits="userSpaceOnUse">
<stop stop-color="#FFD633"/>
<stop offset="0.3" stop-color="#FF8900"/>
<stop offset="0.6" stop-color="#E33E78"/>
<stop offset="1" stop-color="#7B61FF"/>
</linearGradient>
</defs>
</svg>
